<svg width="38" height="38" viewBox="0 0 38 38" fill="none" xmlns="http://www.w3.org/2000/svg">
<circle cx="19" cy="19" r="19" fill="#86D0D1"/>
<path d="M19 -8.30516e-07C21.4951 -9.39581e-07 23.9658 0.49145 26.271 1.44629C28.5762 2.40113 30.6707 3.80066 32.435 5.56497C34.1993 7.32928 35.5989 9.42383 36.5537 11.729C37.5086 14.0342 38 16.5049 38 19C38 21.4951 37.5085 23.9658 36.5537 26.271C35.5989 28.5762 34.1993 30.6707 32.435 32.435C30.6707 34.1993 28.5762 35.5989 26.271 36.5537C23.9658 37.5085 21.4951 38 19 38L19 19L19 -8.30516e-07Z" fill="#7D5794"/>
</svg>
