<svg width="31" height="31" viewBox="0 0 31 31" fill="none" xmlns="http://www.w3.org/2000/svg">
<path fill-rule="evenodd" clip-rule="evenodd" d="M15.5 2.58333C10.5013 2.58333 6.45837 6.62625 6.45837 11.625C6.45837 18.4062 15.5 28.4167 15.5 28.4167C15.5 28.4167 24.5417 18.4062 24.5417 11.625C24.5417 6.62625 20.4988 2.58333 15.5 2.58333ZM9.04171 11.625C9.04171 8.05999 11.935 5.16666 15.5 5.16666C19.065 5.16666 21.9584 8.05999 21.9584 11.625C21.9584 15.345 18.2384 20.9121 15.5 24.3867C12.8134 20.9379 9.04171 15.3062 9.04171 11.625ZM12.2709 11.625C12.2709 9.84158 13.7166 8.39583 15.5 8.39583C16.6537 8.39583 17.7197 9.0113 18.2966 10.0104C18.8734 11.0095 18.8734 12.2405 18.2966 13.2396C17.7197 14.2387 16.6537 14.8542 15.5 14.8542C13.7166 14.8542 12.2709 13.4084 12.2709 11.625Z" fill="#575656"/>
</svg>
