<svg width="188" height="308" viewBox="0 0 188 308" fill="none" xmlns="http://www.w3.org/2000/svg">
<path d="M156.158 258.168C156.158 258.168 167.068 242.311 140.178 218.601L133.007 226.683C133.007 226.683 151.365 243.146 150.582 252.827" fill="#EAE9E9"/>
<path d="M104.642 288.161C104.642 288.161 85.4664 289.82 78.1227 254.73L88.6906 252.484C88.6906 252.484 93.9443 276.577 102.751 280.675" fill="#EAE9E9"/>
<path d="M146.126 235.323L88.4439 268.906C88.4439 268.906 30.5797 265.28 8.21063 185.803C8.21063 185.803 4.74332 179.17 16.2453 172.473L97.9075 124.929C109.409 118.232 113.466 124.522 113.466 124.522C171.541 183.21 146.126 235.323 146.126 235.323Z" fill="#EAE9E9"/>
<path d="M156.644 230.508C156.74 232.048 156.738 233.024 156.738 233.024L81.2049 277C81.2049 277 80.3554 276.52 79.0639 275.677C73.1588 271.795 58.054 260.13 73.4654 250.789C92.247 239.411 105.615 232.071 105.615 232.071C105.615 232.071 118.598 224.069 137.765 213.353C153.496 204.562 156.184 223.457 156.644 230.508Z" fill="#EAE9E9"/>
<path d="M131.715 247.593C131.715 247.593 139.126 267.921 146.353 263.877C146.353 263.877 152.994 261.796 156.159 258.168C156.159 258.168 143.795 248.822 145.372 239.641L131.715 247.593Z" fill="#EAE9E9"/>
<path d="M107.417 261.739C107.417 261.739 121.437 278.22 114.353 282.508C114.353 282.508 109.263 287.257 104.547 288.217C104.547 288.217 102.522 272.852 93.7604 269.69L107.417 261.739Z" fill="#EAE9E9"/>
<path d="M113.724 257.889C113.724 257.889 111.065 277.386 127.085 268.059C143.106 258.731 125.829 250.842 125.829 250.842L113.724 257.889Z" fill="#EAE9E9"/>
<path d="M116.096 256.482C116.096 256.482 115.168 269.005 124.566 263.534C133.963 258.062 123.196 252.348 123.196 252.348L116.096 256.482Z" fill="#EAE9E9"/>
<g clip-path="url(#clip0)">
<path d="M100.968 0.939575C100.968 0.939575 118.374 12.1782 107.065 58.7222L96.802 54.1029C96.802 54.1029 104.384 22.0007 98.8362 11.0928" fill="#F8A593"/>
<path d="M41.3566 0.939575C41.3566 0.939575 23.9498 12.1782 35.2589 58.7222L45.5217 54.1029C45.5217 54.1029 37.9399 22.0007 43.4881 11.0928" fill="#F8A593"/>
<path d="M103.792 34.8563H37.0461C37.0461 34.8563 -11.1357 78.9762 9.52188 188.345C9.52188 188.345 9.86253 198.574 23.1719 198.574H117.666C130.976 198.574 131.316 188.345 131.316 188.345C151.977 78.9762 103.792 34.8563 103.792 34.8563Z" fill="#424A9F"/>
<path d="M115.304 33.3084C114.613 31.4216 114.12 30.2703 114.12 30.2703H26.7181C26.7181 30.2703 26.225 31.4216 25.5335 33.3084C22.3832 41.9624 15.199 66.1525 33.2172 66.5875C55.1733 67.1119 70.419 66.5875 70.419 66.5875C70.419 66.5875 85.6647 67.1119 107.621 66.5875C125.639 66.1525 118.455 41.9624 115.304 33.3084Z" fill="#F8A593"/>
<path d="M85.1645 30.2703C85.1645 30.2703 81.3412 1.13273 89.6211 0.939563C89.6211 0.939563 96.4083 -1.17116 100.968 0.939563C100.968 0.939563 94.9862 20.5008 100.968 30.2703H85.1645Z" fill="#424A9F"/>
<path d="M57.0486 30.2703C57.0486 30.2703 60.8719 1.13273 52.5921 0.939563C52.5921 0.939563 45.8048 -1.17116 41.2458 0.939563C41.2458 0.939563 47.227 20.5008 41.2458 30.2703H57.0486Z" fill="#424A9F"/>
<path d="M64.4365 30.4801C64.4365 30.4801 52.3289 9.25842 70.8664 9.25842C89.4039 9.25842 78.4432 30.4801 78.4432 30.4801H64.4365Z" fill="#424A9F"/>
<path d="M67.1943 30.5115C67.1943 30.5115 60.0914 16.3428 70.9658 16.3428C81.8401 16.3428 75.4101 30.5115 75.4101 30.5115H67.1943Z" fill="#F8A593"/>
<path d="M105.262 150.162H35.5759C35.5759 150.162 28.473 181.726 41.9149 181.726H98.9233C112.365 181.726 105.262 150.162 105.262 150.162Z" fill="#F8A593"/>
<path d="M107.603 164.279C94.6993 167.145 64.658 171.878 34.8492 162.616C34.8492 162.616 34.4426 162.412 33.7908 162.021C33.9585 159.636 34.23 157.371 34.5137 155.453C34.7333 155.568 34.8492 155.632 34.8492 155.632C64.2194 164.759 93.8086 160.301 107.023 157.423C107.297 159.517 107.516 161.874 107.603 164.279Z" fill="#424A9F"/>
<path d="M34.9062 129.976C34.9062 129.976 64.9442 141.194 106.405 129.976C106.405 129.976 122.946 140.261 113.615 155.958C113.615 155.958 74.059 168.222 34.9062 155.958C34.9062 155.958 11.1995 143.729 34.9062 129.976Z" fill="#F8A593"/>
<path d="M78.9476 164.906H66.1697V174.266H78.9476V164.906Z" fill="#424A9F"/>
</g>
<defs>
<clipPath id="clip0">
<rect width="132.091" height="198.573" fill="white" transform="translate(4.37378)"/>
</clipPath>
</defs>
</svg>
