<svg width="162" height="344" viewBox="0 0 162 344" fill="none" xmlns="http://www.w3.org/2000/svg">
<path fill-rule="evenodd" clip-rule="evenodd" d="M126.714 334.391C126.762 334.941 127.247 335.348 127.797 335.3L143.004 333.977C143.554 333.929 143.961 333.445 143.913 332.894L143.47 327.798C143.423 327.261 142.961 326.86 142.427 326.886L157.765 325.551C159.321 325.416 160.531 324.714 160.467 323.984L160.286 321.902C160.223 321.172 158.91 320.69 157.353 320.825L152.937 321.21C153.841 320.805 154.42 320.112 154.356 319.377L151.723 289.115L151.857 289.103L151.593 286.073L152.23 286.017C154.935 285.782 157.003 284.164 156.85 282.405L155.682 268.977C155.529 267.217 153.212 265.981 150.508 266.217L146.196 266.592L141.43 211.801L34.7668 221.081L39.5334 275.871L32.6634 276.469C29.9589 276.704 27.8905 278.322 28.0436 280.082L28.1347 281.128L28.1345 281.128L29.1203 292.46L29.1205 292.46L29.2118 293.509C29.3649 295.269 31.6815 296.505 34.386 296.269L35.1561 296.202L38.0525 329.495C38.1164 330.23 38.8063 330.813 39.7663 331.055L35.3505 331.439C33.7943 331.575 32.5842 332.276 32.6477 333.006L32.8289 335.089C32.8924 335.819 34.2054 336.301 35.7617 336.165L127.141 328.216C126.611 328.283 126.224 328.757 126.271 329.294L126.714 334.391Z" fill="#DADADA"/>
<path d="M136.966 85.5154L19.25 90.6638L24.3838 208.045L142.1 202.897L136.966 85.5154Z" fill="#424A9F"/>
<path d="M129.888 97.9176L28.7861 102.339L32.2956 182.582L133.397 178.16L129.888 97.9176Z" fill="white"/>
<path d="M12.8323 23.5016L134.671 18.1728C135.922 18.1181 136.975 19.084 137.029 20.324L140.226 93.413C140.28 94.653 139.315 95.7071 138.065 95.7618L16.2257 101.091C14.9753 101.145 13.9223 100.179 13.868 98.9394L10.6714 25.8504C10.6172 24.6104 11.5818 23.5562 12.8323 23.5016Z" fill="#F8A593" stroke="#424A9F" stroke-width="2"/>
<path d="M140.414 71.4519L141.322 92.222C141.341 92.6485 141.276 93.0746 141.13 93.476C140.984 93.8773 140.76 94.246 140.471 94.5611C140.182 94.8761 139.833 95.1312 139.445 95.312C139.057 95.4927 138.637 95.5954 138.21 95.6143L16.3683 100.943C15.5039 100.981 14.66 100.675 14.0222 100.092C13.3843 99.5092 13.0048 98.6977 12.967 97.8358L12.0586 77.0657L140.414 71.4519Z" fill="#424A9F"/>
<path d="M141.297 75.5479L11.2407 81.236C7.70679 81.3906 4.96212 84.3735 5.11654 87.9043L6.10968 110.612C6.2641 114.143 9.25872 116.875 12.7926 116.72L142.849 111.032C146.383 110.877 149.128 107.894 148.973 104.364L147.98 81.656C147.826 78.1252 144.831 75.3933 141.297 75.5479Z" fill="#424A9F" stroke="#424A9F" stroke-width="2"/>
<path d="M140.654 8.28051L6.00844 14.1694C4.96411 14.2151 3.99056 14.561 3.26327 15.1336C2.53751 15.7049 1.99645 16.5625 2.0411 17.5833L2.19513 21.1053C2.23978 22.1261 2.85364 22.9332 3.62652 23.439C4.40102 23.9459 5.40105 24.2055 6.44538 24.1598L141.091 18.271C142.136 18.2253 143.109 17.8794 143.836 17.3068C144.562 16.7354 145.103 15.8778 145.059 14.857L144.905 11.3351C144.86 10.3142 144.246 9.50714 143.473 9.00133C142.699 8.49445 141.699 8.23484 140.654 8.28051Z" fill="#424A9F" stroke="#424A9F" stroke-width="2"/>
<path d="M147.059 83.4719L6.19336 89.6328L7.03148 108.796L147.897 102.635L147.059 83.4719Z" fill="#F8A593"/>
<path d="M75.453 71.1896C88.1435 70.6346 97.9811 59.897 97.4261 47.2066C96.8711 34.5162 86.1335 24.6785 73.4431 25.2335C60.7527 25.7886 50.915 36.5261 51.47 49.2165C52.0251 61.9069 62.7626 71.7446 75.453 71.1896Z" fill="#F8A593" stroke="#424A9F" stroke-width="2"/>
<path d="M75.1041 63.197C83.3805 62.8351 89.7964 55.8323 89.4344 47.5559C89.0724 39.2796 82.0697 32.8637 73.7933 33.2257C65.5169 33.5877 59.1011 40.5904 59.463 48.8668C59.825 57.1431 66.8278 63.559 75.1041 63.197Z" fill="#424A9F"/>
<path d="M27.0148 41.5425C30.859 41.3744 33.8394 38.1306 33.6717 34.2974C33.5041 30.4642 30.2519 27.493 26.4077 27.6612C22.5636 27.8293 19.5832 31.073 19.7508 34.9063C19.9185 38.7395 23.1707 41.7107 27.0148 41.5425Z" fill="#424A9F"/>
<path d="M132.238 22.3866L117.023 23.052L117.687 38.223L132.901 37.5576L132.238 22.3866Z" fill="#424A9F"/>
<rect x="112.095" y="1.54712" width="19" height="12" rx="1" transform="rotate(-2.5043 112.095 1.54712)" fill="#424A9F"/>
</svg>
