<svg width="309" height="252" viewBox="0 0 309 252" fill="none" xmlns="http://www.w3.org/2000/svg">
<path fill-rule="evenodd" clip-rule="evenodd" d="M81.9927 239.952C83.1243 243.649 87.0983 245.953 90.8688 245.099L131.488 235.899C135.258 235.045 137.397 231.356 136.266 227.66L130.026 207.277L133.902 210.611C136.833 213.132 141.585 213.132 144.516 210.611L173.587 185.605C176.518 183.084 176.518 178.997 173.587 176.476L113.615 124.891C110.684 122.37 105.932 122.37 103.001 124.891L83.916 141.307L58.3957 139.754C54.5368 139.52 51.1518 142.453 50.835 146.306L48.9534 169.192L2.60411 202.625C-0.531288 204.887 -0.885228 208.965 1.81357 211.733L26.7899 237.35C29.4887 240.119 34.2183 240.529 37.3537 238.267L43.2276 234.03L69.4384 242.722C73.1079 243.939 77.3644 242.065 78.9456 238.537L80.4988 235.072L81.9927 239.952Z" fill="#EAE9E9"/>
<rect x="10.1132" y="74.2305" width="51.0791" height="93.1888" rx="5.5" transform="rotate(-50.0164 10.1132 74.2305)" fill="white" stroke="black" stroke-width="3"/>
<rect x="38.6354" y="50.3127" width="51.0791" height="93.1888" rx="5.5" transform="rotate(-21.0822 38.6354 50.3127)" fill="white" stroke="black" stroke-width="3"/>
<rect x="57.2984" y="58.2054" width="51.0791" height="93.1888" rx="5.5" transform="rotate(-4.04509 57.2984 58.2054)" fill="white" stroke="black" stroke-width="3"/>
<rect x="96.1834" y="29.8325" width="53.1229" height="96.8239" rx="5.5" transform="rotate(14.7518 96.1834 29.8325)" fill="white" stroke="black" stroke-width="3"/>
<rect x="150.282" y="66.7075" width="53.1229" height="96.8239" rx="5.5" transform="rotate(45 150.282 66.7075)" fill="white" stroke="black" stroke-width="3"/>
<rect x="235.346" y="98.0595" width="90.8033" height="125.17" rx="7" transform="rotate(42.365 235.346 98.0595)" fill="#EAE9E9"/>
<rect x="230.25" y="9.61133" width="87.5978" height="155.807" rx="4" transform="rotate(34.9834 230.25 9.61133)" fill="white"/>
<mask id="mask0" mask-type="alpha" maskUnits="userSpaceOnUse" x="151" y="9" width="139" height="175">
<path d="M221.954 10.4772L226.314 9.70701C226.917 9.60057 227.506 9.55738 228.083 9.57745C228.669 9.58362 229.204 9.68399 229.689 9.87855C230.175 10.0731 230.588 10.3779 230.929 10.7928C231.271 11.2078 231.504 11.7698 231.629 12.4788C231.79 13.3887 231.671 14.1958 231.271 14.9C230.883 15.6022 230.234 16.1007 229.323 16.3956L233.636 21.3551L230.941 21.831L227.095 17.0267L225.464 17.3148L226.404 22.6325L224.17 23.0269L221.954 10.4772ZM226.863 15.0936C227.183 15.0372 227.499 14.9691 227.814 14.8891C228.127 14.7973 228.404 14.6752 228.645 14.5229C228.896 14.3568 229.085 14.1468 229.21 13.8931C229.334 13.6275 229.359 13.2879 229.286 12.8743C229.222 12.508 229.093 12.2261 228.899 12.0287C228.706 11.8314 228.476 11.7014 228.209 11.6389C227.94 11.5645 227.649 11.5368 227.335 11.5556C227.034 11.5723 226.741 11.6057 226.457 11.6558L224.525 11.9971L225.126 15.4004L226.863 15.0936Z" fill="#7D5794"/>
<path d="M240.936 26.2175L241.706 30.578C241.813 31.1807 241.856 31.7701 241.836 32.3464C241.83 32.9324 241.729 33.468 241.535 33.9533C241.34 34.4385 241.035 34.8518 240.62 35.1932C240.205 35.5346 239.643 35.7679 238.934 35.8931C238.024 36.0538 237.217 35.9344 236.513 35.5348C235.811 35.147 235.312 34.4978 235.018 33.5872L230.058 37.8996L229.582 35.2053L234.386 31.359L234.098 29.7283L228.781 30.6675L228.386 28.4341L240.936 26.2175ZM236.32 31.1273C236.376 31.4463 236.444 31.7633 236.524 32.0782C236.616 32.391 236.738 32.668 236.89 32.9092C237.056 33.1601 237.266 33.3484 237.52 33.4742C237.786 33.5979 238.125 33.6232 238.539 33.5502C238.905 33.4855 239.187 33.3565 239.384 33.1632C239.582 32.9699 239.712 32.7398 239.774 32.4729C239.849 32.2039 239.876 31.9126 239.858 31.5991C239.841 31.2974 239.807 31.0047 239.757 30.7211L239.416 28.789L236.013 29.3902L236.32 31.1273Z" fill="#7D5794"/>
<path d="M249.611 69.6373L250.485 74.5827C250.631 75.4099 250.642 76.2306 250.518 77.0446C250.405 77.8565 250.141 78.6038 249.726 79.2865C249.31 79.9692 248.738 80.5577 248.008 81.0521C247.291 81.5444 246.401 81.8844 245.337 82.0723C244.262 82.2622 243.292 82.2203 242.427 81.9465C241.576 81.6825 240.833 81.2714 240.198 80.7133C239.578 80.165 239.067 79.5179 238.668 78.772C238.282 78.0359 238.022 77.2898 237.888 76.5335L237.062 71.8539L249.611 69.6373ZM239.771 75.3966C239.894 76.0938 240.087 76.7361 240.349 77.3235C240.625 77.9205 240.969 78.4203 241.382 78.8227C241.806 79.2231 242.307 79.5063 242.884 79.6723C243.476 79.8481 244.156 79.8682 244.924 79.7325C245.68 79.5989 246.309 79.3659 246.811 79.0336C247.313 78.7012 247.692 78.2931 247.947 77.8093C248.217 77.3351 248.378 76.795 248.429 76.1888C248.494 75.5924 248.466 74.9515 248.345 74.2661L247.985 72.2276L239.477 73.7304L239.771 75.3966Z" fill="#7D5794"/>
<path d="M196.397 101.681L197.865 109.994L195.845 110.351L194.771 104.271L191.686 104.816L192.704 110.576L190.683 110.933L189.666 105.173L186.262 105.774L187.393 112.173L185.372 112.53L183.847 103.897L196.397 101.681Z" fill="#7D5794"/>
<path d="M241.916 95.9659L241.236 92.1194L243.257 91.7625L245.01 101.689L242.99 102.046L242.31 98.1993L231.781 100.059L231.387 97.8256L241.916 95.9659Z" fill="#7D5794"/>
<path d="M218.7 117.794L219.379 121.64L217.358 121.997L215.605 112.071L217.626 111.714L218.305 115.56L228.834 113.7L229.229 115.934L218.7 117.794Z" fill="#7D5794"/>
<path d="M265.359 55.2825L265.882 58.2426L257.632 65.9693L257.638 66.0048L266.962 64.358L267.356 66.5914L254.806 68.808L254.305 65.9719L262.835 58.0679L262.828 58.0325L253.203 59.7325L252.809 57.4991L265.359 55.2825Z" fill="#7D5794"/>
<path d="M201.998 60.2675L203.466 68.5809L201.446 68.9378L200.372 62.8579L197.287 63.4026L198.305 69.1635L196.284 69.5204L195.267 63.7595L191.863 64.3607L192.994 70.7596L190.973 71.1165L189.448 62.4841L201.998 60.2675Z" fill="#7D5794"/>
<path d="M262.897 34.696L263.292 36.9294L250.742 39.146L250.347 36.9126L262.897 34.696Z" fill="#7D5794"/>
<path d="M210.241 32.9196L218.554 31.4513L218.911 33.472L212.831 34.5459L213.376 37.6302L219.137 36.6126L219.494 38.6334L213.733 39.6509L214.334 43.0542L220.733 41.924L221.09 43.9447L212.457 45.4694L210.241 32.9196Z" fill="#7D5794"/>
<path d="M238.916 46.3461L241.486 45.8922L246.582 54.7712L248.435 44.6649L250.845 44.2391L247.992 57.6843L246.06 58.0255L238.916 46.3461Z" fill="#7D5794"/>
<path d="M224.587 52.1333L226.519 51.792L234.142 63.3869L231.589 63.8377L229.912 61.1728L224.47 62.1339L223.843 65.2058L221.344 65.6473L224.587 52.1333ZM228.794 59.3962L225.96 54.6324L224.894 60.0849L228.794 59.3962Z" fill="#7D5794"/>
<path d="M232.905 139.969L230.972 140.31L223.349 128.716L225.902 128.265L227.579 130.93L233.021 129.969L233.648 126.897L236.147 126.455L232.905 139.969ZM228.697 132.706L231.531 137.47L232.597 132.018L228.697 132.706Z" fill="#7D5794"/>
<path d="M210.469 99.2587L208.537 99.6L200.914 88.0051L203.467 87.5543L205.144 90.2192L210.586 89.2581L211.213 86.1862L213.712 85.7447L210.469 99.2587ZM206.262 91.9958L209.096 96.7596L210.162 91.3071L206.262 91.9958Z" fill="#7D5794"/>
<path d="M220.705 74.1905L223.665 73.6676L231.392 81.9174L231.427 81.9112L229.781 72.5875L232.014 72.193L234.231 84.7428L231.395 85.2437L223.491 76.7145L223.455 76.7207L225.155 86.3457L222.922 86.7402L220.705 74.1905Z" fill="#7D5794"/>
<path d="M177.383 89.4001L176.613 85.0396C176.507 84.4369 176.464 83.8474 176.484 83.2712C176.49 82.6852 176.59 82.1495 176.785 81.6643C176.979 81.1791 177.284 80.7658 177.699 80.4244C178.114 80.083 178.676 79.8497 179.385 79.7245C180.295 79.5638 181.102 79.6832 181.806 80.0828C182.508 80.4706 183.007 81.1198 183.302 82.0304L188.261 77.718L188.737 80.4123L183.933 84.2585L184.221 85.8893L189.539 84.9501L189.933 87.1835L177.383 89.4001ZM182 84.4903C181.943 84.1712 181.875 83.8543 181.795 83.5394C181.703 83.2266 181.581 82.9496 181.429 82.7084C181.263 82.4575 181.053 82.2691 180.799 82.1433C180.534 82.0197 180.194 81.9943 179.781 82.0674C179.414 82.1321 179.132 82.2611 178.935 82.4544C178.738 82.6476 178.608 82.8777 178.545 83.1447C178.471 83.4137 178.443 83.705 178.462 84.0185C178.479 84.3202 178.512 84.6128 178.562 84.8964L178.903 86.8285L182.307 86.2274L182 84.4903Z" fill="#7D5794"/>
<path d="M254.844 89.9944L257.414 89.5404L262.51 98.4194L264.363 88.3132L266.774 87.8874L263.921 101.333L261.988 101.674L254.844 89.9944Z" fill="#7D5794"/>
<path d="M256.389 124.363C256.522 125.119 256.513 125.828 256.362 126.488C256.208 127.137 255.945 127.713 255.571 128.218C255.197 128.723 254.724 129.148 254.151 129.493C253.576 129.826 252.928 130.056 252.207 130.183C251.486 130.31 250.799 130.316 250.145 130.2C249.489 130.072 248.892 129.836 248.356 129.492C247.832 129.146 247.387 128.695 247.021 128.138C246.664 127.567 246.419 126.904 246.285 126.148L244.883 118.207L247.116 117.812L248.506 125.682C248.56 125.99 248.665 126.306 248.82 126.632C248.973 126.946 249.181 127.226 249.444 127.472C249.718 127.716 250.05 127.902 250.438 128.028C250.835 128.141 251.3 128.15 251.832 128.056C252.363 127.962 252.791 127.795 253.114 127.555C253.447 127.302 253.695 127.014 253.857 126.693C254.032 126.37 254.137 126.034 254.173 125.687C254.207 125.327 254.197 124.994 254.143 124.687L252.753 116.816L254.986 116.422L256.389 124.363Z" fill="#7D5794"/>
<path d="M285.059 85.3124C283.657 86.413 281.999 87.1324 280.085 87.4705C279.116 87.6417 278.196 87.6456 277.327 87.4824C276.467 87.3053 275.691 86.9853 275 86.5224C274.319 86.0456 273.742 85.4347 273.269 84.6896C272.796 83.9445 272.473 83.0815 272.3 82.1007C272.122 81.0962 272.127 80.1571 272.314 79.2833C272.499 78.3976 272.83 77.6142 273.306 76.9328C273.795 76.2494 274.414 75.6832 275.163 75.234C275.922 74.7709 276.786 74.4538 277.755 74.2826C278.712 74.1136 279.631 74.0731 280.512 74.1613C281.391 74.2376 282.213 74.5128 282.979 74.9867L281.625 76.9441C281.154 76.6251 280.611 76.4104 279.994 76.3C279.389 76.1874 278.768 76.1875 278.13 76.3002C277.48 76.415 276.91 76.6376 276.42 76.9678C275.94 77.2842 275.547 77.6826 275.242 78.163C274.935 78.6315 274.723 79.1564 274.606 79.7375C274.501 80.3166 274.504 80.9193 274.615 81.5456C274.734 82.2192 274.944 82.8218 275.245 83.3536C275.558 83.8832 275.94 84.3215 276.391 84.6683C276.842 85.0151 277.348 85.2607 277.91 85.4052C278.484 85.5476 279.095 85.5615 279.745 85.4467C280.313 85.3465 280.835 85.1994 281.312 85.0054C281.802 84.8093 282.222 84.5645 282.572 84.2711L282.049 81.3109L279.479 81.7649L279.122 79.7442L283.926 78.8957L285.059 85.3124Z" fill="#7D5794"/>
<path d="M277.114 53.6888L279.685 53.2349L284.781 62.1138L286.633 52.0076L289.044 51.5818L286.191 65.027L284.259 65.3682L277.114 53.6888Z" fill="#7D5794"/>
<path d="M159.524 100.506L163.884 99.7357C164.487 99.6292 165.077 99.5861 165.653 99.6061C166.239 99.6123 166.775 99.7127 167.26 99.9072C167.745 100.102 168.158 100.407 168.5 100.822C168.841 101.236 169.074 101.798 169.2 102.507C169.36 103.417 169.241 104.224 168.841 104.929C168.453 105.631 167.804 106.129 166.894 106.424L171.206 111.384L168.512 111.86L164.666 107.055L163.035 107.343L163.974 112.661L161.741 113.056L159.524 100.506ZM164.434 105.122C164.753 105.066 165.07 104.998 165.385 104.918C165.697 104.826 165.974 104.704 166.216 104.552C166.467 104.385 166.655 104.175 166.781 103.922C166.904 103.656 166.93 103.317 166.857 102.903C166.792 102.537 166.663 102.255 166.47 102.057C166.276 101.86 166.046 101.73 165.779 101.668C165.51 101.593 165.219 101.565 164.906 101.584C164.604 101.601 164.311 101.634 164.028 101.684L162.096 102.026L162.697 105.429L164.434 105.122Z" fill="#7D5794"/>
<path d="M180.248 119.461L181.018 123.821C181.125 124.424 181.168 125.014 181.148 125.59C181.142 126.176 181.041 126.711 180.847 127.197C180.652 127.682 180.348 128.095 179.933 128.437C179.518 128.778 178.956 129.011 178.247 129.136C177.337 129.297 176.53 129.178 175.825 128.778C175.123 128.39 174.625 127.741 174.33 126.831L169.37 131.143L168.894 128.449L173.699 124.602L173.411 122.972L168.093 123.911L167.698 121.677L180.248 119.461ZM175.632 124.371C175.688 124.69 175.756 125.007 175.836 125.322C175.928 125.634 176.05 125.911 176.202 126.153C176.369 126.403 176.579 126.592 176.832 126.718C177.098 126.841 177.437 126.867 177.851 126.794C178.217 126.729 178.499 126.6 178.697 126.407C178.894 126.213 179.024 125.983 179.087 125.716C179.161 125.447 179.189 125.156 179.17 124.842C179.153 124.541 179.12 124.248 179.07 123.965L178.728 122.032L175.325 122.634L175.632 124.371Z" fill="#7D5794"/>
<path d="M201.437 151.11L201.96 154.07L193.71 161.797L193.716 161.832L203.04 160.185L203.435 162.419L190.885 164.635L190.384 161.799L198.913 153.895L198.907 153.86L189.282 155.56L188.887 153.326L201.437 151.11Z" fill="#7D5794"/>
<path d="M203.491 128.551L203.886 130.785L191.336 133.002L190.942 130.768L203.491 128.551Z" fill="#7D5794"/>
<path d="M151.083 124.383L159.397 122.915L159.754 124.935L153.674 126.009L154.218 129.094L159.979 128.076L160.336 130.097L154.575 131.114L155.176 134.518L161.575 133.387L161.932 135.408L153.3 136.933L151.083 124.383Z" fill="#7D5794"/>
<path d="M174.995 142.173L177.565 141.719L182.661 150.598L184.513 140.492L186.924 140.066L184.071 153.512L182.139 153.853L174.995 142.173Z" fill="#7D5794"/>
<path d="M160.665 147.961L162.597 147.619L170.22 159.214L167.668 159.665L165.991 157L160.549 157.961L159.922 161.033L157.422 161.475L160.665 147.961ZM164.873 155.224L162.039 150.46L160.973 155.912L164.873 155.224Z" fill="#7D5794"/>
<path d="M221.137 181.14C219.735 182.24 218.077 182.96 216.163 183.298C215.194 183.469 214.275 183.473 213.405 183.31C212.545 183.133 211.77 182.813 211.079 182.35C210.397 181.873 209.82 181.262 209.347 180.517C208.875 179.772 208.552 178.909 208.378 177.928C208.201 176.923 208.206 175.984 208.392 175.111C208.577 174.225 208.908 173.441 209.385 172.76C209.873 172.077 210.492 171.51 211.242 171.061C212.001 170.598 212.865 170.281 213.834 170.11C214.791 169.941 215.71 169.9 216.591 169.989C217.469 170.065 218.292 170.34 219.058 170.814L217.704 172.771C217.233 172.452 216.689 172.238 216.073 172.127C215.468 172.015 214.846 172.015 214.208 172.128C213.558 172.242 212.988 172.465 212.498 172.795C212.018 173.111 211.625 173.51 211.32 173.99C211.013 174.459 210.801 174.984 210.684 175.565C210.58 176.144 210.582 176.747 210.693 177.373C210.812 178.046 211.022 178.649 211.323 179.181C211.636 179.71 212.018 180.149 212.469 180.496C212.92 180.842 213.427 181.088 213.989 181.233C214.562 181.375 215.174 181.389 215.824 181.274C216.391 181.174 216.913 181.027 217.391 180.833C217.88 180.637 218.3 180.392 218.65 180.098L218.128 177.138L215.557 177.592L215.2 175.571L220.004 174.723L221.137 181.14Z" fill="#7D5794"/>
<path d="M213.192 149.516L215.763 149.062L220.859 157.941L222.711 147.835L225.122 147.409L222.269 160.854L220.337 161.195L213.192 149.516Z" fill="#7D5794"/>
</mask>
<g mask="url(#mask0)">
<rect x="230.25" y="9.61133" width="87.5978" height="155.807" rx="7" transform="rotate(34.9834 230.25 9.61133)" fill="black"/>
</g>
<rect x="230.865" y="13.0929" width="82.5978" height="150.807" rx="4.5" transform="rotate(34.9834 230.865 13.0929)" stroke="black" stroke-width="5"/>
</svg>
