<svg width="262" height="218" viewBox="0 0 262 218" fill="none" xmlns="http://www.w3.org/2000/svg">
<path d="M40.5301 172.94L37.2188 142.081L86.5364 158.269L40.5301 172.94Z" fill="#EAE9E9" stroke="#EAE9E9" stroke-width="3" stroke-linecap="round" stroke-linejoin="bevel"/>
<path d="M37.2183 142.081L82.1666 130.196L86.5359 158.268L37.2183 142.081Z" fill="#EAE9E9" stroke="#EAE9E9" stroke-width="3" stroke-linecap="round" stroke-linejoin="bevel"/>
<path d="M37.2185 142.081L12.2052 156.032L40.5296 172.94L37.2185 142.081Z" fill="#EAE9E9" stroke="#EAE9E9" stroke-width="3" stroke-linecap="round" stroke-linejoin="bevel"/>
<path d="M12.2054 156.032L36.8057 130.08L37.2203 142.079L12.2054 156.032Z" fill="#EAE9E9" stroke="#EAE9E9" stroke-width="3" stroke-linecap="round" stroke-linejoin="bevel"/>
<path d="M36.8051 130.081L82.167 130.196L37.2186 142.081L36.8051 130.081Z" fill="#EAE9E9" stroke="#EAE9E9" stroke-width="3" stroke-linecap="round" stroke-linejoin="bevel"/>
<path d="M82.167 130.196L109.748 154.023L86.5372 158.267L82.167 130.196Z" fill="#EAE9E9" stroke="#EAE9E9" stroke-width="3" stroke-linecap="round" stroke-linejoin="bevel"/>
<path d="M86.5359 158.268L85.366 178.031L109.748 154.023L86.5359 158.268Z" fill="#EAE9E9" stroke="#EAE9E9" stroke-width="3" stroke-linecap="round" stroke-linejoin="bevel"/>
<path d="M86.536 158.268L40.5298 172.94L85.3663 178.031L86.536 158.268Z" fill="#EAE9E9" stroke="#EAE9E9" stroke-width="3" stroke-linecap="round" stroke-linejoin="bevel"/>
<path d="M40.5295 172.94L38.2093 177.551L85.3657 178.031L40.5295 172.94Z" fill="#EAE9E9" stroke="#EAE9E9" stroke-width="3" stroke-linecap="round" stroke-linejoin="bevel"/>
<path d="M12.2054 156.032L38.2096 177.551L40.5298 172.94L12.2054 156.032Z" fill="#EAE9E9" stroke="#EAE9E9" stroke-width="3" stroke-linecap="round" stroke-linejoin="bevel"/>
<path d="M219.404 173.618L170.74 159.819L220.057 143.631L219.404 173.618Z" fill="#EAE9E9" stroke="#EAE9E9" stroke-width="3" stroke-linecap="round" stroke-linejoin="bevel"/>
<path d="M170.74 159.819L175.109 131.746L220.057 143.632L170.74 159.819Z" fill="#EAE9E9" stroke="#EAE9E9" stroke-width="3" stroke-linecap="round" stroke-linejoin="bevel"/>
<path d="M170.74 159.819L179.485 179.11L219.404 173.618L170.74 159.819Z" fill="#EAE9E9" stroke="#EAE9E9" stroke-width="3" stroke-linecap="round" stroke-linejoin="bevel"/>
<path d="M179.486 179.11L152.253 154.022L170.738 159.817L179.486 179.11Z" fill="#EAE9E9" stroke="#EAE9E9" stroke-width="3" stroke-linecap="round" stroke-linejoin="bevel"/>
<path d="M152.253 154.023L175.109 131.746L170.74 159.819L152.253 154.023Z" fill="#EAE9E9" stroke="#EAE9E9" stroke-width="3" stroke-linecap="round" stroke-linejoin="bevel"/>
<path d="M175.109 131.746L225.196 130.08L220.056 143.63L175.109 131.746Z" fill="#EAE9E9" stroke="#EAE9E9" stroke-width="3" stroke-linecap="round" stroke-linejoin="bevel"/>
<path d="M220.057 143.632L249.577 154.089L225.196 130.081L220.057 143.632Z" fill="#EAE9E9" stroke="#EAE9E9" stroke-width="3" stroke-linecap="round" stroke-linejoin="bevel"/>
<path d="M220.057 143.632L219.403 173.619L249.577 154.089L220.057 143.632Z" fill="#EAE9E9" stroke="#EAE9E9" stroke-width="3" stroke-linecap="round" stroke-linejoin="bevel"/>
<path d="M219.404 173.618L225.267 177.066L249.577 154.089L219.404 173.618Z" fill="#EAE9E9" stroke="#EAE9E9" stroke-width="3" stroke-linecap="round" stroke-linejoin="bevel"/>
<path d="M179.485 179.11L225.268 177.066L219.404 173.618L179.485 179.11Z" fill="#EAE9E9" stroke="#EAE9E9" stroke-width="3" stroke-linecap="round" stroke-linejoin="bevel"/>
<path d="M136.141 209.161L92.0377 171.267H175.734L136.141 209.161Z" fill="#EAE9E9" stroke="#EAE9E9" stroke-width="3" stroke-linecap="round" stroke-linejoin="bevel"/>
<path d="M92.0377 171.267L133.886 137.361L175.734 171.267H92.0377Z" fill="#EAE9E9" stroke="#EAE9E9" stroke-width="3" stroke-linecap="round" stroke-linejoin="bevel"/>
<path d="M92.0377 171.267L78.234 199.474L136.141 209.162L92.0377 171.267Z" fill="#EAE9E9" stroke="#EAE9E9" stroke-width="3" stroke-linecap="round" stroke-linejoin="bevel"/>
<path d="M78.2344 199.474L76.0006 156.165L92.0381 171.264L78.2344 199.474Z" fill="#EAE9E9" stroke="#EAE9E9" stroke-width="3" stroke-linecap="round" stroke-linejoin="bevel"/>
<path d="M76.0001 156.166L133.886 137.361L92.0377 171.267L76.0001 156.166Z" fill="#EAE9E9" stroke="#EAE9E9" stroke-width="3" stroke-linecap="round" stroke-linejoin="bevel"/>
<path d="M133.886 137.361L199.79 156.166L175.734 171.265L133.886 137.361Z" fill="#EAE9E9" stroke="#EAE9E9" stroke-width="3" stroke-linecap="round" stroke-linejoin="bevel"/>
<path d="M175.734 171.267L199.79 196.91V156.166L175.734 171.267Z" fill="#EAE9E9" stroke="#EAE9E9" stroke-width="3" stroke-linecap="round" stroke-linejoin="bevel"/>
<path d="M175.734 171.267L136.141 209.161L199.79 196.91L175.734 171.267Z" fill="#EAE9E9" stroke="#EAE9E9" stroke-width="3" stroke-linecap="round" stroke-linejoin="bevel"/>
<path d="M136.141 209.161L139.148 215.999L199.789 196.91L136.141 209.161Z" fill="#EAE9E9" stroke="#EAE9E9" stroke-width="3" stroke-linecap="round" stroke-linejoin="bevel"/>
<path d="M78.2346 199.474L139.148 216L136.142 209.162L78.2346 199.474Z" fill="#EAE9E9" stroke="#EAE9E9" stroke-width="3" stroke-linecap="round" stroke-linejoin="bevel"/>
<path d="M39.5299 77.7415L36.2185 132.022L85.5362 103.548L39.5299 77.7415Z" fill="white" stroke="#1A1818" stroke-width="3" stroke-linecap="round" stroke-linejoin="bevel"/>
<path d="M36.2185 132.022L81.1669 152.928L85.5361 103.548L36.2185 132.022Z" fill="white" stroke="#1A1818" stroke-width="3" stroke-linecap="round" stroke-linejoin="bevel"/>
<path d="M36.2186 132.022L11.2054 107.482L39.5298 77.7411L36.2186 132.022Z" fill="white" stroke="#1A1818" stroke-width="3" stroke-linecap="round" stroke-linejoin="bevel"/>
<path d="M11.2057 107.482L35.806 153.131L36.2205 132.025L11.2057 107.482Z" fill="white" stroke="#1A1818" stroke-width="3" stroke-linecap="round" stroke-linejoin="bevel"/>
<path d="M35.8051 153.13L81.167 152.928L36.2186 132.022L35.8051 153.13Z" fill="white" stroke="#1A1818" stroke-width="3" stroke-linecap="round" stroke-linejoin="bevel"/>
<path d="M81.167 152.928L108.748 111.016L85.5372 103.55L81.167 152.928Z" fill="white" stroke="#1A1818" stroke-width="3" stroke-linecap="round" stroke-linejoin="bevel"/>
<path d="M85.5362 103.548L84.3662 68.7861L108.748 111.016L85.5362 103.548Z" fill="white" stroke="#1A1818" stroke-width="3" stroke-linecap="round" stroke-linejoin="bevel"/>
<path d="M85.536 103.548L39.5298 77.7415L84.3663 68.7865L85.536 103.548Z" fill="white" stroke="#1A1818" stroke-width="3" stroke-linecap="round" stroke-linejoin="bevel"/>
<path d="M39.5297 77.7415L37.2095 69.631L84.3659 68.7866L39.5297 77.7415Z" fill="white" stroke="#1A1818" stroke-width="3" stroke-linecap="round" stroke-linejoin="bevel"/>
<path d="M11.2056 107.482L37.2098 69.6304L39.53 77.7409L11.2056 107.482Z" fill="white" stroke="#1A1818" stroke-width="3" stroke-linecap="round" stroke-linejoin="bevel"/>
<path d="M218.404 76.5479L169.74 100.82L219.057 129.294L218.404 76.5479Z" fill="white" stroke="#1A1818" stroke-width="3" stroke-linecap="round" stroke-linejoin="bevel"/>
<path d="M169.74 100.82L174.109 150.2L219.057 129.294L169.74 100.82Z" fill="white" stroke="#1A1818" stroke-width="3" stroke-linecap="round" stroke-linejoin="bevel"/>
<path d="M169.74 100.82L178.485 66.8883L218.404 76.5476L169.74 100.82Z" fill="white" stroke="#1A1818" stroke-width="3" stroke-linecap="round" stroke-linejoin="bevel"/>
<path d="M178.486 66.8885L151.253 111.017L169.738 100.823L178.486 66.8885Z" fill="white" stroke="#1A1818" stroke-width="3" stroke-linecap="round" stroke-linejoin="bevel"/>
<path d="M151.253 111.016L174.109 150.2L169.74 100.82L151.253 111.016Z" fill="white" stroke="#1A1818" stroke-width="3" stroke-linecap="round" stroke-linejoin="bevel"/>
<path d="M174.109 150.2L224.196 153.13L219.056 129.296L174.109 150.2Z" fill="white" stroke="#1A1818" stroke-width="3" stroke-linecap="round" stroke-linejoin="bevel"/>
<path d="M219.057 129.294L248.577 110.9L224.196 153.13L219.057 129.294Z" fill="white" stroke="#1A1818" stroke-width="3" stroke-linecap="round" stroke-linejoin="bevel"/>
<path d="M219.057 129.294L218.403 76.5478L248.577 110.9L219.057 129.294Z" fill="white" stroke="#1A1818" stroke-width="3" stroke-linecap="round" stroke-linejoin="bevel"/>
<path d="M218.403 76.5477L224.267 70.4831L248.577 110.9L218.403 76.5477Z" fill="white" stroke="#1A1818" stroke-width="3" stroke-linecap="round" stroke-linejoin="bevel"/>
<path d="M178.486 66.8884L224.268 70.4831L218.404 76.5477L178.486 66.8884Z" fill="white" stroke="#1A1818" stroke-width="3" stroke-linecap="round" stroke-linejoin="bevel"/>
<path d="M135.141 14.0288L91.0374 80.6842H174.733L135.141 14.0288Z" fill="white" stroke="#1A1818" stroke-width="3" stroke-linecap="round" stroke-linejoin="bevel"/>
<path d="M91.0374 80.6843L132.885 140.324L174.733 80.6843H91.0374Z" fill="white" stroke="#1A1818" stroke-width="3" stroke-linecap="round" stroke-linejoin="bevel"/>
<path d="M91.0376 80.6842L77.2339 31.0682L135.141 14.0282L91.0376 80.6842Z" fill="white" stroke="#1A1818" stroke-width="3" stroke-linecap="round" stroke-linejoin="bevel"/>
<path d="M77.2344 31.0682L75.0006 107.248L91.0381 80.6889L77.2344 31.0682Z" fill="white" stroke="#1A1818" stroke-width="3" stroke-linecap="round" stroke-linejoin="bevel"/>
<path d="M75 107.247L132.886 140.324L91.0375 80.6843L75 107.247Z" fill="black" stroke="black" stroke-width="3" stroke-linecap="round" stroke-linejoin="bevel"/>
<path d="M132.886 140.324L198.79 107.246L174.734 80.6872L132.886 140.324Z" fill="black" stroke="black" stroke-width="3" stroke-linecap="round" stroke-linejoin="bevel"/>
<path d="M174.734 80.6843L198.79 35.5786V107.247L174.734 80.6843Z" fill="white" stroke="#1A1818" stroke-width="3" stroke-linecap="round" stroke-linejoin="bevel"/>
<path d="M174.734 80.6842L135.141 14.0288L198.79 35.5791L174.734 80.6842Z" fill="white" stroke="#1A1818" stroke-width="3" stroke-linecap="round" stroke-linejoin="bevel"/>
<path d="M135.141 14.0287L138.148 2.00058L198.789 35.5791L135.141 14.0287Z" fill="black" stroke="#1A1818" stroke-width="3" stroke-linecap="round" stroke-linejoin="bevel"/>
<path d="M77.2345 31.0682L138.148 2L135.141 14.0281L77.2345 31.0682Z" fill="black" stroke="#1A1818" stroke-width="3" stroke-linecap="round" stroke-linejoin="bevel"/>
<path d="M121.473 68.184L128.073 62.256C128.409 61.952 128.745 61.608 129.081 61.224C129.417 60.84 129.585 60.392 129.585 59.88C129.585 59.304 129.377 58.856 128.961 58.536C128.545 58.2 128.057 58.032 127.497 58.032C126.825 58.032 126.297 58.24 125.913 58.656C125.545 59.072 125.337 59.584 125.289 60.192L121.689 59.928C121.737 59.048 121.921 58.288 122.241 57.648C122.561 56.992 122.985 56.448 123.513 56.016C124.041 55.584 124.657 55.264 125.361 55.056C126.081 54.832 126.857 54.72 127.689 54.72C128.457 54.72 129.177 54.832 129.849 55.056C130.521 55.264 131.105 55.584 131.601 56.016C132.097 56.432 132.481 56.96 132.753 57.6C133.041 58.24 133.185 58.984 133.185 59.832C133.185 60.376 133.129 60.872 133.017 61.32C132.905 61.752 132.745 62.152 132.537 62.52C132.345 62.872 132.113 63.2 131.841 63.504C131.569 63.808 131.273 64.104 130.953 64.392L125.793 68.832H133.329V72H121.473V68.184ZM135.292 63.504C135.292 62.496 135.38 61.472 135.556 60.432C135.748 59.392 136.076 58.448 136.54 57.6C137.02 56.752 137.668 56.064 138.484 55.536C139.3 54.992 140.34 54.72 141.604 54.72C142.868 54.72 143.908 54.992 144.724 55.536C145.54 56.064 146.18 56.752 146.644 57.6C147.124 58.448 147.452 59.392 147.628 60.432C147.82 61.472 147.916 62.496 147.916 63.504C147.916 64.512 147.82 65.536 147.628 66.576C147.452 67.616 147.124 68.56 146.644 69.408C146.18 70.256 145.54 70.952 144.724 71.496C143.908 72.024 142.868 72.288 141.604 72.288C140.34 72.288 139.3 72.024 138.484 71.496C137.668 70.952 137.02 70.256 136.54 69.408C136.076 68.56 135.748 67.616 135.556 66.576C135.38 65.536 135.292 64.512 135.292 63.504ZM138.892 63.504C138.892 63.952 138.908 64.488 138.94 65.112C138.988 65.736 139.1 66.336 139.276 66.912C139.452 67.488 139.716 67.976 140.068 68.376C140.436 68.776 140.948 68.976 141.604 68.976C142.244 68.976 142.748 68.776 143.116 68.376C143.484 67.976 143.756 67.488 143.932 66.912C144.108 66.336 144.212 65.736 144.244 65.112C144.292 64.488 144.316 63.952 144.316 63.504C144.316 63.056 144.292 62.52 144.244 61.896C144.212 61.272 144.108 60.672 143.932 60.096C143.756 59.52 143.484 59.032 143.116 58.632C142.748 58.232 142.244 58.032 141.604 58.032C140.948 58.032 140.436 58.232 140.068 58.632C139.716 59.032 139.452 59.52 139.276 60.096C139.1 60.672 138.988 61.272 138.94 61.896C138.908 62.52 138.892 63.056 138.892 63.504Z" fill="#1A1818"/>
</svg>
