<svg width="228" height="215" viewBox="0 0 228 215" fill="none" xmlns="http://www.w3.org/2000/svg">
<path d="M145.783 58.309L145.781 58.3093C146.207 58.651 146.64 58.9969 147.081 59.3416C160.722 70.0693 181.72 82.5408 183.713 83.4204C184.029 83.5484 184.326 83.721 184.594 83.9328C184.686 83.9945 184.762 84.0767 184.816 84.1728C184.87 84.2689 184.902 84.3763 184.908 84.4866C184.904 84.5352 184.895 84.5831 184.88 84.6294C184.88 84.6312 184.879 84.6329 184.878 84.6343C184.86 84.6827 184.837 84.729 184.809 84.7725C184.793 84.7955 184.779 84.8209 184.759 84.8444C184.739 84.8678 184.719 84.8895 184.698 84.9131C184.677 84.9381 184.654 84.9614 184.629 84.9829C184.549 85.0592 184.463 85.1287 184.372 85.1907C184.338 85.2136 184.305 85.2351 184.271 85.2591L184.258 85.2679C184.19 85.3091 184.122 85.3525 184.048 85.3944C184.006 85.4183 183.964 85.4408 183.919 85.4639C183.809 85.5244 183.688 85.586 183.561 85.6485C183.31 85.7681 183.038 85.8852 182.75 86.0046C182.639 86.0508 182.529 86.0945 182.416 86.141C182.36 86.1641 182.303 86.185 182.247 86.2085C182.19 86.2319 182.131 86.2527 182.073 86.2764C181.908 86.3429 181.741 86.4079 181.574 86.4725C181.445 86.5242 181.318 86.5712 181.191 86.6221C180.386 86.9222 179.528 87.0544 178.67 87.0106C177.812 86.9668 176.972 86.7479 176.201 86.3673L122.229 68.6971C118.2 70.3851 114.189 72.0173 110.237 73.5815C109.965 73.6921 109.692 73.7999 109.42 73.9056C104.385 75.89 99.4435 77.7591 94.6772 79.4771C93.9723 79.7306 93.2725 79.9806 92.5775 80.2271C92.3301 80.3154 92.085 80.4013 91.8402 80.4893C91.351 80.6631 90.8631 80.8344 90.3764 81.0033C90.1136 81.096 89.8519 81.186 89.5915 81.2785C89.1278 81.4376 88.6652 81.5965 88.2038 81.7551C87.9449 81.8447 87.6833 81.9326 87.4245 82.0222C86.2543 82.421 85.0985 82.8085 83.9572 83.1849C83.9345 83.19 83.9125 83.1974 83.8913 83.2069C83.2221 83.4257 82.5591 83.6416 81.9022 83.8542C81.8725 83.8647 81.8429 83.8729 81.8132 83.8837C79.3272 84.6863 76.9266 85.4271 74.6115 86.106L74.5295 86.1299C75.8591 88.4377 77.1695 90.7735 78.0496 92.4965C80.5614 97.4036 75.537 95.685 75.537 95.685L57.488 90.1688C51.1377 91.1533 46.7706 90.9219 45.1963 89.1276C45.0306 88.9434 44.8943 88.7348 44.792 88.5091C44.7762 88.4746 44.7626 88.4398 44.7494 88.4078C44.733 88.3749 44.7186 88.3409 44.7064 88.3062C44.7064 88.3062 44.6979 88.293 44.6855 88.2686C44.6797 88.2599 44.674 88.2511 44.6679 88.2401C44.6576 88.2237 44.6484 88.2065 44.6404 88.1888C44.6225 88.1545 44.6008 88.1134 44.5786 88.0639C44.5662 88.0395 44.5508 88.0104 44.5375 87.9788C44.5277 87.9541 44.5153 87.9294 44.5051 87.9047C44.4982 87.8866 44.4893 87.8702 44.482 87.8485C44.4659 87.814 44.4521 87.7741 44.4353 87.7335C44.3899 87.6089 44.342 87.4656 44.2992 87.305C44.2008 86.9331 44.1434 86.5516 44.1279 86.1673C44.1246 86.1393 44.1235 86.111 44.1224 86.0805L11.9388 76.2402L11.9264 76.2369C8.72398 71.9918 16.5326 72.8002 16.5326 72.8002L49.6565 75.8581L42.6492 53.9189C42.6492 53.9189 41.8618 51.4453 44.4666 50.6682C47.0714 49.8911 48.9803 48.266 51.4889 51.703C53.3378 54.2376 62.1773 63.3019 66.6945 67.8897C72.2719 64.8884 79.1846 61.1709 86.7754 57.0915C86.7779 57.0912 86.7776 57.0891 86.7798 57.0888L0.458749 28.8232L0.456595 28.8235C0.456595 28.8235 0.501674 27.8277 2.07891 26.3785C2.87368 25.6697 3.74348 25.0498 4.67285 24.5299C5.43502 24.241 6.45912 24.0268 12.4965 24.7487C14.1009 24.9416 15.4224 25.1229 16.3145 25.2509L113.542 42.6989L113.545 42.6986C142.446 27.163 170.789 11.932 170.789 11.932C170.789 11.932 182.679 5.68861 194.936 6.26337C196.8 6.34478 198.652 6.60333 200.467 7.03555C203.076 7.65157 205.56 8.71214 207.809 10.1708C208.052 10.3289 208.294 10.4945 208.535 10.6675C209.616 11.4352 210.627 12.297 211.556 13.2429C211.726 13.4142 211.877 13.604 212.006 13.8086C212.032 13.8528 212.059 13.8992 212.086 13.9448C212.086 13.9451 212.086 13.9454 212.086 13.9457C212.086 13.946 212.086 13.9463 212.087 13.9465C212.087 13.9467 212.087 13.9469 212.087 13.947C212.088 13.9471 212.088 13.9471 212.088 13.9471C212.111 13.9939 212.136 14.0383 212.157 14.0846C212.202 14.1763 212.241 14.2713 212.273 14.3687C212.311 14.4734 212.342 14.5802 212.366 14.6888C212.375 14.7302 212.383 14.7741 212.39 14.818C212.399 14.8691 212.407 14.9202 212.413 14.9715C213.377 23.1006 181.799 41.6175 145.783 58.309Z" fill="#86D0D1"/>
<path d="M145.783 58.309C145.888 58.3938 145.996 58.4793 146.102 58.5647C146.424 58.8233 146.749 59.0819 147.081 59.3416C160.722 70.0693 181.72 82.5408 183.713 83.4204C184.029 83.5484 184.326 83.721 184.594 83.9328C184.735 84.0376 184.839 84.1837 184.893 84.3507C184.905 84.3949 184.911 84.4406 184.909 84.4864C184.908 84.5353 184.899 84.5835 184.881 84.6292C184.881 84.631 184.881 84.6327 184.88 84.6341C184.864 84.6834 184.841 84.73 184.811 84.7723C184.795 84.7954 184.78 84.8207 184.76 84.8442C184.741 84.8677 184.721 84.8894 184.7 84.9129C184.678 84.9379 184.655 84.9612 184.63 84.9827C184.55 85.059 184.465 85.1285 184.374 85.1905C184.34 85.2134 184.306 85.2349 184.272 85.2589L184.259 85.2678C184.191 85.309 184.124 85.3523 184.05 85.3942C184.008 85.4181 183.965 85.4406 183.921 85.4638C183.81 85.5267 183.687 85.5861 183.562 85.6483C183.312 85.7679 183.04 85.885 182.751 86.0044C182.641 86.0507 182.53 86.0944 182.417 86.1409C182.361 86.1639 182.305 86.1848 182.248 86.2083C182.192 86.2318 182.133 86.2525 182.074 86.2763C181.91 86.3427 181.742 86.4077 181.575 86.4723C181.447 86.524 181.32 86.5711 181.192 86.6219C180.387 86.922 179.529 87.0543 178.671 87.0104C177.813 86.9666 176.973 86.7477 176.203 86.3671L122.229 68.6971C118.2 70.3851 114.189 72.0173 110.237 73.5815C109.965 73.6921 109.692 73.7999 109.42 73.9056C104.385 75.89 99.4435 77.7591 94.6772 79.4771C93.9723 79.7306 93.2725 79.9806 92.5775 80.2271C92.3301 80.3154 92.085 80.4013 91.8402 80.4893C91.351 80.6631 90.8631 80.8344 90.3764 81.0033C90.1136 81.096 89.8519 81.186 89.5915 81.2785C89.1278 81.4376 88.6652 81.5965 88.2038 81.7551C87.9449 81.8447 87.6833 81.9326 87.4245 82.0222C86.2543 82.421 85.0985 82.8085 83.9572 83.1849C83.9345 83.19 83.9125 83.1974 83.8913 83.2069C83.2221 83.4257 82.5591 83.6416 81.9022 83.8542C81.8725 83.8647 81.8429 83.8729 81.8132 83.8837C79.3248 84.6845 76.9164 85.426 74.6047 86.1043C74.6072 86.104 74.6075 86.1065 74.6097 86.1062C74.6725 86.1352 74.7322 86.1627 74.7952 86.1935C74.7377 86.2098 74.6788 86.2288 74.6214 86.2451C74.6247 86.2516 74.6305 86.2604 74.6335 86.2673C75.9623 88.5678 77.2645 90.893 78.1419 92.6115C80.6537 97.5186 75.6289 95.8001 75.6289 95.8001L57.5798 90.2828C51.0972 91.2877 46.6833 91.0241 45.1941 89.1275C45.1735 89.1061 45.1549 89.083 45.1386 89.0583C45 88.8904 44.8828 88.7059 44.7898 88.509C44.774 88.4745 44.7604 88.4397 44.7472 88.4077C44.7314 88.3747 44.7179 88.3407 44.7067 88.3058C44.7067 88.3058 44.6978 88.2927 44.6833 88.2685C44.6775 88.2598 44.6718 88.251 44.6657 88.24C44.6358 88.1868 44.5899 88.0975 44.5353 87.9787C44.5255 87.954 44.5131 87.9293 44.5029 87.9047C44.496 87.8865 44.4871 87.8701 44.4798 87.8484C44.4637 87.8139 44.4499 87.774 44.4331 87.7334C44.3877 87.6088 44.3398 87.4655 44.297 87.3049C44.3174 87.2956 44.3374 87.2859 44.3553 87.2769C44.2723 86.9217 44.2246 86.5593 44.2128 86.1947L44.1248 86.1687L12.0172 76.3515C11.9891 76.3147 11.9611 76.278 11.9356 76.2406C8.95076 72.1201 16.6231 72.9147 16.6231 72.9147L48.9298 75.8969L49.7472 75.9726L49.7133 75.8674C51.9887 76.6307 55.3655 77.8469 59.9401 79.7061C70.5401 74.5894 84.1757 68.0637 99.0335 61.0995L86.7842 57.0894L86.7724 57.0908C86.7749 57.0905 86.7746 57.0883 86.7768 57.0881L0.456892 28.826L0.456595 28.8235L0.458749 28.8232C0.88599 27.9389 1.43099 27.1166 2.07891 26.3785C2.78027 25.5604 3.67068 24.9259 4.67285 24.5299C5.43502 24.241 6.45912 24.0268 12.4965 24.7487C14.1009 24.9416 15.4224 25.1229 16.3145 25.2509L113.542 42.6989L113.545 42.6986C119.168 43.2767 124.677 44.6775 129.894 46.8563C162.871 31.8938 195.879 17.8665 212.006 13.8104C212.033 13.8546 212.06 13.901 212.086 13.9466C212.086 13.9469 212.086 13.9472 212.086 13.9475C212.086 13.9478 212.087 13.9481 212.087 13.9483C212.087 13.9485 212.087 13.9487 212.088 13.9488C212.088 13.9489 212.088 13.9489 212.089 13.9489C212.111 13.9957 212.136 14.0401 212.157 14.0864C212.201 14.1787 212.24 14.2736 212.273 14.3705C212.311 14.4751 212.342 14.582 212.366 14.6905C212.376 14.732 212.383 14.7759 212.391 14.8198C212.399 14.8709 212.408 14.9219 212.414 14.9733C213.377 23.1006 181.799 41.6175 145.783 58.309Z" fill="#7D5794"/>
<path d="M105.127 36.4994C104.558 34.6622 103.511 33.0093 102.093 31.7102C100.674 30.4112 98.9362 29.5127 97.0561 29.107C95.1761 28.7013 93.2219 28.8029 91.3941 29.4015C89.5663 30 87.9305 31.0739 86.6546 32.513C86.6546 32.513 68.3403 49.265 72.6656 55.5784C76.9908 61.8917 99.6753 49.5358 99.6753 49.5358C100.485 49.0404 101.247 48.47 101.95 47.8322L101.942 47.8364C103.509 46.4545 104.643 44.6493 105.208 42.6381C105.773 40.6268 105.745 38.4952 105.127 36.4994Z" fill="#7D5794"/>
<path d="M103.779 40.7014C104.91 36.8061 102.151 32.5809 97.6156 31.2643C93.0805 29.9476 88.4873 32.0381 87.3563 35.9334C86.2254 39.8287 88.9851 44.0539 93.5202 45.3705C98.0553 46.6872 102.649 44.5967 103.779 40.7014Z" fill="#86D0D1"/>
<path d="M167.891 65.242C167.462 63.8591 166.674 62.615 165.607 61.6373C164.539 60.6595 163.231 59.9833 161.815 59.6779C160.4 59.3725 158.93 59.4489 157.554 59.8994C156.178 60.3498 154.947 61.1581 153.986 62.2412C153.986 62.2412 140.201 74.8505 143.457 79.6027C146.712 84.355 163.787 75.0545 163.787 75.0545C164.396 74.6815 164.969 74.2521 165.498 73.772L165.492 73.7753C166.671 72.7353 167.525 71.3766 167.951 69.8628C168.377 68.3489 168.356 66.7443 167.891 65.242Z" fill="#7D5794"/>
<path d="M167.143 67.486C167.847 65.0618 165.65 62.2932 162.236 61.3022C158.823 60.3111 155.485 61.4729 154.781 63.8971C154.077 66.3212 156.274 69.0898 159.688 70.0809C163.101 71.072 166.439 69.9102 167.143 67.486Z" fill="#86D0D1"/>
<path d="M208.534 10.6647L180.58 18.6119L177.875 13.3825L194.936 6.26165C196.8 6.34306 198.652 6.60161 200.467 7.03382C203.076 7.64985 205.56 8.71042 207.809 10.1691C208.052 10.3272 208.294 10.4924 208.534 10.6647Z" fill="#7D5794"/>
<path d="M152.507 158.229L152.505 158.228C152.922 157.866 153.346 157.499 153.778 157.133C167.15 145.744 187.893 132.299 189.873 131.331C190.188 131.189 190.482 131.003 190.744 130.778C190.834 130.712 190.908 130.626 190.959 130.526C191.01 130.427 191.038 130.317 191.04 130.205C191.034 130.156 191.023 130.108 191.006 130.062C191.006 130.06 191.005 130.059 191.004 130.057C190.984 130.009 190.959 129.963 190.929 129.92C190.912 129.898 190.896 129.872 190.875 129.849C190.854 129.827 190.833 129.805 190.811 129.782C190.788 129.758 190.764 129.735 190.738 129.715C190.654 129.641 190.565 129.574 190.47 129.515C190.435 129.493 190.4 129.472 190.365 129.449L190.351 129.441C190.281 129.402 190.211 129.361 190.135 129.321C190.091 129.299 190.047 129.278 190.001 129.256C189.887 129.199 189.763 129.142 189.631 129.084C189.373 128.973 189.094 128.865 188.797 128.756C188.684 128.713 188.57 128.673 188.454 128.631C188.396 128.61 188.338 128.591 188.28 128.569C188.222 128.548 188.162 128.529 188.101 128.507C187.933 128.447 187.761 128.388 187.589 128.329C187.457 128.282 187.327 128.239 187.196 128.193C186.37 127.921 185.497 127.821 184.631 127.9C183.765 127.978 182.924 128.233 182.16 128.648L128.274 148.655C124.133 147.107 120.011 145.615 115.953 144.189C115.673 144.088 115.392 143.99 115.114 143.894C109.942 142.086 104.871 140.391 99.9827 138.843C99.2599 138.614 98.5421 138.389 97.8295 138.167C97.5759 138.088 97.3246 138.01 97.0735 137.931C96.5719 137.775 96.0716 137.621 95.5728 137.469C95.3032 137.386 95.035 137.305 94.768 137.222C94.2927 137.079 93.8186 136.937 93.3457 136.795C93.0804 136.714 92.8123 136.636 92.547 136.555C91.3477 136.199 90.1634 135.852 88.9943 135.517C88.9712 135.513 88.9486 135.506 88.9268 135.497C88.2413 135.302 87.5622 135.11 86.8895 134.921C86.859 134.912 86.8288 134.905 86.7983 134.895C84.2523 134.182 81.7952 133.527 79.4269 132.932L79.343 132.911C80.5964 130.525 81.8292 128.111 82.6512 126.333C84.9973 121.271 79.9838 123.208 79.9838 123.208L61.9482 129.501C55.4868 128.757 51.0793 129.164 49.5581 131.041C49.3979 131.233 49.2682 131.45 49.1737 131.682C49.1591 131.718 49.1467 131.753 49.1346 131.786C49.1193 131.82 49.1061 131.855 49.0951 131.891C49.0951 131.891 49.0871 131.904 49.0755 131.929C49.07 131.939 49.0645 131.948 49.0589 131.959C49.0491 131.976 49.0404 131.994 49.033 132.012C49.0163 132.047 48.996 132.09 48.9755 132.141C48.9639 132.166 48.9495 132.196 48.9373 132.228C48.9284 132.254 48.9168 132.279 48.9074 132.305C48.9012 132.323 48.8929 132.34 48.8864 132.362C48.8714 132.398 48.859 132.439 48.8436 132.481C48.8027 132.608 48.7599 132.755 48.723 132.919C48.6382 133.299 48.5952 133.687 48.5948 134.077C48.5925 134.105 48.5925 134.134 48.5926 134.165L16.433 145.39L16.4206 145.394C13.3498 149.814 21.2151 148.688 21.2151 148.688L54.594 144.284L48.3754 166.75C48.3754 166.75 47.6769 169.283 50.3421 169.966C53.0072 170.648 55.0021 172.216 57.4032 168.641C59.1728 166.005 67.754 156.488 72.1409 151.669C77.9004 154.484 85.0387 157.97 92.8771 161.795C92.8796 161.795 92.8795 161.797 92.8817 161.798L6.69901 193.8L6.69682 193.8C6.69682 193.8 6.78182 194.805 8.43431 196.208C9.26615 196.894 10.1704 197.486 11.1309 197.975C11.9131 198.237 12.9573 198.413 19.0347 197.444C20.6496 197.186 21.979 196.95 22.8761 196.785L120.517 175.292L120.52 175.292C150.364 189.86 179.632 204.143 179.632 204.143C179.632 204.143 191.903 209.986 204.278 208.92C206.159 208.764 208.022 208.429 209.841 207.92C212.455 207.194 214.925 206.023 217.142 204.459C217.382 204.289 217.62 204.112 217.856 203.928C218.919 203.109 219.907 202.197 220.81 201.204C220.975 201.024 221.121 200.826 221.243 200.614C221.267 200.568 221.293 200.52 221.318 200.473C221.318 200.472 221.318 200.472 221.318 200.472C221.318 200.471 221.318 200.471 221.319 200.471C221.319 200.471 221.319 200.471 221.319 200.47C221.32 200.47 221.32 200.47 221.32 200.47C221.341 200.422 221.364 200.376 221.384 200.328C221.427 200.234 221.462 200.136 221.49 200.037C221.524 199.929 221.551 199.82 221.571 199.709C221.58 199.667 221.585 199.622 221.591 199.578C221.598 199.526 221.604 199.474 221.608 199.421C222.261 191.162 189.592 173.684 152.507 158.229Z" fill="#DADADA"/>
<path d="M152.507 158.229C152.61 158.139 152.715 158.048 152.819 157.957C153.135 157.683 153.453 157.409 153.778 157.133C167.15 145.744 187.893 132.299 189.873 131.331C190.188 131.189 190.482 131.003 190.744 130.778C190.882 130.666 190.982 130.514 191.03 130.343C191.041 130.298 191.044 130.252 191.041 130.206C191.038 130.156 191.026 130.108 191.007 130.062C191.007 130.06 191.006 130.059 191.005 130.057C190.987 130.008 190.962 129.962 190.93 129.92C190.913 129.898 190.897 129.873 190.876 129.85C190.855 129.827 190.834 129.806 190.812 129.782C190.79 129.758 190.765 129.735 190.739 129.715C190.656 129.641 190.566 129.574 190.471 129.515C190.436 129.493 190.401 129.472 190.366 129.449L190.353 129.441C190.282 129.402 190.212 129.361 190.136 129.321C190.092 129.299 190.049 129.278 190.003 129.256C189.889 129.197 189.762 129.142 189.633 129.084C189.375 128.973 189.095 128.865 188.799 128.756C188.685 128.713 188.572 128.673 188.456 128.631C188.398 128.61 188.34 128.591 188.282 128.569C188.223 128.548 188.163 128.529 188.103 128.508C187.934 128.447 187.762 128.388 187.591 128.329C187.458 128.282 187.329 128.239 187.197 128.193C186.371 127.921 185.498 127.821 184.632 127.9C183.766 127.978 182.925 128.233 182.161 128.648L128.274 148.655C124.133 147.107 120.011 145.615 115.953 144.189C115.673 144.088 115.392 143.99 115.114 143.894C109.942 142.086 104.871 140.391 99.9827 138.843C99.2599 138.614 98.5421 138.389 97.8295 138.167C97.5759 138.088 97.3246 138.01 97.0735 137.931C96.5719 137.775 96.0716 137.621 95.5728 137.469C95.3032 137.386 95.035 137.305 94.768 137.222C94.2927 137.079 93.8186 136.937 93.3457 136.795C93.0804 136.714 92.8123 136.636 92.547 136.555C91.3477 136.199 90.1634 135.852 88.9943 135.517C88.9712 135.513 88.9486 135.506 88.9268 135.497C88.2413 135.302 87.5622 135.11 86.8895 134.921C86.859 134.912 86.8288 134.905 86.7983 134.895C84.25 134.183 81.7849 133.529 79.4201 132.934C79.4226 132.935 79.4229 132.932 79.425 132.932C79.4874 132.9 79.5467 132.87 79.6092 132.837C79.5505 132.822 79.4901 132.806 79.4314 132.791C79.4345 132.785 79.44 132.776 79.4428 132.768C80.6956 130.389 81.9206 127.986 82.74 126.213C85.0861 121.151 80.0722 123.088 80.0722 123.088L62.0365 129.382C55.4405 128.622 50.987 129.064 49.5559 131.041C49.536 131.063 49.5181 131.087 49.5025 131.113C49.369 131.288 49.2578 131.479 49.1714 131.682C49.1569 131.718 49.1445 131.754 49.1324 131.786C49.1177 131.82 49.1054 131.855 49.0955 131.891C49.0955 131.891 49.087 131.905 49.0733 131.93C49.0678 131.939 49.0623 131.948 49.0567 131.959C49.0284 132.014 48.9855 132.106 48.9351 132.229C48.9261 132.254 48.9146 132.279 48.9052 132.305C48.899 132.323 48.8907 132.34 48.8841 132.363C48.8692 132.398 48.8568 132.439 48.8414 132.481C48.8004 132.609 48.7576 132.755 48.7208 132.92C48.7418 132.928 48.7624 132.937 48.7808 132.946C48.711 133.308 48.677 133.676 48.6795 134.046L48.5916 134.075L16.5078 145.275C16.4809 145.313 16.4541 145.351 16.4297 145.39C13.5741 149.676 21.302 148.568 21.302 148.568L53.8576 144.274L54.6813 144.165L54.6511 144.273C56.9222 143.411 60.2892 142.047 64.8422 139.986C75.765 144.741 89.8137 150.801 105.116 157.256L92.8861 161.797L92.8741 161.796C92.8766 161.796 92.8765 161.798 92.8786 161.798L6.69702 193.797L6.69682 193.8L6.69901 193.8C7.1661 194.677 7.74983 195.488 8.43431 196.208C9.17601 197.008 10.1016 197.615 11.1309 197.975C11.9131 198.237 12.9573 198.413 19.0347 197.444C20.6496 197.186 21.979 196.95 22.8761 196.785L120.517 175.292L120.52 175.292C126.185 174.485 131.7 172.85 136.89 170.44C170.834 184.267 204.772 197.148 221.243 200.612C221.268 200.566 221.293 200.518 221.318 200.471C221.318 200.471 221.318 200.47 221.318 200.47C221.318 200.47 221.318 200.469 221.319 200.469C221.319 200.469 221.319 200.469 221.32 200.469C221.32 200.468 221.32 200.468 221.32 200.468C221.341 200.42 221.365 200.374 221.384 200.327C221.425 200.232 221.461 200.134 221.491 200.035C221.524 199.927 221.551 199.818 221.572 199.707C221.58 199.665 221.585 199.62 221.592 199.576C221.598 199.524 221.604 199.472 221.609 199.42C222.261 191.162 189.592 173.684 152.507 158.229Z" fill="#DADADA"/>
<path d="M112.252 181.895C111.75 183.775 110.756 185.488 109.373 186.858C107.99 188.228 106.267 189.206 104.382 189.69C102.496 190.175 100.516 190.15 98.6439 189.617C96.7716 189.084 95.0748 188.062 93.7274 186.657C93.7274 186.657 74.5423 170.44 78.6668 163.884C82.7913 157.327 106.222 168.926 106.222 168.926C107.061 169.395 107.854 169.942 108.59 170.559L108.582 170.555C110.221 171.891 111.44 173.671 112.091 175.683C112.742 177.695 112.798 179.852 112.252 181.895Z" fill="#DADADA"/>
<path d="M110.722 177.698C112.02 181.593 109.397 185.975 104.862 187.486C100.328 188.997 95.5995 187.065 94.3016 183.17C93.0037 179.275 95.6275 174.893 100.162 173.382C104.696 171.871 109.425 173.803 110.722 177.698Z" fill="#DADADA"/>
<path d="M174.591 150.341C174.212 151.757 173.464 153.046 172.423 154.077C171.382 155.109 170.086 155.844 168.667 156.209C167.248 156.574 165.757 156.555 164.348 156.154C162.939 155.753 161.661 154.984 160.647 153.926C160.647 153.926 146.206 141.72 149.311 136.785C152.415 131.849 170.052 140.58 170.052 140.58C170.683 140.933 171.279 141.345 171.833 141.809L171.827 141.806C173.061 142.811 173.978 144.152 174.469 145.666C174.959 147.18 175.001 148.804 174.591 150.341Z" fill="#DADADA"/>
<path d="M173.746 148.102C174.554 150.526 172.441 153.413 169.028 154.55C165.615 155.688 162.193 154.645 161.386 152.221C160.578 149.797 162.69 146.91 166.103 145.773C169.516 144.635 172.938 145.678 173.746 148.102Z" fill="#DADADA"/>
<path d="M217.856 203.93L189.269 196.999L186.741 202.395L204.277 208.922C206.159 208.765 208.022 208.431 209.84 207.922C212.455 207.196 214.925 206.025 217.142 204.46C217.381 204.291 217.619 204.114 217.856 203.93Z" fill="#DADADA"/>
</svg>
