<svg width="174" height="165" viewBox="0 0 174 165" fill="none" xmlns="http://www.w3.org/2000/svg">
<path d="M111.495 44.5948L111.494 44.595C111.819 44.8564 112.151 45.121 112.488 45.3846C122.921 53.5891 138.98 63.1274 140.504 63.8001C140.746 63.898 140.973 64.03 141.178 64.192C141.248 64.2392 141.306 64.302 141.348 64.3755C141.389 64.449 141.413 64.5312 141.418 64.6155C141.415 64.6527 141.408 64.6893 141.396 64.7247C141.396 64.7261 141.396 64.7274 141.395 64.7285C141.381 64.7655 141.364 64.8009 141.343 64.8342C141.33 64.8518 141.319 64.8712 141.304 64.8892C141.289 64.9071 141.274 64.9237 141.258 64.9417C141.241 64.9608 141.223 64.9787 141.204 64.9951C141.143 65.0534 141.078 65.1066 141.008 65.154C140.982 65.1715 140.956 65.188 140.931 65.2063L140.921 65.2131C140.869 65.2446 140.817 65.2778 140.761 65.3098C140.728 65.3281 140.696 65.3453 140.662 65.363C140.577 65.4092 140.485 65.4564 140.388 65.5041C140.196 65.5956 139.988 65.6852 139.767 65.7765C139.683 65.8118 139.598 65.8453 139.512 65.8809C139.469 65.8985 139.426 65.9145 139.383 65.9324C139.339 65.9504 139.294 65.9663 139.25 65.9844C139.124 66.0352 138.996 66.0849 138.868 66.1344C138.77 66.1739 138.673 66.2099 138.575 66.2487C137.959 66.4783 137.303 66.5794 136.647 66.5459C135.991 66.5124 135.348 66.345 134.759 66.0539L93.481 52.5396C90.3997 53.8307 87.3318 55.079 84.3098 56.2753C84.1012 56.3599 83.8923 56.4423 83.685 56.5231C79.8335 58.0408 76.0546 59.4703 72.4093 60.7842C71.8702 60.9781 71.335 61.1693 70.8035 61.3578C70.6143 61.4254 70.4268 61.4911 70.2396 61.5584C69.8654 61.6913 69.4923 61.8223 69.1201 61.9515C68.919 62.0224 68.7189 62.0913 68.5198 62.1619C68.1651 62.2836 67.8113 62.4051 67.4584 62.5264C67.2605 62.595 67.0604 62.6622 66.8624 62.7308C65.9674 63.0357 65.0835 63.3321 64.2106 63.62C64.1933 63.6239 64.1764 63.6295 64.1603 63.6368C63.6484 63.8042 63.1413 63.9693 62.639 64.1319C62.6162 64.1399 62.5936 64.1462 62.5709 64.1544C60.6696 64.7683 58.8337 65.3348 57.063 65.8541L57.0003 65.8724C58.0172 67.6373 59.0194 69.4238 59.6925 70.7415C61.6135 74.4945 57.7708 73.1801 57.7708 73.1801L43.9669 68.9613C39.1102 69.7142 35.7703 69.5373 34.5662 68.165C34.4395 68.0241 34.3352 67.8645 34.257 67.692C34.2449 67.6655 34.2345 67.6389 34.2244 67.6145C34.2119 67.5893 34.2009 67.5633 34.1915 67.5368C34.1915 67.5368 34.185 67.5267 34.1756 67.508C34.1712 67.5013 34.1667 67.4946 34.1621 67.4862C34.1542 67.4736 34.1472 67.4605 34.141 67.447C34.1273 67.4207 34.1108 67.3893 34.0938 67.3515C34.0843 67.3328 34.0725 67.3105 34.0624 67.2864C34.0549 67.2675 34.0454 67.2486 34.0376 67.2297C34.0323 67.2159 34.0255 67.2033 34.0199 67.1867C34.0076 67.1603 33.997 67.1298 33.9842 67.0988C33.9495 67.0035 33.9128 66.8939 33.8802 66.771C33.8049 66.4866 33.761 66.1949 33.7491 65.9009C33.7466 65.8795 33.7457 65.8579 33.7449 65.8346L9.13081 58.3087L9.12133 58.3062C6.67212 55.0595 12.6442 55.6777 12.6442 55.6777L37.9774 58.0164L32.6182 41.2373C32.6182 41.2373 32.016 39.3455 34.0081 38.7511C36.0003 38.1568 37.4602 36.914 39.3788 39.5426C40.7929 41.481 47.5533 48.4134 51.0081 51.9221C55.2737 49.6267 60.5605 46.7836 66.366 43.6637C66.3679 43.6635 66.3677 43.6618 66.3694 43.6616L0.350853 22.0441L0.349205 22.0443C0.349205 22.0443 0.383681 21.2826 1.58996 20.1743C2.19779 19.6322 2.86302 19.1581 3.57381 18.7605C4.15672 18.5396 4.93995 18.3757 9.55733 18.9279C10.7844 19.0754 11.7951 19.214 12.4773 19.3119L86.8372 32.6562L86.8391 32.656C108.943 20.7743 130.62 9.12559 130.62 9.12559C130.62 9.12559 139.713 4.35066 149.088 4.79023C150.513 4.85249 151.93 5.05024 153.318 5.38079C155.313 5.85193 157.213 6.66305 158.933 7.77864C159.119 7.89957 159.304 8.02618 159.488 8.15849C160.315 8.74563 161.088 9.40477 161.798 10.1282C161.929 10.2592 162.044 10.4043 162.143 10.5609C162.163 10.5947 162.183 10.6301 162.204 10.665C162.204 10.6653 162.204 10.6655 162.204 10.6657C162.204 10.6659 162.204 10.6662 162.204 10.6663C162.204 10.6665 162.205 10.6666 162.205 10.6667C162.205 10.6668 162.205 10.6668 162.206 10.6667C162.223 10.7026 162.242 10.7365 162.258 10.7719C162.293 10.8421 162.323 10.9147 162.347 10.9892C162.376 11.0692 162.399 11.151 162.418 11.234C162.425 11.2657 162.431 11.2993 162.437 11.3328C162.443 11.3719 162.45 11.411 162.454 11.4502C163.191 17.6674 139.04 31.8291 111.495 44.5948Z" fill="#C4C4C4"/>
<path d="M111.495 44.5948C111.576 44.6597 111.658 44.7251 111.739 44.7904C111.986 44.9882 112.234 45.186 112.488 45.3846C122.921 53.5891 138.98 63.1274 140.504 63.8001C140.746 63.898 140.973 64.03 141.178 64.192C141.286 64.2721 141.365 64.3839 141.407 64.5116C141.416 64.5454 141.42 64.5804 141.419 64.6154C141.418 64.6528 141.411 64.6897 141.398 64.7246C141.398 64.726 141.397 64.7273 141.396 64.7284C141.384 64.766 141.366 64.8017 141.344 64.834C141.331 64.8517 141.32 64.8711 141.305 64.889C141.29 64.907 141.275 64.9236 141.259 64.9416C141.242 64.9607 141.224 64.9785 141.205 64.995C141.145 65.0533 141.079 65.1065 141.009 65.1539C140.983 65.1714 140.958 65.1878 140.932 65.2062L140.922 65.213C140.87 65.2445 140.818 65.2776 140.762 65.3097C140.729 65.328 140.697 65.3452 140.663 65.3629C140.579 65.411 140.484 65.4564 140.389 65.504C140.197 65.5955 139.989 65.685 139.768 65.7764C139.684 65.8117 139.6 65.8452 139.513 65.8807C139.47 65.8984 139.427 65.9143 139.384 65.9323C139.34 65.9502 139.296 65.9661 139.251 65.9843C139.125 66.0351 138.997 66.0848 138.869 66.1342C138.771 66.1737 138.674 66.2097 138.576 66.2486C137.96 66.4781 137.304 66.5793 136.648 66.5458C135.992 66.5123 135.349 66.3448 134.76 66.0538L93.481 52.5396C90.3997 53.8307 87.3318 55.079 84.3098 56.2753C84.1012 56.3599 83.8923 56.4423 83.685 56.5231C79.8335 58.0408 76.0546 59.4703 72.4093 60.7842C71.8702 60.9781 71.335 61.1693 70.8035 61.3578C70.6143 61.4254 70.4268 61.4911 70.2396 61.5584C69.8654 61.6913 69.4923 61.8223 69.1201 61.9515C68.919 62.0224 68.7189 62.0913 68.5198 62.1619C68.1651 62.2836 67.8113 62.4051 67.4584 62.5264C67.2605 62.595 67.0604 62.6622 66.8624 62.7308C65.9674 63.0357 65.0835 63.3321 64.2106 63.62C64.1933 63.6239 64.1764 63.6295 64.1603 63.6368C63.6484 63.8042 63.1413 63.9693 62.639 64.1319C62.6162 64.1399 62.5936 64.1462 62.5709 64.1544C60.6678 64.7669 58.8258 65.334 57.0578 65.8527C57.0598 65.8525 57.06 65.8544 57.0616 65.8542C57.1097 65.8764 57.1553 65.8974 57.2035 65.921C57.1596 65.9334 57.1145 65.9479 57.0706 65.9604C57.0731 65.9654 57.0776 65.9721 57.0799 65.9774C58.0961 67.7368 59.0921 69.5151 59.7631 70.8295C61.6841 74.5825 57.8412 73.2681 57.8412 73.2681L44.0372 69.0485C39.0792 69.817 35.7035 69.6154 34.5645 68.1649C34.5488 68.1486 34.5346 68.1309 34.5221 68.112C34.4161 67.9835 34.3265 67.8424 34.2553 67.6919C34.2433 67.6654 34.2329 67.6388 34.2227 67.6144C34.2107 67.5892 34.2003 67.5631 34.1918 67.5365C34.1918 67.5365 34.185 67.5264 34.1739 67.508C34.1695 67.5012 34.1651 67.4945 34.1604 67.4862C34.1375 67.4454 34.1024 67.3772 34.0607 67.2863C34.0532 67.2674 34.0437 67.2485 34.0359 67.2297C34.0306 67.2158 34.0239 67.2032 34.0183 67.1866C34.0059 67.1602 33.9954 67.1297 33.9825 67.0987C33.9478 67.0034 33.9111 66.8938 33.8785 66.771C33.8941 66.7638 33.9093 66.7564 33.923 66.7495C33.8596 66.4779 33.8231 66.2007 33.814 65.9219L33.7468 65.902L9.19075 58.3938C9.16932 58.3657 9.14789 58.3376 9.12834 58.309C6.84556 55.1576 12.7134 55.7653 12.7134 55.7653L37.4216 58.0461L38.0468 58.104L38.0208 58.0235C39.7611 58.6073 42.3437 59.5374 45.8423 60.9594C53.9492 57.0461 64.3778 52.0552 75.7411 46.729L66.3728 43.6621L66.3637 43.6631C66.3656 43.6629 66.3654 43.6613 66.3671 43.6611L0.349432 22.0462L0.349205 22.0443L0.350853 22.0441C0.677607 21.3678 1.09443 20.7388 1.58996 20.1743C2.12636 19.5487 2.80734 19.0633 3.57381 18.7605C4.15672 18.5396 4.93995 18.3757 9.55733 18.9279C10.7844 19.0754 11.7951 19.214 12.4773 19.3119L86.8372 32.6562L86.8391 32.656C91.1402 33.0981 95.3531 34.1695 99.3429 35.8358C124.564 24.3925 149.809 13.6643 162.143 10.5622C162.163 10.596 162.184 10.6315 162.204 10.6664C162.204 10.6666 162.204 10.6669 162.204 10.6671C162.204 10.6673 162.204 10.6675 162.204 10.6677C162.205 10.6679 162.205 10.668 162.205 10.6681C162.205 10.6681 162.206 10.6681 162.206 10.6681C162.223 10.704 162.242 10.7379 162.258 10.7733C162.292 10.8439 162.322 10.9165 162.347 10.9906C162.376 11.0706 162.399 11.1524 162.418 11.2354C162.425 11.2671 162.431 11.3007 162.437 11.3342C162.443 11.3733 162.45 11.4123 162.454 11.4516C163.191 17.6674 139.04 31.8291 111.495 44.5948Z" fill="black"/>
<path d="M80.4017 27.9149C79.9665 26.5097 79.1655 25.2456 78.0808 24.2521C76.996 23.2586 75.6666 22.5714 74.2287 22.2612C72.7909 21.9509 71.2963 22.0286 69.8984 22.4863C68.5005 22.9441 67.2494 23.7654 66.2736 24.8661C66.2736 24.8661 52.2668 37.678 55.5748 42.5065C58.8827 47.3349 76.2319 37.8851 76.2319 37.8851C76.8512 37.5062 77.4335 37.07 77.9713 36.5822L77.9652 36.5854C79.1635 35.5285 80.031 34.1479 80.4632 32.6097C80.8954 31.0715 80.8741 29.4412 80.4017 27.9149Z" fill="black"/>
<path d="M79.3707 31.1286C80.2357 28.1494 78.1251 24.918 74.6566 23.911C71.1882 22.9041 67.6753 24.5029 66.8103 27.482C65.9454 30.4612 68.056 33.6926 71.5245 34.6996C74.9929 35.7065 78.5058 34.1078 79.3707 31.1286Z" fill="#C4C4C4"/>
<path d="M128.403 49.8974C128.075 48.8397 127.472 47.8883 126.656 47.1405C125.839 46.3927 124.839 45.8755 123.756 45.6419C122.674 45.4084 121.549 45.4668 120.497 45.8113C119.445 46.1558 118.503 46.774 117.768 47.6024C117.768 47.6024 107.226 57.2459 109.715 60.8805C112.205 64.515 125.264 57.402 125.264 57.402C125.73 57.1167 126.168 56.7883 126.573 56.4211L126.568 56.4236C127.47 55.6283 128.123 54.5892 128.449 53.4313C128.774 52.2735 128.758 51.0463 128.403 49.8974Z" fill="black"/>
<path d="M127.831 51.6135C128.37 49.7595 126.69 47.6421 124.079 46.8841C121.468 46.1262 118.915 47.0147 118.377 48.8687C117.839 50.7227 119.519 52.8402 122.13 53.5981C124.74 54.3561 127.293 53.4676 127.831 51.6135Z" fill="#C4C4C4"/>
<path d="M159.487 8.15653L138.107 14.2346L136.039 10.2351L149.087 4.7891C150.513 4.85136 151.929 5.04911 153.317 5.37966C155.312 5.8508 157.212 6.66192 158.932 7.77751C159.118 7.89844 159.303 8.02478 159.487 8.15653Z" fill="black"/>
<path d="M116.638 121.014L116.636 121.013C116.955 120.736 117.28 120.455 117.61 120.176C127.837 111.465 143.701 101.183 145.216 100.442C145.457 100.334 145.681 100.191 145.882 100.019C145.951 99.9687 146.007 99.9029 146.046 99.8269C146.085 99.7509 146.107 99.6669 146.108 99.5814C146.103 99.544 146.095 99.5072 146.082 99.4718C146.082 99.4704 146.081 99.4691 146.08 99.468C146.065 99.4312 146.046 99.3961 146.023 99.3632C146.01 99.3459 145.998 99.3267 145.982 99.3092C145.966 99.2916 145.95 99.2755 145.933 99.2578C145.915 99.2392 145.897 99.2218 145.877 99.206C145.813 99.1494 145.744 99.0982 145.672 99.053C145.645 99.0363 145.619 99.0207 145.592 99.0032L145.581 98.9967C145.528 98.9669 145.474 98.9354 145.416 98.9053C145.382 98.888 145.349 98.8719 145.314 98.8554C145.226 98.8119 145.131 98.7679 145.031 98.7235C144.833 98.6385 144.619 98.5562 144.393 98.4725C144.306 98.4401 144.219 98.4097 144.13 98.3771C144.086 98.361 144.042 98.3465 143.997 98.3301C143.953 98.3137 143.907 98.2994 143.861 98.2828C143.732 98.2364 143.6 98.1911 143.469 98.1462C143.368 98.1102 143.268 98.0776 143.168 98.0421C142.536 97.8344 141.869 97.758 141.206 97.8179C140.544 97.8778 139.901 98.0725 139.316 98.3902L98.1045 113.691C94.9372 112.508 91.785 111.367 88.6813 110.276C88.467 110.199 88.2525 110.124 88.0396 110.05C84.0844 108.668 80.206 107.372 76.4673 106.187C75.9144 106.012 75.3655 105.84 74.8205 105.67C74.6265 105.61 74.4343 105.551 74.2423 105.49C73.8586 105.37 73.476 105.253 73.0945 105.137C72.8884 105.073 72.6832 105.011 72.4791 104.948C72.1156 104.839 71.7529 104.73 71.3913 104.621C71.1883 104.559 70.9833 104.499 70.7804 104.438C69.8632 104.165 68.9575 103.9 68.0633 103.644C68.0456 103.64 68.0283 103.635 68.0117 103.629C67.4874 103.48 66.9681 103.333 66.4535 103.188C66.4302 103.181 66.4071 103.175 66.3838 103.168C64.4366 102.622 62.5574 102.122 60.7461 101.667L60.682 101.651C61.6406 99.8257 62.5835 97.9793 63.2121 96.62C65.0064 92.7484 61.1721 94.2297 61.1721 94.2297L47.3784 99.0427C42.4367 98.4734 39.0658 98.7845 37.9024 100.22C37.7799 100.368 37.6807 100.533 37.6084 100.711C37.5973 100.738 37.5878 100.765 37.5785 100.79C37.5668 100.816 37.5568 100.843 37.5483 100.87C37.5483 100.87 37.5422 100.881 37.5334 100.9C37.5292 100.907 37.525 100.914 37.5206 100.923C37.5131 100.936 37.5065 100.949 37.5008 100.963C37.488 100.99 37.4726 101.023 37.4568 101.062C37.448 101.081 37.4369 101.104 37.4277 101.129C37.4208 101.148 37.412 101.167 37.4048 101.187C37.4 101.201 37.3937 101.214 37.3887 101.231C37.3773 101.258 37.3678 101.289 37.356 101.321C37.3247 101.419 37.2919 101.531 37.2638 101.657C37.1989 101.948 37.166 102.244 37.1657 102.542C37.164 102.564 37.1639 102.586 37.164 102.609L12.5683 111.195L12.5588 111.198C10.2102 114.578 16.2257 113.717 16.2257 113.717L41.7539 110.349L36.9979 127.531C36.9979 127.531 36.4637 129.468 38.502 129.99C40.5403 130.512 42.066 131.711 43.9024 128.977C45.2558 126.961 51.8187 119.682 55.1738 115.997C59.5787 118.149 65.038 120.816 71.0329 123.741C71.0348 123.741 71.0347 123.743 71.0364 123.743L5.12372 148.219L5.12204 148.219C5.12204 148.219 5.18705 148.987 6.45088 150.061C7.08707 150.585 7.77862 151.038 8.51321 151.412C9.11148 151.612 9.91009 151.747 14.558 151.006C15.7932 150.808 16.8099 150.628 17.496 150.502L92.1721 134.064L92.1741 134.064C114.999 145.206 137.383 156.129 137.383 156.129C137.383 156.129 146.768 160.598 156.232 159.782C157.671 159.663 159.096 159.407 160.487 159.018C162.486 158.462 164.375 157.567 166.071 156.371C166.254 156.241 166.436 156.105 166.617 155.964C167.43 155.338 168.186 154.641 168.876 153.881C169.003 153.743 169.114 153.592 169.207 153.43C169.226 153.395 169.246 153.358 169.265 153.322C169.265 153.322 169.265 153.321 169.265 153.321C169.265 153.321 169.265 153.321 169.265 153.321C169.265 153.32 169.266 153.32 169.266 153.32C169.266 153.32 169.266 153.32 169.266 153.32C169.282 153.283 169.3 153.248 169.315 153.212C169.348 153.139 169.375 153.065 169.397 152.988C169.422 152.906 169.443 152.823 169.459 152.738C169.465 152.706 169.469 152.671 169.474 152.637C169.479 152.598 169.484 152.558 169.487 152.518C169.986 146.201 145.001 132.834 116.638 121.014Z" fill="#DADADA"/>
<path d="M116.638 121.014C116.717 120.945 116.797 120.875 116.877 120.806C117.118 120.596 117.362 120.386 117.61 120.176C127.837 111.465 143.701 101.183 145.216 100.442C145.457 100.334 145.681 100.191 145.882 100.019C145.988 99.9339 146.064 99.8178 146.1 99.687C146.109 99.6524 146.111 99.6168 146.109 99.5815C146.106 99.5437 146.098 99.5067 146.083 99.4719C146.083 99.4705 146.082 99.4692 146.082 99.4681C146.068 99.4305 146.048 99.3952 146.024 99.3633C146.011 99.346 145.999 99.3268 145.983 99.3092C145.967 99.2917 145.951 99.2755 145.934 99.2579C145.917 99.2393 145.898 99.2219 145.878 99.206C145.814 99.1495 145.746 99.0983 145.673 99.0531C145.646 99.0364 145.62 99.0208 145.593 99.0032L145.583 98.9968C145.529 98.967 145.475 98.9355 145.417 98.9053C145.383 98.8881 145.35 98.872 145.315 98.8554C145.227 98.8101 145.131 98.7679 145.032 98.7236C144.834 98.6386 144.621 98.5563 144.394 98.4726C144.307 98.4402 144.22 98.4098 144.131 98.3772C144.087 98.3611 144.043 98.3466 143.998 98.3302C143.954 98.3137 143.908 98.2994 143.862 98.2829C143.733 98.2364 143.601 98.1912 143.47 98.1463C143.369 98.1102 143.27 98.0777 143.169 98.0422C142.537 97.8344 141.87 97.7581 141.207 97.818C140.545 97.8779 139.902 98.0726 139.318 98.3903L98.1045 113.691C94.9372 112.508 91.785 111.367 88.6813 110.276C88.467 110.199 88.2525 110.124 88.0396 110.05C84.0844 108.668 80.206 107.372 76.4673 106.187C75.9144 106.012 75.3655 105.84 74.8205 105.67C74.6265 105.61 74.4343 105.551 74.2423 105.49C73.8586 105.37 73.476 105.253 73.0945 105.137C72.8884 105.073 72.6832 105.011 72.4791 104.948C72.1156 104.839 71.7529 104.73 71.3913 104.621C71.1883 104.559 70.9833 104.499 70.7804 104.438C69.8632 104.165 68.9575 103.9 68.0633 103.644C68.0456 103.64 68.0283 103.635 68.0117 103.629C67.4874 103.48 66.9681 103.333 66.4535 103.188C66.4302 103.181 66.4071 103.175 66.3838 103.168C64.4349 102.624 62.5496 102.123 60.7409 101.669C60.7429 101.669 60.743 101.667 60.7447 101.667C60.7924 101.643 60.8378 101.619 60.8856 101.594C60.8407 101.583 60.7945 101.57 60.7496 101.559C60.752 101.554 60.7562 101.547 60.7583 101.542C61.7165 99.7219 62.6533 97.884 63.28 96.5282C65.0743 92.6566 61.2397 94.1379 61.2397 94.1379L47.446 98.9517C42.4013 98.3707 38.9952 98.7082 37.9007 100.22C37.8855 100.237 37.8718 100.256 37.8599 100.275C37.7578 100.41 37.6727 100.556 37.6067 100.711C37.5956 100.738 37.5861 100.765 37.5768 100.79C37.5656 100.817 37.5562 100.843 37.5486 100.871C37.5486 100.871 37.5422 100.881 37.5317 100.9C37.5275 100.907 37.5233 100.914 37.5189 100.923C37.4973 100.965 37.4645 101.035 37.426 101.129C37.4191 101.148 37.4103 101.168 37.4031 101.187C37.3983 101.201 37.392 101.214 37.387 101.231C37.3756 101.258 37.3661 101.29 37.3543 101.322C37.323 101.419 37.2902 101.532 37.2621 101.657C37.2781 101.664 37.2938 101.671 37.3079 101.677C37.2545 101.954 37.2286 102.236 37.2305 102.518L37.1632 102.541L12.6255 111.106C12.605 111.136 12.5844 111.165 12.5658 111.195C10.3818 114.472 16.2921 113.625 16.2921 113.625L41.1907 110.341L41.8207 110.258L41.7976 110.34C43.5345 109.681 46.1096 108.638 49.5918 107.061C57.9455 110.698 68.69 115.333 80.3931 120.27L71.0398 123.743L71.0306 123.742C71.0325 123.742 71.0324 123.744 71.0341 123.744L5.1222 148.217L5.12204 148.219L5.12372 148.219C5.48095 148.89 5.92739 149.509 6.45088 150.061C7.01813 150.672 7.72605 151.136 8.51321 151.412C9.11148 151.612 9.91009 151.747 14.558 151.006C15.7932 150.808 16.8099 150.628 17.496 150.502L92.1721 134.064L92.1741 134.064C96.5065 133.446 100.725 132.196 104.694 130.353C130.654 140.928 156.61 150.779 169.207 153.428C169.226 153.393 169.246 153.357 169.265 153.321C169.265 153.32 169.265 153.32 169.265 153.32C169.265 153.32 169.265 153.319 169.265 153.319C169.265 153.319 169.266 153.319 169.266 153.319C169.266 153.319 169.266 153.319 169.267 153.319C169.282 153.282 169.3 153.247 169.315 153.21C169.347 153.138 169.374 153.063 169.397 152.987C169.423 152.905 169.443 152.821 169.459 152.737C169.465 152.704 169.469 152.67 169.474 152.636C169.479 152.596 169.484 152.556 169.487 152.516C169.986 146.201 145.001 132.834 116.638 121.014Z" fill="#DADADA"/>
<path d="M85.8509 139.113C85.4665 140.552 84.7064 141.862 83.6487 142.91C82.5909 143.957 81.2735 144.705 79.8316 145.076C78.3897 145.446 76.8751 145.427 75.4432 145.019C74.0113 144.612 72.7136 143.83 71.6831 142.756C71.6831 142.756 57.0103 130.353 60.1647 125.339C63.3191 120.324 81.2392 129.195 81.2392 129.195C81.8806 129.554 82.4868 129.972 83.0499 130.444L83.0437 130.441C84.2974 131.462 85.2293 132.824 85.7274 134.363C86.2254 135.901 86.2683 137.551 85.8509 139.113Z" fill="#DADADA"/>
<path d="M84.6809 135.904C85.6736 138.883 83.6669 142.234 80.1989 143.39C76.7309 144.546 73.1149 143.068 72.1222 140.089C71.1296 137.11 73.1363 133.759 76.6042 132.603C80.0722 131.447 83.6883 132.925 84.6809 135.904Z" fill="#DADADA"/>
<path d="M133.527 114.981C133.238 116.064 132.666 117.05 131.869 117.839C131.073 118.627 130.082 119.19 128.996 119.469C127.911 119.748 126.771 119.734 125.693 119.427C124.615 119.12 123.639 118.532 122.863 117.723C122.863 117.723 111.819 108.387 114.193 104.613C116.567 100.839 130.056 107.516 130.056 107.516C130.539 107.786 130.995 108.101 131.418 108.456L131.413 108.454C132.357 109.222 133.059 110.247 133.434 111.406C133.809 112.564 133.841 113.805 133.527 114.981Z" fill="#DADADA"/>
<path d="M132.881 113.269C133.499 115.123 131.884 117.331 129.273 118.2C126.663 119.07 124.046 118.273 123.428 116.419C122.811 114.565 124.426 112.357 127.036 111.487C129.647 110.617 132.264 111.415 132.881 113.269Z" fill="#DADADA"/>
<path d="M166.616 155.967L144.754 150.666L142.82 154.792L156.232 159.784C157.671 159.664 159.096 159.408 160.486 159.019C162.486 158.464 164.375 157.568 166.071 156.372C166.254 156.242 166.436 156.107 166.616 155.967Z" fill="#DADADA"/>
</svg>
