<svg width="338" height="66" viewBox="0 0 338 66" fill="none" xmlns="http://www.w3.org/2000/svg">
<path d="M71.9238 38.9802L54.1064 21.1628" stroke="black" stroke-width="4" stroke-linecap="square" stroke-linejoin="bevel"/>
<path d="M33.8173 37.8172L16 19.9998" stroke="black" stroke-width="4" stroke-linecap="square" stroke-linejoin="bevel"/>
<path d="M146.867 42.2411L129.05 24.4238" stroke="black" stroke-width="4" stroke-linecap="square" stroke-linejoin="bevel"/>
<path d="M109.505 40.5034L91.688 22.686" stroke="black" stroke-width="4" stroke-linecap="square" stroke-linejoin="bevel"/>
<path d="M184.449 43.7643L166.631 25.947" stroke="black" stroke-width="4" stroke-linecap="square" stroke-linejoin="bevel"/>
<path d="M222.24 45.0623L204.422 27.245" stroke="black" stroke-width="4" stroke-linecap="square" stroke-linejoin="bevel"/>
<path d="M259.602 46.8001L241.784 28.9828" stroke="black" stroke-width="4" stroke-linecap="square" stroke-linejoin="bevel"/>
<path d="M296.963 48.5379L279.146 30.7205" stroke="black" stroke-width="4" stroke-linecap="square" stroke-linejoin="bevel"/>
<path d="M334.325 50.2756L316.508 32.4583" stroke="black" stroke-width="4" stroke-linecap="square" stroke-linejoin="bevel"/>
<path d="M34.771 37.457L52.5884 19.6396" stroke="black" stroke-width="4" stroke-linecap="square" stroke-linejoin="bevel"/>
<path d="M109.714 40.7179L127.532 22.9006" stroke="black" stroke-width="4" stroke-linecap="square" stroke-linejoin="bevel"/>
<path d="M72.3526 38.9802L90.1699 21.1628" stroke="black" stroke-width="4" stroke-linecap="square" stroke-linejoin="bevel"/>
<path d="M147.296 42.2411L165.114 24.4238" stroke="black" stroke-width="4" stroke-linecap="square" stroke-linejoin="bevel"/>
<path d="M185.087 43.5392L202.905 25.7218" stroke="black" stroke-width="4" stroke-linecap="square" stroke-linejoin="bevel"/>
<path d="M222.449 45.2769L240.267 27.4596" stroke="black" stroke-width="4" stroke-linecap="square" stroke-linejoin="bevel"/>
<path d="M259.811 47.0147L277.628 29.1973" stroke="black" stroke-width="4" stroke-linecap="square" stroke-linejoin="bevel"/>
<path d="M297.173 48.7524L314.99 30.9351" stroke="black" stroke-width="4" stroke-linecap="square" stroke-linejoin="bevel"/>
<path d="M19.9523 31.5882L21.8021 33.438L14.963 50.6292L12.5192 48.1854L14.1484 44.3161L8.9384 39.1062L5.10305 40.7693L2.71021 38.3764L19.9523 31.5882ZM15.2345 41.7366L18.2722 34.9993L11.501 38.0031L15.2345 41.7366Z" fill="black"/>
<path d="M53.0584 29.6943L57.7931 34.429C58.5851 35.221 59.2243 36.1091 59.7108 37.0934C60.2086 38.0664 60.4915 39.0846 60.5593 40.1481C60.6272 41.2116 60.4519 42.2921 60.0333 43.3895C59.626 44.4756 58.9132 45.5278 57.895 46.546C56.8654 47.5756 55.7736 48.2714 54.6196 48.6334C53.4883 48.9954 52.3626 49.1142 51.2425 48.9898C50.1451 48.8653 49.0929 48.5486 48.086 48.0394C47.1017 47.5303 46.2475 46.9137 45.5234 46.1896L41.0432 41.7094L53.0584 29.6943ZM46.7114 43.5083C47.3789 44.1758 48.0803 44.7302 48.8157 45.1714C49.5737 45.6126 50.3317 45.8955 51.0898 46.0199C51.8591 46.1331 52.6228 46.0595 53.3808 45.7993C54.1614 45.5391 54.9195 45.0413 55.6548 44.3059C56.3789 43.5818 56.888 42.8464 57.1822 42.0997C57.4764 41.353 57.5782 40.6176 57.4877 39.8936C57.4198 39.1695 57.1822 38.4567 56.7749 37.7553C56.3902 37.0538 55.8698 36.375 55.2136 35.7188L53.262 33.7672L45.1161 41.9131L46.7114 43.5083Z" fill="black"/>
<path d="M128.081 33.7167L136.04 41.6759L134.105 43.6106L128.284 37.7897L125.332 40.7425L130.847 46.258L128.912 48.1926L123.397 42.6772L120.139 45.9355L126.265 52.0619L124.33 53.9965L116.066 45.7319L128.081 33.7167Z" fill="black"/>
<path d="M205.615 42.1198L201.932 38.4372L203.867 36.5025L213.37 46.006L211.435 47.9407L207.753 44.2581L197.672 54.3386L195.534 52.2003L205.615 42.1198Z" fill="black"/>
<path d="M89.8313 29.4672L92.292 31.9279L86.4881 44.2825L98.9445 38.5804L101.252 40.8884L84.3837 48.05L82.534 46.2002L89.8313 29.4672Z" fill="black"/>
<path d="M165.051 33.6866L167.885 36.5207L164.779 51.2681L164.813 51.302L173.74 42.3755L175.878 44.5138L163.863 56.5289L161.147 53.8137L164.423 38.6589L164.389 38.625L155.174 47.84L153.036 45.7017L165.051 33.6866Z" fill="black"/>
<path d="M243.086 55.9271C242.361 56.6511 241.581 57.1829 240.744 57.5223C239.918 57.8504 239.086 58.0031 238.249 57.9805C237.412 57.9579 236.586 57.7655 235.771 57.4035C234.968 57.0302 234.221 56.4984 233.531 55.8083C232.841 55.1181 232.309 54.3714 231.936 53.5682C231.574 52.7536 231.376 51.922 231.342 51.0735C231.319 50.2363 231.472 49.4047 231.8 48.5788C232.151 47.7529 232.688 46.9779 233.412 46.2538L241.015 38.651L243.153 40.7893L235.618 48.3243C235.324 48.6184 235.058 48.9748 234.821 49.3934C234.595 49.8007 234.448 50.2419 234.38 50.7171C234.323 51.2036 234.374 51.7071 234.532 52.2275C234.713 52.7479 235.058 53.2627 235.568 53.7718C236.077 54.2809 236.586 54.6203 237.095 54.79C237.627 54.9597 238.13 55.0107 238.605 54.9428C239.092 54.8862 239.539 54.7448 239.946 54.5185C240.365 54.2809 240.721 54.015 241.015 53.7209L248.55 46.186L250.688 48.3243L243.086 55.9271Z" fill="black"/>
<path d="M279.231 40.8665L283.405 45.0412C283.982 45.6182 284.48 46.2292 284.899 46.8741C285.34 47.5189 285.64 48.1808 285.798 48.8596C285.957 49.5384 285.94 50.2229 285.747 50.913C285.555 51.6032 285.119 52.2877 284.441 52.9665C283.569 53.8376 282.596 54.3241 281.522 54.426C280.458 54.5391 279.417 54.211 278.399 53.4417L276.278 61.9439L273.698 59.3644L276.006 51.49L274.445 49.9288L269.354 55.0199L267.215 52.8816L279.231 40.8665ZM277.941 49.759C278.246 50.0645 278.563 50.3587 278.891 50.6415C279.231 50.913 279.576 51.1224 279.926 51.2694C280.3 51.4165 280.673 51.4618 281.046 51.4052C281.431 51.3373 281.821 51.1054 282.217 50.7094C282.568 50.3587 282.777 50.0023 282.845 49.6403C282.913 49.2782 282.879 48.9275 282.743 48.5881C282.619 48.2374 282.427 47.8979 282.166 47.5698C281.918 47.2531 281.657 46.9589 281.386 46.6874L279.536 44.8376L276.278 48.0959L277.941 49.759Z" fill="black"/>
<path d="M316.081 41.7167L324.04 49.6759L322.105 51.6106L316.284 45.7897L313.332 48.7425L318.847 54.258L316.912 56.1926L311.397 50.6772L308.139 53.9355L314.265 60.0619L312.33 61.9965L304.066 53.7319L316.081 41.7167Z" fill="black"/>
<path d="M25.5902 15.8886L30.2402 11.2387C30.8511 10.6277 31.4903 10.1129 32.1578 9.69434C32.8254 9.2531 33.5042 8.97026 34.1943 8.84581C34.8845 8.69873 35.5859 8.74398 36.2987 8.98157C37.0114 9.19653 37.7185 9.65474 38.42 10.3562C39.2685 11.2047 39.772 12.1494 39.9304 13.1903C40.0774 14.2198 39.8059 15.2381 39.1158 16.245L47.2447 18.2645L44.0712 21.438L36.7569 19.1469L35.4501 20.4537L40.2528 25.2563L37.6054 27.9038L25.5902 15.8886ZM33.21 18.2136L34.7713 16.6523C35.0089 16.4147 35.2521 16.1601 35.501 15.8886C35.7499 15.5944 35.9423 15.3003 36.078 15.0061C36.2025 14.7007 36.2421 14.3895 36.1968 14.0727C36.1629 13.7446 35.9819 13.4165 35.6538 13.0884C35.3483 12.783 35.0428 12.602 34.7374 12.5454C34.4319 12.4888 34.1377 12.5114 33.8549 12.6133C33.5607 12.7038 33.2722 12.8565 32.9894 13.0715C32.7066 13.2864 32.4463 13.5127 32.2088 13.7503L30.4778 15.4813L33.21 18.2136Z" fill="black"/>
<path d="M62.5971 13.8916L70.7599 5.72872L73.2037 8.17249L67.6882 13.6879L69.9283 15.928L75.1383 10.7181L77.5821 13.1618L72.3721 18.3718L74.8159 20.8156L80.6368 14.9947L83.0805 17.4384L74.6122 25.9067L62.5971 13.8916Z" fill="black"/>
<path d="M98.9608 18.7249L101.982 15.7042L112.826 20.6087L112.86 20.5747L108.006 9.67961L110.84 6.84553L117.9 23.8161L115.779 25.9374L98.9608 18.7249Z" fill="black"/>
<path d="M173.684 23.0693L176.705 20.0486L187.549 24.953L187.583 24.9191L182.73 14.024L185.564 11.1899L192.624 28.1605L190.502 30.2818L173.684 23.0693Z" fill="black"/>
<path d="M249.573 23.7476L253.171 20.1499L266.628 23.3912L266.662 23.3573L258.313 15.0078L260.96 12.3604L272.975 24.3755L269.513 27.8375L255.716 24.5283L255.682 24.5622L264.236 33.1154L261.588 35.7628L249.573 23.7476Z" fill="black"/>
<path d="M150.743 12.6376L153.39 15.285L141.375 27.3001L138.728 24.6527L150.743 12.6376Z" fill="black"/>
<path d="M226.994 15.9023L229.641 18.5497L217.626 30.5649L214.979 27.9175L226.994 15.9023Z" fill="black"/>
<path d="M308.988 26.0207C308.614 27.2087 308.094 28.3174 307.426 29.3469C306.759 30.3765 305.984 31.3325 305.101 32.215C304.162 33.154 303.15 33.8724 302.064 34.3702C300.978 34.868 299.875 35.1339 298.754 35.1678C297.623 35.1905 296.503 34.9755 295.394 34.523C294.297 34.0591 293.267 33.3463 292.306 32.3847C291.344 31.423 290.631 30.3935 290.167 29.296C289.715 28.1873 289.505 27.0729 289.539 25.9528C289.562 24.8215 289.822 23.7127 290.32 22.6266C290.818 21.5405 291.536 20.5279 292.475 19.5889C293.437 18.6272 294.438 17.8635 295.479 17.2978C296.52 16.7095 297.629 16.3927 298.805 16.3475L298.975 20.2507C298.24 20.2394 297.55 20.3639 296.905 20.6241C296.26 20.8843 295.598 21.3538 294.919 22.0326C294.353 22.5983 293.935 23.2093 293.663 23.8655C293.403 24.5103 293.284 25.1722 293.307 25.851C293.318 26.5185 293.471 27.1804 293.765 27.8366C294.071 28.4814 294.5 29.0811 295.055 29.6354C295.621 30.2011 296.226 30.6367 296.871 30.9422C297.516 31.225 298.177 31.3778 298.856 31.4004C299.524 31.4117 300.18 31.2872 300.825 31.027C301.481 30.7555 302.092 30.3369 302.658 29.7712C303.235 29.1942 303.67 28.6342 303.964 28.0911C304.247 27.5368 304.445 27.0672 304.558 26.6826L302.607 24.731L300.452 26.8862L298.008 24.4425L302.709 19.7416L308.988 26.0207Z" fill="black"/>
</svg>
