<svg width="161" height="241" viewBox="0 0 161 241" fill="none" xmlns="http://www.w3.org/2000/svg">
<g clip-path="url(#clip0)">
<path d="M127.786 101.058C126.152 106.496 125.546 112.187 125.999 117.844C126.446 123.237 126.969 128.6 131.142 132.152C132.635 133.4 134.388 134.303 136.276 134.796C137.463 135.014 139.299 135.559 140.539 137.098C141.381 138.229 141.843 139.594 141.861 140.999C142.068 144.667 142.14 154.726 141.885 168.235C141.91 168.964 141.68 169.678 141.235 170.258C140.857 170.693 140.354 171.003 139.793 171.148V171.148C128.231 171.136 129.127 172.238 129.127 172.238H143.425V101.058H127.786Z" fill="#424A9F"/>
<path d="M159.063 101.058C160.697 106.496 161.303 112.187 160.85 117.844C160.404 123.237 159.881 128.6 155.707 132.152C154.215 133.4 152.461 134.303 150.574 134.796C149.387 135.014 147.55 135.559 146.311 137.098C145.469 138.229 145.006 139.594 144.988 140.999C144.781 144.667 144.71 154.726 144.964 168.235C144.939 168.964 145.169 169.678 145.615 170.258C145.992 170.693 146.495 171.003 147.056 171.148V171.148C158.618 171.136 157.722 172.238 157.722 172.238H143.424V101.058H159.063Z" fill="#424A9F"/>
<path d="M156.956 101.058C158.361 105.964 158.957 111.064 158.719 116.159C158.458 121.504 158.126 128.31 153.323 131.318C152.588 131.775 151.791 132.125 150.956 132.359C149.961 132.649 148.943 132.854 147.912 132.971C146.759 133.12 145.216 133.277 143.362 133.345C141.546 133.273 140.044 133.116 138.94 132.971C137.909 132.854 136.89 132.649 135.895 132.359C135.06 132.125 134.263 131.775 133.528 131.318C128.726 128.31 128.393 121.504 128.132 116.159C127.894 111.064 128.489 105.964 129.894 101.058H156.956Z" fill="white"/>
<path d="M158.772 115.709C158.764 115.862 158.76 116.014 158.753 116.159C158.492 121.502 158.161 128.31 153.357 131.316C152.623 131.774 151.827 132.124 150.992 132.356C149.997 132.649 148.977 132.855 147.945 132.969C146.795 133.118 145.25 133.274 143.397 133.345C141.58 133.27 140.079 133.114 138.975 132.969C137.944 132.852 136.924 132.647 135.928 132.356C135.094 132.123 134.298 131.772 133.564 131.316C131.959 130.274 130.711 128.774 129.985 127.013C132.656 125.216 135.863 124.371 139.081 124.617C147.145 125.215 151.355 124.617 153.522 120.798C154.803 118.683 156.611 116.931 158.772 115.709V115.709Z" fill="#F8A593"/>
</g>
<path d="M149.846 95.8404C153.087 83.0093 142.603 79.3262 136.956 79.0886L128.486 84.7914C130.327 84.9102 134.599 86.9299 136.956 94.0583C139.902 102.969 132.537 101.9 130.327 114.731C128.559 124.996 134.01 129.225 136.956 130.057L139.902 125.423C129.959 118.651 145.795 111.879 149.846 95.8404Z" fill="#F8A593"/>
<g clip-path="url(#clip1)">
<path d="M79.7808 78.8714L12.8024 41.1415C12.8024 41.1415 7.53801 38.0391 9.61334 31.9909L24.4873 5.58656C28.5866 0.673419 33.9682 3.56796 33.9682 3.56796L100.947 41.2979C112.106 47.584 113.157 54.5108 113.132 57.9558C113.107 61.4008 116.097 64.0389 116.097 64.0389C116.097 64.0389 125.894 69.4711 132.776 73.3479C134.895 74.5416 136.734 75.5875 137.93 76.2818C138.596 76.6723 139.062 76.955 139.263 77.0887C140.706 78.0639 140.102 79.8737 139.856 80.4555C139.805 80.5737 139.772 80.6414 139.772 80.6414L133.534 91.7144C133.367 91.9653 132.029 93.9144 130.247 93.0937C130.027 92.9947 129.546 92.739 128.867 92.3716C127.653 91.708 125.805 90.6776 123.686 89.4839C116.804 85.6071 107.082 80.044 107.082 80.044C107.082 80.044 103.273 78.8573 100.342 80.6601C97.411 82.4629 90.94 85.1576 79.7808 78.8714Z" fill="#424A9F"/>
<path d="M38.9118 55.8493L12.8024 41.1415C12.8024 41.1415 7.53799 38.0391 9.61332 31.9909L24.4872 5.58656C28.5866 0.673421 33.9681 3.56796 33.9681 3.56796L42.3764 8.30446L38.9118 55.8493Z" fill="#F8A593"/>
</g>
<g clip-path="url(#clip2)">
<path d="M127.722 203.088C126.085 200.751 125.478 198.305 125.932 195.874C126.379 193.557 126.903 191.252 131.084 189.726C132.58 189.19 134.337 188.801 136.228 188.59C137.417 188.496 139.257 188.262 140.499 187.601C141.343 187.115 141.806 186.528 141.824 185.924C142.031 184.348 142.103 180.025 141.848 174.22C141.873 173.907 141.643 173.6 141.197 173.351C140.818 173.164 140.314 173.031 139.752 172.969V172.969C128.167 172.974 129.065 172.5 129.065 172.5H143.391V203.088H127.722Z" fill="#DADADA"/>
<path d="M159.06 203.088C160.697 200.751 161.304 198.305 160.85 195.874C160.403 193.557 159.879 191.252 155.697 189.726C154.202 189.19 152.445 188.801 150.554 188.59C149.365 188.496 147.524 188.262 146.282 187.601C145.439 187.115 144.975 186.528 144.957 185.924C144.75 184.348 144.678 180.025 144.933 174.22C144.908 173.907 145.138 173.6 145.585 173.351C145.963 173.164 146.467 173.031 147.029 172.969V172.969C158.614 172.974 157.716 172.5 157.716 172.5H143.39V203.088H159.06Z" fill="#DADADA"/>
<path d="M156.948 203.088C158.356 200.979 158.953 198.788 158.715 196.598C158.454 194.301 158.12 191.377 153.309 190.084C152.572 189.888 151.773 189.737 150.937 189.637C149.94 189.512 148.919 189.424 147.887 189.374C146.732 189.31 145.186 189.242 143.328 189.213C141.508 189.244 140.003 189.312 138.897 189.374C137.864 189.424 136.844 189.512 135.847 189.637C135.01 189.737 134.211 189.888 133.475 190.084C128.663 191.377 128.33 194.301 128.068 196.598C127.83 198.788 128.426 200.979 129.834 203.088H156.948Z" fill="white"/>
<path d="M158.768 196.792C158.76 196.726 158.756 196.661 158.748 196.598C158.488 194.302 158.156 191.377 153.342 190.085C152.607 189.888 151.809 189.738 150.973 189.638C149.976 189.512 148.954 189.424 147.92 189.375C146.767 189.311 145.219 189.244 143.363 189.213C141.543 189.245 140.038 189.312 138.932 189.375C137.899 189.425 136.878 189.513 135.88 189.638C135.044 189.738 134.246 189.889 133.51 190.085C131.903 190.533 130.652 191.178 129.925 191.934C132.601 192.706 135.815 193.069 139.039 192.964C147.119 192.707 151.336 192.964 153.508 194.605C154.791 195.514 156.602 196.267 158.768 196.792V196.792Z" fill="#DADADA"/>
</g>
<path d="M149.621 205.455C152.802 210.978 142.512 212.563 136.97 212.665L128.656 210.211C130.464 210.16 134.657 209.29 136.97 206.222C139.861 202.387 132.632 202.848 130.464 197.325C128.728 192.907 134.078 191.087 136.97 190.729L139.862 192.723C130.102 195.638 145.645 198.552 149.621 205.455Z" fill="#DADADA"/>
<g clip-path="url(#clip3)">
<path d="M78.095 210.11L6.74709 222.413C6.74709 222.413 1.12129 223.438 2.38551 226.132L13.6682 238.223C17.0879 240.548 22.8025 239.618 22.8025 239.618L94.1505 227.315C106.038 225.265 107.988 222.373 108.415 220.903C108.842 219.434 112.153 218.478 112.153 218.478C112.153 218.478 122.577 216.715 129.908 215.451C132.165 215.062 134.125 214.72 135.403 214.491C136.114 214.363 136.613 214.268 136.83 214.223C138.389 213.889 138.027 213.083 137.859 212.821C137.824 212.768 137.8 212.737 137.8 212.737L133.069 207.667C132.936 207.551 131.864 206.645 129.991 206.894C129.759 206.924 129.249 207.006 128.527 207.124C127.237 207.338 125.27 207.673 123.013 208.062C115.682 209.327 105.314 211.149 105.314 211.149C105.314 211.149 101.383 211.44 98.7134 210.507C96.0439 209.573 89.9822 208.06 78.095 210.11Z" fill="#DADADA"/>
<path opacity="0.76" d="M34.5598 217.617L6.74712 222.413C6.74712 222.413 1.12132 223.438 2.38554 226.132L13.6683 238.223C17.0879 240.548 22.8025 239.618 22.8025 239.618L31.7593 238.073L34.5598 217.617Z" fill="#DADADA"/>
</g>
<defs>
<clipPath id="clip0">
<rect width="35.1506" height="71.1799" fill="white" transform="translate(125.849 101.058)"/>
</clipPath>
<clipPath id="clip1">
<rect width="43.125" height="137.281" fill="white" transform="translate(147.244 67.3776) rotate(119.393)"/>
</clipPath>
<clipPath id="clip2">
<rect width="35.2187" height="30.5875" fill="white" transform="matrix(1 0 0 -1 125.781 203.088)"/>
</clipPath>
<clipPath id="clip3">
<rect width="23.5329" height="129.293" fill="white" transform="matrix(-0.682254 -0.731115 -0.985457 0.169927 143.468 218.811)"/>
</clipPath>
</defs>
</svg>
