<svg width="148" height="316" fill="none" xmlns="http://www.w3.org/2000/svg"><path d="M63.5 38.66c-8.684 0-25.742-3.5-26.5-3.5l25.579 7 .921-3.5z" fill="#CC806F"/><path d="M137.423 19.696L82.898 5.086c-4.3-1.152-8.717 1.388-9.865 5.673L38.079 141.208c-1.148 4.286 1.407 8.694 5.707 9.846l54.526 14.61c4.3 1.152 8.717-1.388 9.865-5.673L143.13 29.542c1.148-4.285-1.407-8.694-5.707-9.846z" stroke="#424A9F" stroke-width="4.336" stroke-miterlimit="10"/><path d="M82.95 5.1a8.085 8.085 0 00-6.115.798 8.03 8.03 0 00-3.75 4.876L38.13 141.22a8.006 8.006 0 00.81 6.098 8.088 8.088 0 004.897 3.748l5.425 1.454L88.375 6.554 82.95 5.1zM98.33 165.668a8.083 8.083 0 006.115-.797 8.035 8.035 0 003.751-4.876l34.953-130.447a8.012 8.012 0 00-.81-6.099 8.069 8.069 0 00-4.897-3.748l-5.425-1.453-39.112 145.967 5.425 1.453zM82.991 37.3l-.246.92 18.199 4.876.246-.92L82.991 37.3zM83.646 34.859l-.247.92 18.199 4.875.246-.919-18.198-4.876zM84.845 30.38l-.67 2.503 18.198 4.876.671-2.502-18.199-4.876zM83.876 33.998l-.123.46 18.198 4.876.124-.46-18.199-4.876zM84.093 33.19l-.123.46 18.198 4.875.123-.46-18.198-4.875zM83.218 36.453l-.092.345 18.198 4.876.093-.345-18.199-4.876zM88.614 16.319l-.247.919 18.199 4.876.246-.919-18.198-4.876zM88.84 15.472l-.092.344 18.198 4.877.093-.345-18.199-4.876zM85.256 28.849l-.246.92 18.198 4.875.246-.919-18.198-4.876zM85.91 26.408l-.246.919 18.198 4.876.246-.919-18.198-4.876zM87.11 21.93l-.67 2.502 18.198 4.876.67-2.502L87.11 21.93zM86.14 25.547l-.122.46 18.198 4.876.123-.46-18.198-4.875zM86.358 24.738l-.124.46 18.199 4.876.123-.46-18.198-4.876zM88.279 17.568l-.67 2.502 18.198 4.877.67-2.502-18.198-4.877zM87.31 21.186l-.124.46 18.198 4.876.124-.46-18.199-4.876zM87.526 20.377l-.123.46 18.198 4.876.123-.46-18.198-4.876zM85.483 28.002l-.092.344 18.198 4.877.092-.345-18.198-4.876zM76.718 60.714l-.246.919 18.198 4.876.246-.92-18.198-4.875zM77.372 58.272l-.246.92 18.198 4.876.246-.92-18.198-4.876zM78.572 53.794l-.67 2.502L96.1 61.172l.67-2.502-18.198-4.876zM77.603 57.412l-.123.46 18.198 4.876.123-.46-18.198-4.876zM77.82 56.603l-.124.46 18.199 4.875.123-.46-18.199-4.875zM76.945 59.867l-.092.344 18.198 4.876.092-.344-18.198-4.876zM82.34 39.732l-.247.92 18.199 4.876.246-.92-18.198-4.876zM82.567 38.885l-.092.345 18.198 4.876.092-.344-18.198-4.877zM78.983 52.262l-.247.92 18.199 4.876.246-.92-18.198-4.876zM79.636 49.821l-.246.92 18.199 4.876.246-.92-18.199-4.876zM80.836 45.343l-.67 2.501 18.199 4.877.67-2.502-18.199-4.876zM79.867 48.96l-.123.46 18.199 4.876.123-.46-18.199-4.876zM80.084 48.151l-.123.46 18.198 4.876.123-.46-18.198-4.876zM82.005 40.981l-.67 2.502 18.198 4.877.67-2.502-18.198-4.877zM81.036 44.6l-.123.46 18.198 4.875.123-.46L81.036 44.6zM81.252 43.79l-.123.46 18.198 4.877.124-.46-18.199-4.876zM79.21 51.415l-.093.345 18.199 4.876.092-.345-18.198-4.876z" fill="#424A9F"/><path d="M125.946 62.856L71.42 48.246c-4.3-1.153-8.681 1.256-9.786 5.38L28 179.146c-1.105 4.124 1.485 8.401 5.785 9.553l54.525 14.61c4.3 1.152 8.682-1.257 9.787-5.38l33.633-125.52c1.105-4.124-1.485-8.401-5.785-9.553z" stroke="#424A9F" stroke-width="4.336" stroke-miterlimit="10"/><path d="M71.472 48.26a8.362 8.362 0 00-3.132-.23 8.091 8.091 0 00-2.96.941 7.715 7.715 0 00-2.337 1.97 7.455 7.455 0 00-1.358 2.7L28.052 179.16a7.452 7.452 0 00-.173 3.016 7.715 7.715 0 001.039 2.875 8.087 8.087 0 002.092 2.295 8.351 8.351 0 002.828 1.367l5.424 1.454L76.897 49.713l-5.425-1.453zM88.33 203.314a8.364 8.364 0 003.132.23 8.084 8.084 0 002.96-.942 7.708 7.708 0 002.336-1.97 7.452 7.452 0 001.359-2.699l33.633-125.52a7.48 7.48 0 00.173-3.016 7.73 7.73 0 00-1.039-2.874 8.079 8.079 0 00-2.093-2.296 8.36 8.36 0 00-2.827-1.367l-5.425-1.453L82.905 201.86l5.424 1.454zM71.818 79.325l-.237.885 18.198 4.876.237-.885-18.198-4.876zM72.447 76.976l-.237.885 18.199 4.876.237-.885-18.199-4.876zM73.602 72.667l-.645 2.408 18.198 4.876.645-2.407-18.198-4.877zM72.67 76.148l-.12.442 18.2 4.877.118-.443-18.199-4.876zM72.878 75.37l-.119.442 18.199 4.876.118-.442-18.198-4.876zM72.036 78.51l-.089.332 18.199 4.876.088-.332-18.198-4.876zM77.228 59.136l-.237.885 18.198 4.876.237-.884-18.198-4.877zM77.446 58.321l-.09.332 18.2 4.876.088-.331-18.198-4.877zM73.997 71.193l-.237.885 18.198 4.876.237-.884-18.198-4.877zM74.626 68.844l-.237.885 18.199 4.876.237-.885-18.199-4.876zM75.78 64.535l-.644 2.408 18.198 4.876.645-2.407-18.198-4.877zM74.848 68.016l-.118.443 18.198 4.876.118-.442-18.198-4.877zM75.057 67.238l-.118.442 18.198 4.876.118-.442-18.198-4.876zM76.905 60.339l-.645 2.407 18.199 4.876.645-2.407-18.199-4.876zM75.972 63.82l-.118.442 18.198 4.876.119-.442-18.199-4.876zM76.181 63.041l-.118.443L94.26 68.36l.118-.442-18.198-4.877zM74.215 70.378l-.089.332 18.199 4.876.089-.332-18.199-4.876zM65.78 101.854l-.236.885 18.198 4.876.237-.885-18.198-4.876zM66.41 99.505l-.237.884 18.199 4.877.237-.885-18.199-4.876zM67.565 95.196l-.645 2.407 18.198 4.877.645-2.408-18.198-4.876zM66.633 98.677l-.119.443 18.199 4.876.118-.442-18.198-4.877zM66.841 97.899l-.118.442 18.198 4.876.119-.442-18.199-4.876zM66 101.039l-.09.332 18.2 4.876.088-.332-18.199-4.876zM71.19 81.665l-.236.885 18.198 4.876.237-.884-18.198-4.877zM71.41 80.85l-.09.332 18.2 4.876.088-.331L71.41 80.85zM67.96 93.722l-.236.884 18.198 4.877.237-.885-18.198-4.876zM68.59 91.373l-.237.885 18.198 4.876.237-.885-18.198-4.876zM69.744 87.064L69.1 89.47l18.199 4.876.645-2.407-18.199-4.876zM68.812 90.545l-.119.442 18.199 4.876.118-.442-18.198-4.876zM69.02 89.766l-.118.443L87.1 95.085l.119-.442-18.199-4.877zM70.869 82.868l-.645 2.407 18.198 4.876.645-2.407-18.198-4.876zM69.936 86.349l-.119.442 18.199 4.876.118-.442-18.198-4.876zM70.144 85.57l-.118.443 18.198 4.876.119-.442-18.199-4.876zM68.179 92.907l-.09.331 18.2 4.877.088-.332-18.198-4.876zM70.219 167.758l-.237.884 18.198 4.877.237-.885-18.198-4.876zM70.848 165.409l-.237.884 18.199 4.877.237-.885-18.199-4.876zM72.002 161.1l-.645 2.408 18.199 4.876.645-2.408-18.198-4.876zM71.07 164.581l-.118.442 18.198 4.876.119-.442-18.199-4.876zM71.279 163.803l-.119.442 18.199 4.876.118-.442-18.198-4.876zM70.437 166.943l-.089.331 18.199 4.877.088-.332-18.198-4.876zM75.629 147.569l-.237.885 18.198 4.876.237-.885-18.198-4.876zM75.847 146.754l-.09.332 18.2 4.876.088-.331-18.198-4.877zM72.398 159.626l-.237.884 18.198 4.877.237-.885-18.198-4.876zM73.027 157.277l-.237.884 18.198 4.877.237-.885-18.198-4.876zM74.182 152.968l-.645 2.407 18.198 4.877.645-2.408-18.198-4.876zM73.249 156.449l-.119.443 18.199 4.876.118-.442-18.198-4.877zM73.458 155.671l-.119.442 18.199 4.876.118-.442-18.198-4.876zM75.306 148.772l-.645 2.407 18.199 4.876.645-2.407-18.199-4.876zM74.373 152.253l-.118.442 18.198 4.876.119-.442-18.199-4.876zM74.582 151.474l-.119.443 18.199 4.876.118-.442-18.198-4.877zM72.616 158.811l-.089.332 18.199 4.876.089-.332-18.199-4.876zM64.182 190.287l-.237.884 18.198 4.877.237-.885-18.198-4.876zM64.811 187.938l-.237.884 18.199 4.877.237-.885-18.199-4.876zM65.966 183.629l-.645 2.407 18.198 4.876.645-2.407-18.198-4.876zM65.034 187.11l-.119.442 18.198 4.877.119-.442-18.198-4.877zM65.242 186.331l-.118.443 18.198 4.876.118-.442-18.198-4.877zM64.4 189.472l-.089.331 18.199 4.877.089-.332-18.199-4.876zM69.591 170.098l-.236.885 18.198 4.876.237-.884-18.199-4.877zM69.81 169.283l-.088.332 18.198 4.876.089-.331-18.198-4.877zM66.362 182.155l-.237.884 18.198 4.877.237-.885-18.198-4.876zM66.99 179.806l-.237.884 18.199 4.877.237-.885-18.199-4.876zM68.145 175.497l-.645 2.407 18.198 4.876.646-2.407-18.199-4.876zM67.213 178.978l-.119.442 18.199 4.876.118-.442-18.198-4.876zM67.421 178.199l-.118.443 18.198 4.876.119-.442-18.199-4.877zM69.27 171.3l-.645 2.408 18.198 4.876.645-2.407L69.27 171.3zM68.337 174.782l-.119.442 18.199 4.876.118-.442-18.198-4.876zM68.545 174.004l-.118.442 18.198 4.876.119-.442-18.199-4.876zM66.58 181.34l-.09.331 18.2 4.876.088-.331-18.199-4.876z" fill="#424A9F"/><path d="M128.999 59.293L38.958 35.167a3.898 3.898 0 00-4.77 2.764L1.01 161.754a3.897 3.897 0 002.749 4.778l90.04 24.127a3.898 3.898 0 004.77-2.764l33.178-123.824a3.897 3.897 0 00-2.748-4.778z" fill="#F8A593"/><path d="M124.505 61.778L41.607 39.566a4.105 4.105 0 00-5.023 2.91L5.358 159.015a4.106 4.106 0 002.894 5.033L91.15 186.26a4.104 4.104 0 005.023-2.911L127.399 66.81a4.104 4.104 0 00-2.894-5.032z" stroke="#424A9F" stroke-miterlimit="10"/><path d="M93.772 133.246a32.268 32.268 0 01-2.654 6.76v.005l-.002.001a31.862 31.862 0 01-6.172 8.144 31.973 31.973 0 01-14.146 7.859 31.857 31.857 0 01-17.428-.453 31.859 31.859 0 01-13.648-8.525 31.989 31.989 0 01-7.758-14.125v-.002a31.963 31.963 0 01.438-17.3 32.09 32.09 0 0114.37-18.231 31.889 31.889 0 0129.844-1.367 31.881 31.881 0 0114.814 14.442 32.066 32.066 0 012.863 20.532v.001c-.146.754-.32 1.507-.52 2.259z" stroke="#424A9F" stroke-width="6.782" stroke-miterlimit="10"/><path d="M91.122 140.002c0 .002-.001.005-.004.006l-.001.006a32.093 32.093 0 01-19.172 15.685c-.647-1.096-.478-2.67 1.527-3.83 3.49-2.023 2.416-4.281 3.208-7.767.791-3.485-5.654 1.688-7.245-2.186 0 0-6.386-4.312-2.325-10.303 4.06-5.992 10.204-5.083 12.188-3.319 1.984 1.764 4.527-2.228 6.31 1.201 1.782 3.43.995 7.024 3.47 8.002 2.475.977 2.94-2.594 2.475.977a6.416 6.416 0 01-.43 1.528zM53.377 148.493c-.578 2.157-1.156 4.314-3.913 4.09a2.606 2.606 0 00-1.805.568 31.647 31.647 0 01-7.88-6.054c.154-.433.323-.88.503-1.342.817-2.093-1.022-6.698-2.798-11.54-1.519-4.144 3.102-5.072 3.305-10.42.071-1.91-.24-2.323-.13-5.504.03-.854.316-2.863.888-6.882.293-2.061.415-2.694.895-2.924 1.282-.615 3.468 1.572 3.486 2.815.028 1.805 2.079 4.666.25 2.893-.692-.67-1.212-.97-1.633-.983-.916-.024-1.648 1.654-1.874 2.177-.388.891-1.202 2.763-.403 4.306.677 1.306 2.125 1.627 2.112 2.844.032.268-.016.539-.137.78-1.153 2.398-.607 2.268 2.335 5.627 2.942 3.358 2.63 7.385 3.615 9.447.985 2.062 1.396 2.431 4.59 4.85 3.195 2.418-.828 3.094-1.406 5.252zM76.616 96.012c-.422.762-.972 1.267-1.648.86-1.722-1.034-6.068 2.738-9.083 2.375-3.015-.362-1.835-2.275-3.16-3.969-1.324-1.693-2.991 1.206-3.7 3.024-.708 1.818-3.469-1.153-4.166 1.449-.697 2.602-2.579 2.987-4.805 2.169-2.226-.818-10.552 4.533-10.552 4.533-1.674 1-2.04.14-2.052-.757A32.057 32.057 0 0151.8 94.978a31.9 31.9 0 0119.423-.944 31.987 31.987 0 015.393 1.978zM94.293 130.986v.001a5.196 5.196 0 01-.972 1.045c-2.238 1.802-3-3.685-3.78-6.133-.78-2.448-1.086-1.893-3.26-2.954-2.172-1.061-3.368-2.663-3.52-4.473-.154-1.809-2.465-.332-5.328 1.621-2.863 1.953-2.539-.839-3.111-2.274-.573-1.435 2.431-.148 2.436-1.587.004-1.439 3.486-1.468 4.243-3.183.756-1.715-.199-4.534 1.885-3.976 2.083.559 1.94-1.88.92-3.435-.977-1.486-1.685-4.516-1.393-6.08a31.97 31.97 0 0110.383 14.018 32.127 32.127 0 011.497 17.41zM49.745 67.52l3.049.816c.425.114.817.26 1.174.439.358.179.65.402.877.67.236.262.392.577.467.945.085.362.063.787-.068 1.273-.128.48-.313.86-.555 1.144a2.047 2.047 0 01-.845.606c-.322.12-.68.174-1.074.16a6.114 6.114 0 01-1.237-.208l-1.321-.354-.857 3.2-1.808-.485 2.199-8.207zm.877 3.961l1.206.323c.162.043.32.07.475.078.163.01.312-.004.447-.042a.861.861 0 00.37-.224.98.98 0 00.247-.456c.055-.208.05-.388-.018-.538a.924.924 0 00-.29-.401 1.482 1.482 0 00-.464-.261 4.456 4.456 0 00-.524-.178l-.927-.248-.522 1.947zm8.265-1.512l1.495.4 1.371 9.163-2.04-.546-.24-1.928-3.188-.855-1.15 1.556-1.994-.534 5.746-7.256zm.056 2.574l-1.68 2.283 2.005.537-.325-2.82zm9.354 2.096a1.293 1.293 0 00-.494-.567 2.085 2.085 0 00-.67-.329 1.936 1.936 0 00-.418-.062 1.484 1.484 0 00-.434.045.837.837 0 00-.37.174.684.684 0 00-.221.364c-.066.247-.025.461.126.642.15.181.352.355.605.523.261.169.542.343.841.523.3.18.566.392.799.636.24.247.415.538.524.874.108.335.099.743-.03 1.222-.122.456-.314.831-.575 1.125a2.48 2.48 0 01-.922.66 2.968 2.968 0 01-1.142.228 4.519 4.519 0 01-1.249-.16 4.55 4.55 0 01-1.418-.641 3.849 3.849 0 01-1.064-1.13l1.665-1.07c.12.297.3.553.54.766a2.162 2.162 0 001.282.505c.165.003.314-.015.449-.053a.834.834 0 00.361-.19.663.663 0 00.219-.35.698.698 0 00-.135-.658 2.514 2.514 0 00-.608-.56c-.259-.177-.54-.36-.846-.55a4.312 4.312 0 01-.819-.654 2.376 2.376 0 01-.538-.865c-.111-.328-.106-.72.017-1.176.118-.44.306-.804.565-1.09.267-.285.573-.501.92-.649a3.11 3.11 0 011.141-.228c.41-.014.816.032 1.218.14.463.124.894.31 1.291.557.398.247.729.572.994.974l-1.604 1.024zm6.656 1.784a1.294 1.294 0 00-.494-.567 2.083 2.083 0 00-.67-.329 1.935 1.935 0 00-.418-.062 1.487 1.487 0 00-.434.045.835.835 0 00-.37.174.684.684 0 00-.221.363c-.067.247-.025.462.126.642.15.182.352.356.605.523.261.17.541.344.841.524.3.18.566.391.799.636.24.246.415.538.523.873.11.336.1.743-.029 1.222-.122.456-.314.831-.575 1.126a2.482 2.482 0 01-.922.66 2.97 2.97 0 01-1.142.228 4.523 4.523 0 01-1.249-.16 4.548 4.548 0 01-1.418-.642 3.85 3.85 0 01-1.064-1.13l1.665-1.069c.12.297.3.552.54.766a2.165 2.165 0 001.282.505c.165.002.314-.016.449-.054a.836.836 0 00.36-.189.663.663 0 00.22-.351.698.698 0 00-.135-.657 2.514 2.514 0 00-.608-.56c-.259-.178-.541-.361-.846-.55a4.307 4.307 0 01-.819-.655 2.375 2.375 0 01-.538-.865c-.111-.328-.106-.72.016-1.175.118-.44.307-.804.566-1.091a2.7 2.7 0 01.92-.648 3.11 3.11 0 011.141-.229c.41-.014.816.032 1.217.14.464.124.895.31 1.292.557.398.248.729.573.994.975l-1.604 1.024zm3.136-1.31l3.049.818c.425.114.816.26 1.174.439.358.178.65.401.877.67.236.261.392.576.467.944.085.363.063.787-.068 1.274-.128.48-.313.86-.555 1.144a2.048 2.048 0 01-.845.605c-.323.121-.68.174-1.074.16a6.128 6.128 0 01-1.237-.207l-1.321-.354-.857 3.199-1.808-.485 2.198-8.206zm.877 3.963l1.205.323c.163.043.321.07.476.078.163.01.312-.004.447-.042a.862.862 0 00.37-.224.979.979 0 00.246-.456c.056-.209.05-.388-.017-.539a.923.923 0 00-.29-.4 1.483 1.483 0 00-.464-.261 4.45 4.45 0 00-.524-.178l-.927-.249-.522 1.948zm4.885 1.98c.175-.657.443-1.224.802-1.699a4.06 4.06 0 011.291-1.107 4.159 4.159 0 011.635-.494 5.235 5.235 0 011.855.174c.641.172 1.205.43 1.692.776.487.346.877.761 1.17 1.246.295.476.479 1.01.552 1.601.082.593.034 1.218-.142 1.875s-.447 1.222-.814 1.695c-.36.475-.787.85-1.282 1.123a4.251 4.251 0 01-1.633.482 5.235 5.235 0 01-1.854-.174 5.234 5.234 0 01-1.693-.777 4.25 4.25 0 01-1.172-1.233 4.185 4.185 0 01-.561-1.617c-.074-.59-.023-1.215.153-1.872zm1.877.502c-.103.387-.14.758-.112 1.113.04.35.138.675.298.975.162.292.38.545.654.759.282.216.616.376 1.002.48.387.103.752.13 1.096.082.352-.046.671-.156.958-.327.288-.18.532-.412.733-.698.21-.292.368-.63.471-1.017.102-.379.134-.747.098-1.104a2.375 2.375 0 00-.287-.972c-.16-.3-.38-.557-.662-.773a2.738 2.738 0 00-.99-.477 2.827 2.827 0 00-1.108-.086c-.344.049-.66.163-.949.343a2.514 2.514 0 00-.745.694c-.203.294-.355.63-.457 1.008zm9.307-1.904l3.176.851c.417.112.8.26 1.148.445.358.178.65.401.876.67.236.261.392.576.468.944.085.363.063.784-.065 1.263-.156.58-.439 1.033-.85 1.362-.409.321-.918.458-1.526.411l1.157 4.025-2.167-.58-.837-3.74-.892-.24-.88 3.28-1.807-.484 2.199-8.207zm.898 3.881l1.066.286c.163.043.334.085.513.125.19.034.365.044.527.029a.885.885 0 00.434-.182c.133-.097.23-.257.29-.481.056-.209.058-.386.006-.533a.833.833 0 00-.25-.365 1.396 1.396 0 00-.415-.26 3.83 3.83 0 00-.489-.168l-1.182-.317-.5 1.866zm7.573.104l-2.341-.628.429-1.6 6.491 1.74-.429 1.6-2.341-.628-1.771 6.607-1.808-.484 1.77-6.607z" fill="#424A9F"/><path d="M64.827 298.131c-8.712 0-25.824 1.761-26.585 1.761l25.66-3.521.925 1.76zM137.982 307.67l-54.699 7.35c-4.314.579-8.744-.698-9.896-2.854l-35.065-65.62c-1.152-2.156 1.411-4.374 5.725-4.953l54.7-7.35c4.313-.579 8.744.698 9.896 2.854l35.064 65.621c1.152 2.155-1.411 4.373-5.725 4.952z" fill="#DADADA"/><path d="M83.336 315.013a15.955 15.955 0 01-3.148.104 14.157 14.157 0 01-2.987-.505c-.919-.265-1.724-.618-2.37-1.039-.645-.421-1.119-.902-1.393-1.414l-35.064-65.62c-.274-.513-.343-1.048-.204-1.574.14-.526.485-1.034 1.017-1.494.531-.46 1.239-.863 2.082-1.187a12.654 12.654 0 012.83-.698l5.442-.732 39.237 73.428-5.442.731zM98.764 234.241a15.953 15.953 0 013.148-.105 14.22 14.22 0 012.987.506c.919.265 1.724.618 2.37 1.039.646.421 1.119.901 1.393 1.414l35.064 65.62c.274.512.343 1.047.204 1.573-.139.527-.485 1.034-1.017 1.494-.531.46-1.239.864-2.082 1.187-.843.324-1.804.561-2.83.699l-5.442.731-39.236-73.427 5.441-.731z" fill="#DADADA"/><path d="M123.342 283.293l.336.63a1.02 1.02 0 00.478.438c.111.054.242.092.39.114.15.023.32.022.51-.003.24-.033.422-.092.546-.18.12-.085.184-.187.191-.307l.012-.001a.595.595 0 00.202.169c.086.051.184.091.295.12a2.039 2.039 0 00.763.041c.229-.031.404-.08.525-.148a.594.594 0 00.255-.235.441.441 0 00.042-.283.926.926 0 00-.1-.293l-.329-.615-4.116.553zm1.875.01l.18.339a.658.658 0 01.067.172.242.242 0 01-.012.164.342.342 0 01-.145.135 1.05 1.05 0 01-.327.088 1.137 1.137 0 01-.329.003.749.749 0 01-.246-.076.72.72 0 01-.284-.287l-.195-.364 1.291-.174zm1.918-.257l.222.414c.032.06.052.121.06.182a.307.307 0 01-.037.177.403.403 0 01-.158.146.936.936 0 01-.314.089 1.422 1.422 0 01-.384.005.973.973 0 01-.292-.08.66.66 0 01-.206-.141.767.767 0 01-.131-.176l-.225-.42 1.465-.196zM129.056 285.521a1.135 1.135 0 00-.395-.412 2.377 2.377 0 00-.629-.281 3.91 3.91 0 00-.806-.133 4.82 4.82 0 00-.909.038c-.31.042-.583.107-.818.194a1.87 1.87 0 00-.566.317.82.82 0 00-.272.402.622.622 0 00.07.456c.084.158.215.294.393.41.179.118.391.211.636.28.242.072.51.116.806.132.293.019.594.008.904-.033.31-.042.584-.108.823-.199a1.83 1.83 0 00.566-.316.802.802 0 00.265-.401.603.603 0 00-.068-.454zm-.453.061a.435.435 0 01.042.348.645.645 0 01-.227.308 1.582 1.582 0 01-.452.239c-.188.069-.4.119-.636.151a3.634 3.634 0 01-1.331-.065 1.83 1.83 0 01-.505-.21.833.833 0 01-.31-.312.444.444 0 01-.044-.35.665.665 0 01.23-.306c.116-.092.268-.173.456-.242.184-.067.395-.116.631-.148.237-.031.47-.042.7-.031.227.013.438.045.631.096.194.051.361.121.504.208a.847.847 0 01.311.314zM125.98 288.231l.123.23 4.586.325-.153-.286-1.124-.074-.551-1.032.898-.349-.148-.277-3.631 1.463zm.688.027l-.004-.006 1.795-.701.45.843-2.241-.136zM126.719 289.613l.282.528c.053.099.117.196.192.29a1 1 0 00.293.245c.119.067.267.115.444.143.174.029.388.026.644-.008.302-.041.522-.119.659-.236a.41.41 0 00.152-.426l2.209.331-.16-.3-2.148-.312-.169-.314 1.849-.249-.131-.245-4.116.553zm1.945.001l.117.219c.036.068.07.139.1.212.032.074.043.145.032.211a.264.264 0 01-.117.178c-.071.053-.192.092-.362.114-.147.02-.273.022-.378.004a.77.77 0 01-.266-.089.608.608 0 01-.185-.147 1.034 1.034 0 01-.118-.175l-.184-.344 1.361-.183zM127.651 291.358l.424.793c.036.068.09.138.162.209.071.072.162.14.271.204.106.067.232.127.377.181.146.055.31.099.493.13.179.033.378.051.596.055.215.004.448-.01.7-.044.252-.034.47-.08.655-.138a2.34 2.34 0 00.462-.197c.123-.073.22-.151.291-.236a.758.758 0 00.153-.251.587.587 0 00-.044-.466l-.424-.793-4.116.553zm3.794-.248l.249.467a.626.626 0 01.083.342.473.473 0 01-.145.3 1.175 1.175 0 01-.406.243 3.12 3.12 0 01-.693.161c-.283.038-.536.05-.761.034a2.344 2.344 0 01-.587-.109 1.347 1.347 0 01-.431-.223 1.017 1.017 0 01-.269-.317l-.25-.466 3.21-.432zM128.826 293.556l.131.245 4.116-.553-.131-.245-4.116.553zM129.231 294.314l.165.309 4.057.736.003.006-3.418.459.131.245 4.116-.553-.165-.309-4.058-.736-.003-.006 3.419-.459-.131-.245-4.116.553zM135.218 297.822a.792.792 0 00.09-.415.963.963 0 00-.119-.409 1.192 1.192 0 00-.394-.422 2.263 2.263 0 00-.628-.29 3.635 3.635 0 00-.802-.136 4.713 4.713 0 00-.927.037 3.62 3.62 0 00-.839.203 1.71 1.71 0 00-.552.331.803.803 0 00-.254.412.646.646 0 00.075.455c.073.136.183.261.331.374.149.116.349.21.599.282l.286-.235a1.6 1.6 0 01-.486-.209.844.844 0 01-.286-.29.46.46 0 01-.048-.347.662.662 0 01.213-.313c.112-.094.261-.176.447-.247.188-.069.406-.12.654-.154.244-.033.482-.043.713-.03.232.015.445.049.64.102.191.055.358.13.499.223a.918.918 0 01.314.33.732.732 0 01.082.27.595.595 0 01-.047.275l-1.261.169-.254-.475-.454.061.385.72 2.023-.272zM132.089 299.663l.328.613c.05.095.118.183.203.263a.953.953 0 00.309.205c.121.057.266.095.434.114.165.021.355.018.568-.011.225-.03.399-.076.524-.139a.633.633 0 00.26-.213.375.375 0 00.063-.243.623.623 0 00-.069-.234l-.221-.414 1.849-.249-.131-.245-4.117.553zm1.945.002l.221.414c.066.122.065.228-.003.319-.071.093-.223.155-.456.186-.232.031-.423.015-.574-.048a.606.606 0 01-.327-.275l-.221-.414 1.36-.182zM133.256 301.846l.123.23 4.585.325-.153-.286-1.124-.074-.551-1.032.898-.349-.148-.277-3.63 1.463zm.687.026l-.004-.006 1.795-.7.45.843-2.241-.137zM135.244 304.11a.962.962 0 01-.372-.125.562.562 0 01-.207-.2.366.366 0 01-.045-.166c0-.056.015-.109.046-.159a.414.414 0 01.162-.129 1 1 0 01.294-.08c.093-.012.18-.016.261-.013a.978.978 0 01.465.16c.081.049.168.111.262.186.093.073.188.143.286.209a1.535 1.535 0 00.737.26c.151.017.327.012.528-.015.206-.027.373-.072.502-.133a.781.781 0 00.291-.214.409.409 0 00.092-.259.54.54 0 00-.069-.281.75.75 0 00-.132-.176 1.034 1.034 0 00-.186-.163 1.623 1.623 0 00-.257-.131 1.702 1.702 0 00-.335-.089l-.23.256c.175.024.322.071.442.14.12.069.204.149.252.238a.31.31 0 01-.018.328.502.502 0 01-.171.135.852.852 0 01-.286.082 1.36 1.36 0 01-.325.01.921.921 0 01-.263-.071 1.379 1.379 0 01-.247-.148l-.291-.218a2.618 2.618 0 00-.266-.183 1.608 1.608 0 00-.308-.133 1.87 1.87 0 00-.371-.066 2.341 2.341 0 00-.462.022c-.198.026-.36.069-.487.127a.76.76 0 00-.282.207.448.448 0 00-.107.255.513.513 0 00.065.273.861.861 0 00.28.302c.122.088.292.158.511.21l.241-.248zM136.11 305.73a.95.95 0 01-.372-.125.554.554 0 01-.207-.2.366.366 0 01-.045-.166.285.285 0 01.046-.16.407.407 0 01.162-.128 1 1 0 01.294-.08.96.96 0 01.491.034c.076.026.154.063.235.113.08.049.168.111.262.186.093.073.188.143.286.209a1.543 1.543 0 00.737.26c.15.017.326.012.528-.015.205-.027.373-.072.502-.133a.798.798 0 00.291-.214.415.415 0 00.092-.259.55.55 0 00-.07-.281.773.773 0 00-.131-.176 1.078 1.078 0 00-.187-.163 1.581 1.581 0 00-.257-.131 1.691 1.691 0 00-.334-.089l-.231.256c.175.024.323.071.443.14.12.069.204.149.252.238.028.053.04.107.037.164a.304.304 0 01-.055.164.522.522 0 01-.171.135.86.86 0 01-.286.082c-.128.017-.237.02-.326.01a.914.914 0 01-.262-.071 1.33 1.33 0 01-.247-.149l-.291-.217a2.734 2.734 0 00-.266-.183 1.608 1.608 0 00-.308-.133 1.868 1.868 0 00-.834-.044c-.197.026-.36.069-.486.127a.744.744 0 00-.282.207.441.441 0 00-.107.255.504.504 0 00.065.273.852.852 0 00.28.302c.122.088.292.158.511.21l.241-.248zM55.353 271.982l.639 1.195c.08.149.188.282.327.399.14.12.305.216.496.288.186.075.403.124.65.147.242.026.51.02.8-.019.394-.053.688-.152.88-.296.187-.143.292-.31.315-.5l.02-.003a.869.869 0 00.32.27c.139.078.303.139.492.183.185.048.388.078.61.09.22.012.447.003.68-.029a2.64 2.64 0 00.771-.207c.2-.093.351-.206.454-.337a.74.74 0 00.163-.434.951.951 0 00-.126-.488l-.63-1.181-6.861.922zm3.098.084l.34.636a.715.715 0 01.084.255.346.346 0 01-.075.228.605.605 0 01-.247.179 1.54 1.54 0 01-.446.118c-.272.036-.53.024-.778-.036-.247-.061-.42-.185-.52-.373l-.393-.734 2.035-.273zm3.198-.43l.366.685a.917.917 0 01.086.239c.014.091 0 .18-.045.266a.704.704 0 01-.257.238c-.121.072-.304.124-.55.157-.407.055-.746.029-1.017-.077-.278-.105-.477-.271-.598-.498l-.37-.69 2.385-.32zM57.204 275.446l4.205-.565c.213-.029.444-.044.692-.046.242-.001.478.019.708.061.23.042.436.11.617.203a.918.918 0 01.403.384c.086.162.098.306.034.433a.838.838 0 01-.332.331 2.265 2.265 0 01-.552.23 4.743 4.743 0 01-.645.134l-4.206.565.25.466 4.35-.584c.4-.054.747-.137 1.04-.25.287-.111.518-.243.693-.395a.956.956 0 00.326-.497.764.764 0 00-.086-.55 1.412 1.412 0 00-.474-.499 2.772 2.772 0 00-.779-.349 4.743 4.743 0 00-.993-.168 5.771 5.771 0 00-1.15.045l-4.35.584.249.467zM64.297 277.837c.297.05.542.132.734.245.187.117.318.245.392.385a.49.49 0 01.06.247.466.466 0 01-.106.249.76.76 0 01-.27.213c-.12.061-.274.104-.461.129-.265.036-.488.021-.668-.045a2.002 2.002 0 01-.518-.269 5.794 5.794 0 01-.49-.372 3.026 3.026 0 00-.586-.358 2.99 2.99 0 00-.786-.228c-.31-.049-.688-.043-1.133.017-.2.027-.403.076-.606.149a1.66 1.66 0 00-.509.292.854.854 0 00-.273.422c-.05.167-.019.353.092.561.1.188.248.36.443.518.195.158.486.28.872.367l.485-.471a1.738 1.738 0 01-.568-.189.863.863 0 01-.36-.342c-.07-.13-.092-.243-.067-.34a.416.416 0 01.152-.24.868.868 0 01.28-.157c.112-.036.22-.061.323-.075.291-.039.536-.027.736.037.2.063.382.15.545.26.164.113.324.238.48.373.156.139.339.26.547.364.203.108.447.188.73.24.278.053.624.052 1.037-.004.33-.044.61-.116.84-.217.232-.097.41-.211.533-.342a.756.756 0 00.214-.435.811.811 0 00-.104-.486 1.713 1.713 0 00-.567-.596 2.586 2.586 0 00-.969-.375l-.454.473zM65.74 280.537c.297.05.541.132.733.245.188.117.319.245.393.385.041.077.061.16.06.247a.46.46 0 01-.107.248.751.751 0 01-.27.214c-.12.061-.273.104-.46.129-.265.036-.488.021-.669-.045a2.003 2.003 0 01-.517-.269 5.81 5.81 0 01-.49-.372 3.075 3.075 0 00-.586-.359 3.027 3.027 0 00-.786-.227c-.31-.049-.688-.043-1.134.017-.2.027-.402.076-.605.149a1.658 1.658 0 00-.509.292.853.853 0 00-.273.422c-.05.166-.019.353.092.561.1.188.248.36.443.518.195.158.486.28.871.367l.486-.471a1.74 1.74 0 01-.569-.189.859.859 0 01-.36-.343c-.068-.129-.09-.242-.066-.339a.416.416 0 01.152-.24.867.867 0 01.28-.157c.112-.036.22-.061.323-.075.29-.039.536-.027.736.037.2.063.382.15.544.26.165.113.325.238.48.373.157.139.34.26.548.364.203.108.446.188.73.24.278.053.624.052 1.037-.004.33-.044.61-.116.84-.217.231-.097.41-.211.533-.342a.756.756 0 00.214-.435.812.812 0 00-.104-.486 1.714 1.714 0 00-.567-.596 2.586 2.586 0 00-.97-.375l-.453.473zM61.702 283.864l.25.466 6.86-.922-.25-.466-6.86.922zM62.425 285.216l.327.612 6.652 1.138.005.009-5.64.758.25.467 6.86-.922-.317-.593-6.662-1.157-.005-.009 5.64-.758-.25-.467-6.86.922zM64.491 289.083l1.187 2.221.872-.117-.938-1.754 2.045-.275.872 1.633.873-.118-.873-1.632 2.2-.296.984 1.842.872-.117-1.233-2.308-6.861.921zM71.56 291.427c.296.05.54.132.733.245.187.117.318.245.392.385a.49.49 0 01.06.247.466.466 0 01-.107.249.76.76 0 01-.27.213c-.12.061-.273.104-.46.129-.265.036-.488.021-.668-.045a2.004 2.004 0 01-.518-.269 5.794 5.794 0 01-.49-.372 3.026 3.026 0 00-.586-.358 2.99 2.99 0 00-.786-.228c-.31-.049-.688-.043-1.134.017-.2.027-.402.076-.605.149a1.66 1.66 0 00-.509.292.854.854 0 00-.273.422c-.05.167-.019.353.092.561.1.188.248.36.443.518.195.158.486.28.872.367l.485-.471a1.738 1.738 0 01-.569-.189.863.863 0 01-.359-.342c-.07-.13-.092-.243-.067-.34a.416.416 0 01.152-.24.868.868 0 01.28-.157c.112-.036.22-.061.323-.075.291-.039.536-.027.736.037.2.063.382.15.544.26.165.113.325.238.48.373.157.139.34.26.548.364.203.108.447.188.73.24.278.053.624.052 1.037-.004.33-.044.61-.116.84-.217.232-.097.41-.211.533-.342a.756.756 0 00.214-.435.812.812 0 00-.104-.486 1.713 1.713 0 00-.567-.596 2.586 2.586 0 00-.969-.375l-.454.473zM73.002 294.127c.297.05.541.132.733.245.188.117.319.245.393.385.041.077.061.16.06.247a.46.46 0 01-.107.248.751.751 0 01-.27.214c-.12.061-.273.104-.46.129-.265.036-.488.021-.669-.045a2.003 2.003 0 01-.517-.269 5.81 5.81 0 01-.49-.372 3.072 3.072 0 00-.586-.359 3.027 3.027 0 00-.786-.227c-.31-.049-.688-.043-1.134.017-.2.027-.402.076-.606.149a1.658 1.658 0 00-.508.292.853.853 0 00-.273.422c-.05.166-.02.353.092.561.1.188.248.36.443.518.195.158.486.28.871.367l.486-.471a1.74 1.74 0 01-.569-.189.859.859 0 01-.36-.343c-.069-.129-.09-.242-.067-.339a.416.416 0 01.153-.24.867.867 0 01.28-.157c.112-.036.22-.061.323-.075.29-.039.536-.027.736.037.2.063.382.15.544.26.165.113.325.238.48.373.157.139.34.26.547.364.204.108.447.188.731.24.278.053.623.052 1.037-.004.33-.044.61-.116.84-.217.231-.097.41-.211.533-.342a.756.756 0 00.214-.435.812.812 0 00-.104-.486 1.714 1.714 0 00-.567-.596 2.586 2.586 0 00-.97-.375l-.453.473zM72.449 301.002a2.444 2.444 0 01-.779-.291c-.215-.131-.365-.275-.45-.434a.67.67 0 01-.06-.56c.059-.174.184-.335.376-.482a2.81 2.81 0 01.754-.378 5.262 5.262 0 011.035-.238c.362-.048.72-.065 1.074-.05.355.015.684.061.988.138.304.077.57.185.797.325.227.14.394.31.501.511.106.197.118.381.036.552-.082.171-.24.328-.476.47l.801.314c.058-.035.137-.094.238-.177.094-.082.181-.186.26-.311.072-.124.115-.269.131-.434.024-.163-.017-.344-.123-.541-.145-.272-.38-.505-.705-.697a4.443 4.443 0 00-1.112-.45 6.777 6.777 0 00-1.32-.197 7.352 7.352 0 00-1.354.052 6.57 6.57 0 00-1.394.327c-.405.149-.728.322-.968.521-.244.203-.398.427-.461.671-.064.245-.024.5.118.766.121.227.327.437.617.63.292.197.656.341 1.093.432l.383-.469zM71.515 302.227l.249.467 5.988-.805.844 1.579.872-.117-1.093-2.045-6.86.921zM73.437 305.826l.226.422 7.648.551-.291-.544-1.88-.117-.875-1.638 1.514-.568-.291-.544-6.05 2.438zm4.798.251l-3.492-.218-.005-.01 2.8-1.074.697 1.302zM80.17 307.541c.297.051.541.132.733.245.188.118.319.246.393.385.041.078.061.16.06.247a.466.466 0 01-.107.249.76.76 0 01-.27.213c-.12.061-.273.105-.46.13-.265.035-.488.02-.669-.046a2.004 2.004 0 01-.517-.269 6.013 6.013 0 01-.49-.371 2.977 2.977 0 00-.586-.359 3.066 3.066 0 00-.786-.228c-.31-.048-.688-.043-1.134.017a3.03 3.03 0 00-.606.149 1.66 1.66 0 00-.508.292.856.856 0 00-.273.423c-.05.166-.019.353.092.56.1.188.248.361.443.519.195.157.486.28.871.367l.486-.472a1.74 1.74 0 01-.569-.189.863.863 0 01-.36-.342c-.068-.13-.09-.243-.066-.34a.411.411 0 01.152-.239.869.869 0 01.28-.158c.112-.035.22-.06.323-.074.29-.039.536-.027.736.036.2.064.382.15.544.26.165.114.325.238.48.373.157.139.34.26.548.364.203.108.446.189.73.241.278.053.623.051 1.037-.004.33-.044.61-.117.84-.217a1.53 1.53 0 00.533-.343.756.756 0 00.214-.435.815.815 0 00-.104-.486 1.712 1.712 0 00-.567-.595 2.552 2.552 0 00-.97-.375l-.453.472zM81.613 310.241c.297.051.541.132.733.245.187.118.318.246.393.385.041.078.061.16.06.247a.466.466 0 01-.107.249.762.762 0 01-.27.213c-.12.061-.273.105-.46.13-.266.035-.488.02-.669-.046a2.002 2.002 0 01-.518-.269 5.996 5.996 0 01-.489-.371 2.978 2.978 0 00-.586-.359 3.066 3.066 0 00-.787-.228c-.31-.048-.687-.043-1.133.017a3.03 3.03 0 00-.606.149 1.658 1.658 0 00-.508.292.857.857 0 00-.273.423c-.05.166-.02.353.091.56.1.188.249.361.444.519.195.157.485.28.871.367l.486-.472a1.738 1.738 0 01-.569-.189.863.863 0 01-.36-.342c-.069-.13-.091-.243-.067-.34a.41.41 0 01.153-.239.868.868 0 01.28-.158c.112-.035.22-.06.323-.074.29-.039.536-.027.736.036.2.064.381.15.544.26.164.114.324.238.48.373.157.139.34.26.547.364.203.108.447.189.731.241.278.053.623.051 1.037-.004.33-.045.609-.117.84-.217.231-.097.409-.212.533-.343a.756.756 0 00.214-.435.815.815 0 00-.104-.486 1.711 1.711 0 00-.567-.595 2.552 2.552 0 00-.97-.375l-.453.472zM83.377 298.815l-.247-.462 18.257-2.453.247.462-18.257 2.453zM84.033 300.043l-.247-.462 18.257-2.453.247.462-18.257 2.453zM85.237 302.296l-.672-1.259 18.256-2.453.672 1.259-18.256 2.453zM84.265 300.476l-.124-.231 18.257-2.453.123.231-18.256 2.453zM84.482 300.883l-.123-.231 18.256-2.453.124.231-18.257 2.453zM83.605 299.241l-.093-.173 18.257-2.453.092.173-18.256 2.453zM89.017 309.369l-.247-.462 18.256-2.453.247.462-18.256 2.453zM89.245 309.795l-.093-.173 18.256-2.453.093.173-18.256 2.453zM85.649 303.066l-.247-.462 18.256-2.453.247.462-18.256 2.453zM86.305 304.294l-.247-.462 18.256-2.453.247.462-18.256 2.453zM87.509 306.547l-.673-1.259 18.257-2.453.672 1.259-18.256 2.453zM86.536 304.727l-.123-.231 18.256-2.453.124.231-18.257 2.453zM86.754 305.134l-.124-.231 18.257-2.453.123.231-18.256 2.453zM88.681 308.741l-.672-1.259 18.256-2.453.673 1.259-18.257 2.453zM87.709 306.921l-.124-.231 18.256-2.453.124.231-18.256 2.453zM87.926 307.328l-.123-.231 18.256-2.453.124.231-18.257 2.453zM85.877 303.492l-.093-.173 18.256-2.453.093.173-18.256 2.453zM77.084 287.037l-.247-.462 18.256-2.453.247.462-18.256 2.453zM77.74 288.265l-.247-.462 18.256-2.453.247.462-18.256 2.453zM78.944 290.518l-.673-1.259 18.257-2.453.672 1.259-18.256 2.453zM77.971 288.698l-.124-.231 18.257-2.453.123.231-18.256 2.453zM78.189 289.105l-.124-.231 18.256-2.453.124.231-18.256 2.453zM77.311 287.463l-.092-.173 18.256-2.453.093.173-18.257 2.453zM82.723 297.591l-.247-.462 18.257-2.453.247.463-18.257 2.452zM82.951 298.017l-.092-.173 18.256-2.453.092.174-18.256 2.452zM79.355 291.288l-.247-.462 18.257-2.453.247.462-18.257 2.453zM80.011 292.516l-.246-.462 18.256-2.453.247.462-18.257 2.453zM81.215 294.769l-.672-1.258 18.256-2.453.673 1.258-18.257 2.453zM80.243 292.949l-.124-.231 18.257-2.453.123.231-18.256 2.453zM80.46 293.356l-.123-.231 18.256-2.453.124.231-18.257 2.453zM82.388 296.963l-.673-1.259 18.257-2.453.672 1.259-18.256 2.453zM81.415 295.143l-.124-.231 18.257-2.453.123.231-18.256 2.453zM81.632 295.55l-.123-.231 18.256-2.453.124.231-18.257 2.453zM79.583 291.715l-.093-.174 18.257-2.453.092.174-18.256 2.453z" fill="#DADADA"/><path d="M126.468 285.959l-54.699 7.35c-4.314.579-8.71-.632-9.818-2.707l-33.74-63.141c-1.108-2.075 1.49-4.226 5.804-4.806l54.7-7.349c4.313-.58 8.709.632 9.817 2.706l33.74 63.142c1.109 2.074-1.49 4.226-5.804 4.805z" fill="#DADADA"/><path d="M71.822 293.302a16.539 16.539 0 01-3.143.116 14.503 14.503 0 01-2.969-.474c-.912-.251-1.708-.588-2.344-.991-.636-.403-1.1-.864-1.363-1.358l-33.74-63.141c-.264-.493-.323-1.009-.174-1.517.15-.509.504-1 1.043-1.447.538-.446 1.252-.838 2.099-1.154.846-.316 1.81-.55 2.836-.688l5.442-.731 37.754 70.654-5.442.731zM88.732 215.303a16.54 16.54 0 013.142-.115c1.049.061 2.058.222 2.97.473.912.252 1.708.588 2.344.991.636.403 1.1.865 1.363 1.358l33.74 63.141c.263.494.322 1.009.173 1.518-.149.508-.503 1-1.042 1.446-.539.446-1.252.838-2.099 1.154-.847.317-1.811.55-2.836.688l-5.442.731-37.755-70.653 5.442-.732zM72.168 277.675l-.238-.445 18.257-2.453.237.445-18.256 2.453zM72.8 278.856l-.238-.445 18.256-2.453.238.445-18.257 2.453zM73.957 281.024l-.647-1.211 18.257-2.453.647 1.211-18.257 2.453zM73.022 279.273l-.119-.223 18.256-2.453.12.223-18.257 2.453zM73.231 279.664l-.119-.222 18.257-2.453.119.222-18.257 2.453zM72.387 278.085l-.09-.167 18.257-2.453.09.167-18.257 2.453zM77.595 287.83l-.238-.444 18.257-2.453.237.444-18.256 2.453zM77.814 288.24l-.09-.166 18.257-2.453.09.166-18.257 2.453zM74.354 281.765l-.238-.444 18.257-2.453.237.444-18.256 2.453zM74.985 282.947l-.238-.445 18.257-2.453.237.445-18.256 2.453zM76.143 285.115l-.647-1.211 18.257-2.453.647 1.211-18.257 2.453zM75.208 283.363l-.119-.222 18.257-2.453.118.222-18.256 2.453zM75.417 283.755l-.119-.222 18.257-2.453.119.222-18.257 2.453zM77.272 287.226l-.647-1.211 18.256-2.453.647 1.211-18.256 2.453zM76.336 285.474l-.119-.222 18.256-2.453.12.222-18.257 2.453zM76.545 285.866l-.119-.222 18.257-2.453.118.222-18.256 2.453zM74.573 282.175l-.09-.166 18.257-2.453.09.166-18.257 2.453zM66.112 266.342l-.238-.445 18.257-2.453.237.445-18.256 2.453zM66.743 267.523l-.237-.445 18.256-2.452.238.444-18.257 2.453zM67.902 269.691l-.648-1.211 18.257-2.453.647 1.211-18.256 2.453zM66.966 267.94l-.119-.223 18.257-2.453.119.223-18.257 2.453zM67.175 268.332l-.118-.223 18.256-2.453.119.223-18.257 2.453zM66.331 266.752l-.089-.167 18.257-2.453.089.167-18.257 2.453zM71.539 276.497l-.238-.444 18.256-2.453.238.445-18.256 2.452zM71.758 276.907l-.089-.166 18.257-2.453.089.166-18.257 2.453zM68.298 270.432l-.237-.444 18.256-2.453.238.444-18.257 2.453zM68.93 271.614l-.238-.445 18.256-2.453.238.445-18.257 2.453zM70.088 273.782l-.647-1.211 18.256-2.453.647 1.211-18.256 2.453zM69.152 272.031l-.119-.223 18.257-2.453.119.223-18.257 2.453zM69.362 272.422l-.12-.222 18.257-2.453.119.222-18.256 2.453zM71.216 275.893l-.647-1.211 18.256-2.453.647 1.211-18.256 2.453zM70.28 274.142l-.119-.223 18.257-2.453.118.223-18.256 2.453zM70.489 274.533l-.119-.223 18.256-2.452.12.222-18.257 2.453zM68.517 270.843l-.089-.167 18.257-2.453.089.167-18.257 2.453zM70.564 233.189l-.238-.444 18.256-2.453.238.445-18.256 2.452zM71.195 234.371l-.237-.445 18.256-2.453.238.445-18.257 2.453zM72.353 236.539l-.647-1.211 18.256-2.453.648 1.211-18.257 2.453zM71.418 234.788l-.12-.223 18.257-2.453.12.223-18.257 2.453zM71.627 235.179l-.119-.222 18.257-2.453.118.222-18.256 2.453zM70.783 233.599l-.09-.166 18.257-2.453.09.166-18.257 2.453zM75.99 243.345l-.237-.445 18.256-2.453.238.445-18.256 2.453zM76.21 243.755l-.09-.167 18.257-2.453.09.167-18.257 2.453zM72.75 237.28l-.238-.445 18.256-2.453.238.445-18.256 2.453zM73.38 238.462l-.237-.445 18.257-2.453.237.445-18.256 2.453zM74.54 240.629l-.648-1.211 18.257-2.453.647 1.211-18.257 2.453zM73.604 238.878l-.12-.222 18.257-2.453.12.222-18.257 2.453zM73.813 239.27l-.119-.223 18.257-2.452.118.222-18.256 2.453zM75.668 242.74l-.648-1.211 18.257-2.453.647 1.211-18.256 2.453zM74.732 240.989l-.12-.222 18.257-2.453.119.222-18.256 2.453zM74.94 241.381l-.118-.223 18.256-2.453.12.223-18.257 2.453zM72.969 237.69l-.09-.167 18.257-2.453.09.167-18.257 2.453zM64.508 221.856l-.238-.444 18.256-2.453.238.445-18.256 2.452zM65.14 223.038l-.239-.445 18.257-2.453.237.445-18.256 2.453zM66.297 225.206l-.647-1.211 18.257-2.453.647 1.211-18.257 2.453zM65.362 223.455l-.119-.223 18.257-2.453.118.223-18.256 2.453zM65.571 223.846l-.119-.222 18.257-2.453.119.222-18.257 2.453zM64.727 222.266l-.09-.166 18.257-2.453.09.167-18.257 2.452zM69.934 232.012l-.237-.445 18.256-2.453.238.445-18.257 2.453zM70.154 232.422l-.09-.167 18.257-2.452.09.166-18.257 2.453zM66.694 225.947l-.238-.445 18.257-2.453.238.445-18.257 2.453zM67.325 227.129l-.238-.445 18.257-2.453.238.445-18.257 2.453zM68.484 229.297l-.648-1.211 18.257-2.453.647 1.211-18.256 2.453zM67.548 227.545l-.119-.222 18.257-2.453.118.222-18.256 2.453zM67.757 227.937l-.119-.222 18.257-2.453.119.222-18.257 2.453zM69.611 231.408l-.647-1.211 18.257-2.453.647 1.211-18.257 2.453zM68.676 229.656l-.119-.222 18.257-2.453.118.222-18.256 2.453zM68.885 230.048l-.12-.223 18.257-2.453.12.223-18.257 2.453zM66.913 226.357l-.089-.166 18.256-2.453.09.166-18.257 2.453z" fill="#DADADA"/><path d="M129.531 287.752l-90.328 12.136c-2.082.28-4.224-.342-4.784-1.39L1.135 236.21c-.56-1.048.674-2.124 2.757-2.404l90.328-12.137c2.082-.279 4.224.343 4.784 1.391l33.284 62.288c.56 1.048-.674 2.124-2.757 2.404z" fill="#DADADA"/><path d="M125.023 286.502l-83.162 11.173c-2.193.295-4.449-.36-5.039-1.464L5.496 237.587c-.59-1.103.71-2.236 2.904-2.531l83.162-11.174c2.193-.294 4.45.361 5.039 1.464l31.326 58.624c.589 1.104-.711 2.237-2.904 2.532z" fill="#DADADA"/><path d="M94.192 250.551c-.628-1.18-1.52-2.319-2.659-3.398 0-.001-.001-.003-.004-.003l.001-.001v-.001-.001h-.002c-1.612-1.524-3.703-2.908-6.192-4.097-3.98-1.907-8.867-3.269-14.191-3.953a62.927 62.927 0 00-17.483.227c-5.22.818-9.932 2.295-13.691 4.289-3.76 1.995-6.44 4.441-7.784 7.105v.001c-1.354 2.674-1.313 5.48.121 8.146.1.187.207.373.319.557 2.358 3.854 7.502 7.126 14.415 9.171 6.914 2.045 15.097 2.714 22.934 1.875a56.575 56.575 0 001.594-.193c1.86-.249 3.67-.582 5.411-.994 6.423-1.524 11.651-4.08 14.862-7.265 3.21-3.185 4.221-6.819 2.872-10.329-.147-.38-.32-.758-.523-1.136z" fill="#DADADA"/><path d="M91.534 247.152c0-.001-.002-.003-.004-.003l-.001-.003c-1.612-1.524-3.703-2.907-6.192-4.096-3.69-1.766-8.16-3.066-13.041-3.794-.65.551-.48 1.343 1.532 1.926 3.5 1.018 2.424 2.154 3.218 3.907.794 1.754-5.672-.849-7.268 1.1 0 0-6.407 2.169-2.333 5.183 4.073 3.014 10.237 2.557 12.227 1.669 1.99-.887 4.542 1.121 6.33-.604 1.788-1.725.999-3.533 3.481-4.025 2.483-.491 2.95 1.305 2.483-.491a2.175 2.175 0 00-.432-.769zM53.668 242.881c-.58-1.085-1.16-2.171-3.925-2.058-.653.022-1.299-.08-1.81-.286-2.938.8-5.606 1.828-7.905 3.046.153.217.323.442.504.675.82 1.053-1.026 3.369-2.807 5.805-1.524 2.084 3.112 2.552 3.315 5.241.072.961-.241 1.169-.13 2.769.03.43.316 1.441.89 3.462.294 1.037.416 1.355.898 1.471 1.286.309 3.479-.791 3.497-1.416.029-.908 2.086-2.347.25-1.455-.693.337-1.214.488-1.637.494-.92.012-1.653-.832-1.88-1.095-.389-.448-1.206-1.39-.404-2.166.68-.657 2.132-.818 2.118-1.431.032-.134-.015-.271-.137-.392-1.157-1.206-.61-1.141 2.342-2.83 2.951-1.69 2.638-3.716 3.627-4.753.988-1.037 1.4-1.223 4.605-2.439 3.204-1.217-.83-1.557-1.41-2.642zM76.981 269.281c-.422-.384-.974-.638-1.652-.433-1.728.52-6.087-1.377-9.112-1.195-3.025.182-1.841 1.145-3.17 1.997-1.329.852-3.001-.607-3.712-1.522-.71-.914-3.48.581-4.18-.728-.7-1.309-2.587-1.503-4.82-1.091-2.233.411-10.585-2.281-10.585-2.281-1.68-.502-2.047-.07-2.06.381 3.685 2.448 8.679 4.319 14.397 5.392 5.719 1.073 11.924 1.305 17.89.667a60.47 60.47 0 001.594-.192 55.8 55.8 0 005.41-.995zM94.715 251.687a4.814 4.814 0 00-.976-.526c-2.245-.907-3.009 1.854-3.79 3.085-.783 1.232-1.091.952-3.271 1.486-2.18.534-3.38 1.34-3.533 2.25-.153.91-2.472.167-5.344-.815-2.872-.983-2.547.422-3.121 1.144-.574.722 2.44.074 2.444.798.004.724 3.497.738 4.256 1.601.759.863-.2 2.281 1.891 2 2.09-.281 1.946.946.923 1.728-.98.748-1.69 2.272-1.397 3.059 4.706-1.819 8.312-4.26 10.416-7.052 2.105-2.792 2.625-5.823 1.502-8.758zM50.026 283.614l3.058-.411c.426-.058.819-.131 1.178-.221s.652-.202.88-.337c.236-.132.392-.29.468-.475.085-.183.063-.396-.068-.641a1.447 1.447 0 00-.557-.575 2.607 2.607 0 00-.848-.305 5.251 5.251 0 00-1.077-.08c-.393.011-.807.045-1.24.104l-1.327.178-.86-1.609-1.813.243 2.206 4.129zm.879-1.993l1.21-.163c.162-.022.321-.035.477-.039.163-.005.312.002.447.021.145.022.269.06.372.113a.537.537 0 01.247.229c.056.105.05.195-.017.271a.661.661 0 01-.291.201 2.185 2.185 0 01-.466.132c-.18.036-.355.066-.526.089l-.93.125-.523-.979zM59.196 282.381l1.5-.201 1.376-4.61-2.047.275-.242.97-3.197.43-1.154-.782-2 .268 5.764 3.65zm.056-1.295l-1.686-1.148 2.012-.27-.326 1.418zM68.636 280.032c-.097.113-.262.208-.495.285a3.268 3.268 0 01-1.092.197 2.993 2.993 0 01-.435-.023 1.311 1.311 0 01-.371-.088.418.418 0 01-.222-.182c-.067-.125-.025-.232.126-.323a3.05 3.05 0 01.607-.263c.262-.085.543-.173.844-.264.3-.09.568-.197.801-.32.241-.124.416-.27.526-.439.109-.169.099-.374-.03-.615a1.426 1.426 0 00-.576-.566 3.17 3.17 0 00-.926-.332 5.7 5.7 0 00-1.145-.115 8.954 8.954 0 00-1.253.081c-.535.072-1.01.18-1.423.323-.414.143-.77.332-1.067.568l1.67.538c.12-.15.3-.278.542-.385.252-.105.529-.178.831-.218.147-.02.299-.032.454-.036.166-.002.316.007.451.027.143.018.264.05.362.095.107.044.18.103.22.176.066.125.021.235-.135.331-.147.099-.35.193-.61.282a34.2 34.2 0 01-.85.277c-.305.095-.58.205-.82.329a1.48 1.48 0 00-.54.435c-.112.165-.106.362.016.591.119.222.308.405.568.549.267.143.575.252.922.326.355.073.736.111 1.145.115.411.007.818-.016 1.222-.071a7.861 7.861 0 001.295-.28 3.21 3.21 0 00.997-.49l-1.609-.515zM75.314 279.135c-.098.113-.263.208-.496.285a3.27 3.27 0 01-1.091.197 2.993 2.993 0 01-.436-.023 1.31 1.31 0 01-.371-.088.422.422 0 01-.222-.182c-.067-.125-.025-.232.126-.324a3.05 3.05 0 01.607-.262c.262-.086.544-.173.844-.264.3-.09.568-.197.801-.32.241-.124.417-.27.526-.439.109-.169.1-.374-.03-.615a1.428 1.428 0 00-.576-.566 3.172 3.172 0 00-.926-.332 5.699 5.699 0 00-1.145-.115 8.953 8.953 0 00-1.253.081 7.39 7.39 0 00-1.423.322c-.414.144-.77.333-1.067.569l1.67.538c.12-.15.3-.278.542-.386.252-.104.529-.177.831-.217.148-.02.299-.032.455-.036.165-.002.315.007.45.027.143.018.264.05.363.095.106.044.18.102.219.176.066.125.021.235-.135.331-.147.099-.35.193-.61.282-.26.089-.543.181-.85.276-.306.096-.58.205-.82.329-.242.125-.422.27-.54.436-.112.164-.106.362.016.591.119.222.308.404.568.549.267.143.575.252.922.326.355.073.736.111 1.145.115a8.14 8.14 0 001.221-.071 7.861 7.861 0 001.296-.28 3.23 3.23 0 00.997-.49l-1.608-.515zM78.46 279.793l3.058-.411c.426-.057.819-.131 1.178-.221.36-.09.652-.202.88-.336.236-.132.393-.291.468-.476.086-.182.063-.396-.068-.641a1.454 1.454 0 00-.557-.575 2.63 2.63 0 00-.848-.305 5.396 5.396 0 00-1.077-.08c-.393.011-.807.046-1.24.104l-1.326.178-.86-1.609-1.814.244 2.206 4.128zm.879-1.993l1.21-.162c.162-.022.321-.035.477-.04.163-.005.312.002.447.022.145.022.27.059.372.112a.542.542 0 01.247.229c.056.105.05.196-.017.271a.66.66 0 01-.291.202 2.13 2.13 0 01-.466.131c-.18.037-.355.067-.525.09l-.93.125-.524-.98zM84.24 276.804c.176.331.444.615.805.854.368.238.8.424 1.294.558.498.137 1.044.22 1.641.248.597.028 1.217-.001 1.86-.088a8.398 8.398 0 001.698-.39c.489-.174.88-.383 1.174-.626.295-.24.48-.509.554-.806.081-.299.034-.613-.143-.943-.177-.331-.449-.615-.817-.853a4.48 4.48 0 00-1.286-.565 7.704 7.704 0 00-1.638-.242 10.365 10.365 0 00-1.86.087 8.463 8.463 0 00-1.698.391c-.489.174-.88.381-1.176.621-.294.243-.482.514-.563.813-.074.297-.022.611.154.941zm1.883-.253a.876.876 0 01-.112-.56.96.96 0 01.299-.49c.162-.147.38-.274.656-.382a4.508 4.508 0 011.005-.241 5.363 5.363 0 011.1-.041c.352.023.672.078.96.164.289.091.534.208.736.351.21.147.368.317.472.512a.81.81 0 01.098.555.84.84 0 01-.288.489c-.16.151-.381.28-.664.389a4.296 4.296 0 01-.994.24 5.61 5.61 0 01-1.11.043 4.226 4.226 0 01-.953-.172 2.639 2.639 0 01-.747-.35 1.5 1.5 0 01-.458-.507zM95.459 277.509l3.186-.428a9.258 9.258 0 001.152-.224c.359-.089.652-.202.879-.336.237-.132.393-.291.469-.476.085-.182.064-.394-.065-.635-.156-.291-.44-.52-.852-.685-.41-.162-.921-.231-1.532-.207l1.162-2.025-2.175.293-.839 1.881-.895.12-.882-1.65-1.814.244 2.206 4.128zm.901-1.952l1.07-.144c.163-.022.334-.043.514-.063.19-.017.367-.022.529-.014.163.011.309.041.435.091a.514.514 0 01.291.242c.056.105.058.194.006.268a.568.568 0 01-.25.184 1.999 1.999 0 01-.417.131 7.137 7.137 0 01-.49.084l-1.186.16-.502-.939zM103.958 275.505l-2.349.315.43.805 6.511-.875-.43-.805-2.348.316-1.776-3.324-1.814.244 1.776 3.324z" fill="#DADADA"/></svg>