<svg xmlns="http://www.w3.org/2000/svg" viewBox="0 0 205.29 233.1"><defs><style>.cls-1{fill:#ed8d7c;}.cls-2{fill:#fad07d;}</style></defs><g id="Layer_2" data-name="Layer 2"><g id="Layer_1-2" data-name="Layer 1"><path class="cls-1" d="M9,188.72l-9,29S105.1,280,186.91,153.86Z"/><path class="cls-2" d="M165.59,3.59c48.19,38.78,53.21,112.52,11.21,164.7S61.7,231.34,13.52,192.56Q11.2,190.69,9,188.72L160.87,0C162.46,1.15,164,2.34,165.59,3.59Z"/><path class="cls-1" d="M80.54,108.05s-61,70.29-53,77,30.38,19.69,38.48,7S86.09,113.27,80.54,108.05Z"/><path class="cls-1" d="M88.32,110.27s-12.61,84.85-2.18,86.17,36.16.44,36-13.46S95.81,111.61,88.32,110.27Z"/><path class="cls-1" d="M96.06,107.93s34.71,77.13,44.19,72.6S170.94,161.4,163.37,150,103.09,105,96.06,107.93Z"/><path class="cls-1" d="M141.72,23.8a83.41,83.41,0,0,1,8.94,8.49c7,7.85-48,53.57-48,53.57-1.24-1.51-1.39-6.21-.8-12.52Z"/><path class="cls-1" d="M98.31,101.43s75.34,38.43,79.9,29,12-34.13-1.09-38.3S102,94.75,98.31,101.43Z"/><path class="cls-1" d="M106,88.36S163.33,39,169.18,46.08s17.21,26.56,6.76,33S110.45,93.27,106,88.36Z"/></g></g></svg>