<svg width="248" height="184" viewBox="0 0 248 184" fill="none" xmlns="http://www.w3.org/2000/svg">
<path d="M37.0075 4.25201L6.9185 0C6.9185 0 -37.7295 113.688 99.8185 174.319L37.0075 4.25201Z" fill="#ED8D7C"/>
<path d="M244.76 129.292C214.171 183.048 142.175 199.771 83.9605 166.643C25.7465 133.515 3.3505 63.08 33.9395 9.32495C34.9245 7.59395 35.9565 5.90098 37.0135 4.25098L247.552 124.058C246.674 125.811 245.744 127.562 244.76 129.292Z" fill="#FAD07D"/>
<path d="M128.065 61.9973C128.065 61.9973 48.9385 12.9613 43.5575 21.9843C38.1765 31.0073 28.9705 55.1163 42.8065 61.0843C56.6425 67.0523 123.802 68.3113 128.065 61.9973Z" fill="#ED8D7C"/>
<path d="M127.119 70.0303C127.119 70.0303 41.3395 71.1302 41.7045 81.6302C42.0695 92.1302 47.0405 117.406 60.7335 115.015C74.4265 112.624 126.987 77.6413 127.119 70.0303Z" fill="#ED8D7C"/>
<path d="M130.661 77.3018C130.661 77.3018 60.0615 123.872 66.0425 132.508C72.0235 141.144 89.8255 159.756 99.8965 150.459C109.968 141.162 134.669 83.7728 130.661 77.3018Z" fill="#ED8D7C"/>
<path d="M221 108.949C218.937 112.51 216.613 115.912 214.047 119.13C207.41 127.27 153.5 80.281 153.5 80.281C154.791 78.824 159.412 77.924 165.73 77.498L221 108.949Z" fill="#ED8D7C"/>
<path d="M137.437 78.4868C137.437 78.4868 111.521 158.996 121.592 161.987C131.663 164.978 157.192 168.354 159.23 154.8C161.268 141.246 144.612 81.0258 137.437 78.4868Z" fill="#ED8D7C"/>
<path d="M151.561 83.939C151.561 83.939 209.461 132.706 203.392 139.609C197.323 146.512 179.913 160.839 171.899 151.556C163.885 142.273 147.43 89.165 151.561 83.939Z" fill="#ED8D7C"/>
</svg>
