<svg width="374" height="77" viewBox="0 0 374 77" fill="none" xmlns="http://www.w3.org/2000/svg">
<path d="M0 76.9973H373.191C373.191 76.9973 382.357 73.6418 338.983 72.8024C295.608 71.963 291.396 70.2869 290.554 69.0292C289.712 67.7714 288.869 53.5079 266.971 53.9276C245.073 54.3473 237.072 65.4592 237.072 65.4592C237.072 65.4592 229.071 70.2783 224.017 65.4592C218.963 60.64 187.799 50.1338 166.745 53.9183C166.745 53.9183 167.167 45.1181 149.901 45.9575C149.901 45.9575 148.216 36.7289 130.529 37.9873C130.529 37.9873 120.423 28.5211 109.894 37.8688C109.894 37.8688 100.746 25.6058 77.9105 32.4062C77.9105 32.4062 72.4612 30.4474 80.0663 26.841C87.6713 23.2346 79.7041 13.497 67.3948 14.9394C55.0854 16.3818 49.6514 18.1831 41.328 9.89054C33.0046 1.59801 13.3401 -3.09207 0 2.31757V76.9973Z" fill="#EF525B"/>
</svg>
