<svg xmlns="http://www.w3.org/2000/svg" xmlns:xlink="http://www.w3.org/1999/xlink" viewBox="0 0 71.5 71.5"><defs><style>.cls-1{fill:none;}.cls-2{clip-path:url(#clip-path);}.cls-3{fill:#7d5794;}.cls-4{fill:#fff;}.cls-5{fill:#86d0d1;}</style><clipPath id="clip-path" transform="translate(-2.32 -1.37)"><rect class="cls-1" x="2" y="20.02" width="71.18" height="35.15" transform="translate(-15.57 37.59) rotate(-45)"/></clipPath></defs><g id="Layer_2" data-name="Layer 2"><g id="Layer_1-2" data-name="Layer 1"><g class="cls-2"><path class="cls-3" d="M51.7,1.37A45.68,45.68,0,0,0,38.57,12c-3.5,4.13-6.92,8.29-6.48,13.75a13.08,13.08,0,0,0,1.76,5.5,7,7,0,0,1,1.38,4.64,6.6,6.6,0,0,1-1.82,3.69C31,42.3,23.9,49.47,14.17,58.84a3.15,3.15,0,0,1-1.89,1,2.81,2.81,0,0,1-1.65-.39h0c-8.17-8.18-8.31-6.77-8.31-6.77L12.43,62.76,62.76,12.43Z" transform="translate(-2.32 -1.37)"/><path class="cls-3" d="M73.82,23.49A45.68,45.68,0,0,1,63.21,36.62c-4.13,3.5-8.29,6.92-13.75,6.48A13.08,13.08,0,0,1,44,41.34,7,7,0,0,0,39.32,40a6.68,6.68,0,0,0-3.7,1.83c-2.74,2.44-9.9,9.51-19.27,19.24a3.07,3.07,0,0,0-1,1.89,2.83,2.83,0,0,0,.39,1.65h0c8.18,8.16,6.77,8.31,6.77,8.31L12.43,62.76,62.76,12.43Z" transform="translate(-2.32 -1.37)"/><path class="cls-4" d="M72.33,22A47,47,0,0,1,62.9,33.92c-4,3.6-9,8.17-14.54,6.9A9.18,9.18,0,0,1,46,39.89a18.67,18.67,0,0,1-2.58-1.72c-.92-.71-2.13-1.69-3.49-3S37.7,32.71,37,31.82a18.67,18.67,0,0,1-1.72-2.58,9.57,9.57,0,0,1-.94-2.41c-1.26-5.53,3.31-10.57,6.91-14.54A47,47,0,0,1,53.19,2.86Z" transform="translate(-2.32 -1.37)"/><path class="cls-5" d="M63.25,33.64c-.11.1-.22.21-.33.3-4,3.6-9,8.18-14.53,6.91A9,9,0,0,1,46,39.91a17.91,17.91,0,0,1-2.59-1.72c-.92-.71-2.12-1.69-3.48-2.95s-2.18-2.51-2.86-3.39a18.47,18.47,0,0,1-1.72-2.59,9.21,9.21,0,0,1-.94-2.41,9.4,9.4,0,0,1,.51-5.57A14.36,14.36,0,0,1,43,26c5.28,6.12,8.68,8.67,12.91,7.51a14.49,14.49,0,0,1,7.31.11Z" transform="translate(-2.32 -1.37)"/></g></g></g></svg>