<svg xmlns="http://www.w3.org/2000/svg" viewBox="0 0 460.82 488.92"><defs><style>.cls-1{fill:#424a9f;}.cls-2{fill:#f8a593;}</style></defs><g id="Layer_2" data-name="Layer 2"><g id="Layer_1-2" data-name="Layer 1"><path class="cls-1" d="M184.21,137.29c-5.51,3.49-8.88,5.77-8.88,5.77a62.51,62.51,0,0,0,8.88-5.77Z"/><path class="cls-1" d="M362.64,290.1s3.2-11.22,5.69-24.94C362.05,280.12,362.64,290.1,362.64,290.1Z"/><path class="cls-1" d="M368.33,265.17c4.06-22.4,6.24-51.47-10.46-49.33a91.15,91.15,0,0,1,7-23l0,0c3.27-7.09,7.95-14.58,14.56-20.47,8.76-7.79,13-13.46,15-17.25a374.39,374.39,0,0,1-57.55,46.34c-11.64,7.68-23.18,14.46-34.23,20.37-5,2.71-10,5.24-14.76,7.58,0,0-7.67,5.31-16.41,12.52-10.6,8.76-22.77,20.31-24.64,28.53-3.42,15-37.47,40.81-58.69,44.49,0,0,33.63-21.65,16.59-40.54,0,0,13.61-2.9,23.36-12.64a32.88,32.88,0,0,0,7.46-11.26c-7.37,2.17-12.55,3.21-14.79,3.11-14-.68-45.37,22.66-48.71,42-7.23,61.84-66.71,112.07-90.72,120.08C58,423.46,4.15,485.78,1.44,488.92c51.94-70.69,58.61-138.64,58.61-138.64,85.39-42.7,86.7-80.06,86.7-80.06-50.68,10.67-80,50.7-80,50.7C24,312.91,0,354.28,0,354.28c28.68-78,86.72-104.07,158.61-114.57,19.28-2.82,38.72-13.76,56.89-28.56-38.6-18.64-64.89,16.22-64.89,16.22-1.61-13.32-41.75-6.13-41.75-6.13s30-40.37,72.46-30.26,73.3-18.95,73.35-19c4.89-5.79,9.55-11.62,13.92-17.36,1.75-2.29,3.44-4.59,5.1-6.84h0c19.8-27.08,32.88-51.15,34.5-57.66a32.48,32.48,0,0,1,3.33-7.73c-21.11-7.08-34.35,27.44-34.35,27.44-7.16-24.1-69.51,12.61-93,27.45,9.12-6.85,23.59-20.39,35.12-43.46,18.31-36.6,115-41.14,115-41.13,3.83-4.25,7.14-7.74,9.16-9.83l2.08-2.11s8-21.34,30.69-24c9.25-1.1,21.61-5.74,34-9.86,18-6,36-10.86,44.75-2.16,14.66,14.67,0,121.41-24.69,107.39q-3.82,5.67-7.91,11.08s4.52,72.23-28.47,105.23C380.37,242,372.7,254.77,368.33,265.17Z"/><path class="cls-2" d="M392.32,60.93c-11.67,2.77-13.58-4-22.71,3.42s-16.29-6.69-10.87-13.25-2.83-6.27-5.14-5-1.26-10.11-7-5.17a14.82,14.82,0,0,1-3.13,1.93c1.32-1.35,2.08-2.11,2.08-2.11s8-21.34,30.69-24c9.24-1.09,21.61-5.73,34-9.86a9.41,9.41,0,0,1-2.39,2.32c-10.58,7-1.83,7.61-2.38,12.12s4.33,9-2.12,12.56S404,58.12,392.32,60.93Z"/><path class="cls-2" d="M302.7,221.77c-5,2.71-10,5.24-14.75,7.58,0,0-7.68,5.31-16.42,12.52-1.6-2-3.42-3.42-4.87-2.35-3.35,2.48-10.94-5.41-9.39-8.08s-2.11-10.58-9-11c-1.32-.07-2-.46-2.21-1.06-1-2.45,4.65-8.58-1.77-12.53l-.58-.34c-9.12-4.87-7.07-9.73,1.59-9.49,5.3.16,5.53,2.42,6.82,3.95.79,1,2,1.67,5.19,1.36,8.18-.8,1.55,4.88,7.49,3.22,5.52-1.53-1.17-4.66,7.43-3.73.66.06,1.43.16,2.3.28,12,1.72,9.36-3.42,12.29,4.56s6,13.65,9.8,12.28C299.8,217.83,299.24,221.12,302.7,221.77Z"/><path class="cls-2" d="M387.88,76.93a1018.7,1018.7,0,0,1-73.42,72.65A1021.31,1021.31,0,0,1,173,255.47a427.39,427.39,0,0,0,71.14-34.87C317.9,175.49,362.76,117,387.88,76.93Z"/><path class="cls-2" d="M364.89,192.78c3.27-7.09,7.95-14.58,14.56-20.47,8.76-7.79,13-13.46,15-17.25a374.39,374.39,0,0,1-57.55,46.34c.23-7.61,13.59-20.15,11-23.5-3.35-4.22,3.56-8.17,10.92-15.9s-17.21-20.6,1.75-16.2,4.89,1.49,28.47-3.41S404,156.59,404,156.59,383.14,178,364.89,192.78Z"/><path class="cls-2" d="M383.84,124.34s-7.31,5.95-2.25,9,15-7.21,18.48-3.77,7.15-8.37.41-8.37S392.16,131.53,383.84,124.34Z"/><path class="cls-2" d="M283.61,153.67c-1.8-3.24-9.61-1-15,1,1.75-2.29,3.44-4.59,5.1-6.84h0c4.07-2.93,8.42-5.21,11.19-4.19C291.38,146,286.39,158.74,283.61,153.67Z"/><path class="cls-2" d="M333,80s12.36-10.94,20.12,1.06-.51,1.23-7,3.09S333,80,333,80Z"/></g></g></svg>