<svg xmlns="http://www.w3.org/2000/svg" viewBox="0 0 663.08 241.83"><defs><style>.cls-1{fill:#dc3948;}.cls-2{fill:#1a4394;}</style></defs><g id="Layer_2" data-name="Layer 2"><g id="Layer_1-2" data-name="Layer 1"><path class="cls-1" d="M377.88,7.61c-6.36-1.43-10.36-2.2-10.36-2.2a63,63,0,0,0,10.36,2.2Z"/><path class="cls-1" d="M396,241.83s10.19-5.67,21.65-13.61C402.63,234.35,396,241.83,396,241.83Z"/><path class="cls-1" d="M417.64,228.23c18.71-13,40.81-32,27.49-42.28a90.51,90.51,0,0,1,21.23-11.34h0c7.33-2.7,15.93-4.69,24.77-4.18,11.7.69,18.7-.34,22.82-1.57a374,374,0,0,1-73.46-7.93c-13.66-2.8-26.61-6.17-38.61-9.8-5.46-1.64-10.75-3.35-15.79-5.07,0,0-9.18-1.68-20.46-2.75-13.69-1.3-30.46-1.75-37.6,2.75-13,8.19-55.34,2.36-72.95-10.05,0,0,39.08,8.48,40.39-16.93,0,0,11.68,7.57,25.46,7.57A32.75,32.75,0,0,0,334.21,124c-6.75-3.69-11.14-6.61-12.66-8.27-9.42-10.38-48.1-16-64.16-4.72C208.55,149.6,131,143.06,108.33,131.75,86.26,120.7,4.14,126.71,0,127c86.71-13.25,139.47-56.59,139.47-56.59,90.58,30.19,117.92,4.7,117.92,4.7C214,46.82,165,54.38,165,54.38,140.42,18.52,94.19,30.79,94.19,30.79c75.47-34.91,134.9-12.27,193.16,31.14C303,73.57,324.46,79.58,347.77,82c-14.11-40.47-57.35-34.41-57.35-34.41C298.7,37,265.24,13.7,265.24,13.7S315,6.37,337.87,43.53,403.11,82,403.18,82c7.54-.63,15-1.46,22.11-2.43,2.85-.39,5.67-.81,8.44-1.23h0c33.14-5.15,59.42-12.92,65.16-16.37a32.5,32.5,0,0,1,7.83-3.12c-9.92-19.93-43.7-4.88-43.7-4.88C475,31.83,405,13.7,377.89,7.6c11.29,1.6,31.1,2.26,55.56-5.9,38.84-12.93,110.4,52.21,110.4,52.23,5.71-.3,10.52-.42,13.43-.48h3S581,44,598.92,58.16c7.31,5.76,19.33,11.22,31,17.06,17,8.51,33.16,17.81,33.16,30.11,0,20.74-85.85,85.85-93.39,58.49q-6.72,1.29-13.43,2.23s-47.88,54.28-94.54,54.28C442.57,220.33,428.09,224,417.64,228.23Z"/><path class="cls-2" d="M579,100.77c-10.22-6.29-6.78-12.42-18.48-13.64s-6.78-16.24,1.69-17,2.43-6.44-.1-7.18,6.25-8-1.29-8.6a15.05,15.05,0,0,1-3.58-.84l3,0S581,44,598.91,58.16c7.31,5.76,19.33,11.23,31,17.06a9.55,9.55,0,0,1-3.33,0c-12.42-2.54-6.68,4.09-10.26,6.89S613,91.5,606,89.44,589.27,107,579,100.77Z"/><path class="cls-2" d="M401.92,151.13c-5.46-1.64-10.75-3.34-15.79-5.07,0,0-9.18-1.68-20.46-2.75.27-2.54,0-4.85-1.78-5.11-4.12-.62-3.91-11.56-.93-12.35s6-9,1.43-14.12c-.88-1-1.06-1.71-.81-2.31,1-2.45,9.35-2.78,7.61-10.11-.05-.21-.11-.42-.18-.65-3-9.89,1.89-11.88,7.85-5.59,3.62,3.86,2.19,5.62,2,7.61-.12,1.25.25,2.61,2.72,4.64,6.34,5.21-2.37,4.54,3,7.58,5,2.81,2.47-4.13,7.89,2.6.43.51.9,1.13,1.43,1.84,7.28,9.71,9,4.19,5.46,11.91s-5.41,13.88-1.74,15.61C402.66,146.29,399.93,148.23,401.92,151.13Z"/><path class="cls-2" d="M564.58,109a1019.64,1019.64,0,0,1-103.29-.55A1020.78,1020.78,0,0,1,286.4,83.26a427,427,0,0,0,75,25.65C445.4,129.15,518.46,119.53,564.58,109Z"/><path class="cls-2" d="M466.4,174.61c7.33-2.7,15.93-4.69,24.77-4.18,11.7.69,18.7-.34,22.82-1.57a374,374,0,0,1-73.46-7.93c5.55-5.22,23.86-4.63,24.37-8.86.62-5.36,8.3-3.26,19-3.53s2.4-26.73,12.7-10.22,2.4,4.51,22.54,17.73.51,20.58.51,20.58S489.75,177.07,466.4,174.61Z"/><path class="cls-2" d="M528.2,139.61s-9.38-1-8,4.77S536,149.92,536,154.78s11-.86,6.2-5.63S529,150.58,528.2,139.61Z"/><path class="cls-2" d="M436.58,89.48c1-3.56-6.06-7.53-11.3-9.94,2.86-.39,5.68-.81,8.44-1.24h0c4.95.82,9.64,2.28,10.87,5C447.53,89.53,435,95,436.58,89.48Z"/><path class="cls-2" d="M523.59,72.31s16.47,1,13.48,15-1.24.51-7.11-2.74S523.59,72.31,523.59,72.31Z"/></g></g></svg>