<svg width="242" height="664" viewBox="0 0 242 664" fill="none" xmlns="http://www.w3.org/2000/svg">
<path d="M234.222 377.877C235.655 371.515 236.422 367.516 236.422 367.516C235.398 370.902 234.662 374.368 234.222 377.877V377.877Z" fill="#424A9F"/>
<path d="M0 396C0 396 5.67204 406.189 13.613 417.648C7.47904 402.634 0 396 0 396Z" fill="#424A9F"/>
<path d="M13.606 417.64C26.575 436.354 45.588 458.451 55.879 445.129C60.5905 451.67 64.407 458.811 67.2271 466.363V466.398C69.9271 473.729 71.9151 482.328 71.4041 491.174C70.7171 502.874 71.738 509.874 72.972 513.993C73.1849 489.304 75.8412 464.696 80.902 440.53C83.702 426.873 87.069 413.922 90.702 401.922C92.341 396.459 94.05 391.173 95.777 386.133C95.777 386.133 97.451 376.952 98.526 365.674C99.826 351.983 100.27 335.207 95.777 328.074C87.583 315.051 93.416 272.725 105.821 255.121C105.821 255.121 97.345 294.205 122.755 295.509C122.755 295.509 115.178 307.192 115.178 320.972C115.141 325.522 116.054 330.029 117.857 334.206C121.539 327.457 124.465 323.069 126.121 321.554C136.5 312.126 142.174 273.447 130.844 257.394C92.235 208.548 98.7731 130.979 110.086 108.335C121.134 86.256 115.125 4.141 114.826 0C128.077 86.714 171.408 139.472 171.408 139.472C141.222 230.046 166.708 257.394 166.708 257.394C195.008 214.011 187.448 164.953 187.448 164.953C223.308 140.424 211.043 94.186 211.043 94.186C245.951 169.658 223.308 229.094 179.906 287.351C168.259 302.981 162.25 324.461 159.871 347.774C200.347 333.66 194.285 290.417 194.285 290.417C204.841 298.699 228.136 265.236 228.136 265.236C228.136 265.236 235.466 314.998 198.303 337.871C161.157 360.744 159.871 403.105 159.871 403.176C160.505 410.718 161.333 418.136 162.303 425.29C162.69 428.145 163.113 430.965 163.536 433.731V433.749C168.681 466.894 176.453 493.168 179.906 498.912C181.279 501.375 182.327 504.004 183.025 506.736C202.955 496.816 187.906 463.036 187.906 463.036C210.006 475.019 228.136 404.974 234.233 377.89C232.633 389.185 231.977 408.99 240.133 433.45C253.067 472.288 187.921 543.85 187.903 543.85C188.203 549.559 188.326 554.37 188.379 557.277C188.397 559.163 188.397 560.238 188.397 560.238C188.397 560.238 197.824 580.996 183.674 598.916C177.912 606.229 172.449 618.247 166.617 629.916C158.106 646.868 148.802 663.08 136.502 663.08C115.762 663.08 50.651 577.229 78.017 569.687C77.1503 565.211 76.4044 560.735 75.7791 556.259C75.7791 556.259 21.505 508.382 21.505 461.721C21.5 442.574 17.87 428.089 13.606 417.64Z" fill="#424A9F"/>
<path d="M141.061 579.034C147.352 568.813 153.484 572.25 154.7 560.549C155.933 548.831 170.947 553.765 171.757 562.24C172.585 570.699 178.189 564.672 178.929 562.135C179.669 559.615 186.964 568.39 187.529 560.848C187.664 559.625 187.948 558.424 188.375 557.271C188.393 559.157 188.393 560.232 188.393 560.232C188.393 560.232 197.82 580.99 183.67 598.91C177.908 606.223 172.445 618.241 166.613 629.91C166.435 628.805 166.453 627.678 166.666 626.58C169.203 614.157 162.577 619.902 159.776 616.324C156.992 612.765 150.331 613.012 152.392 605.945C154.471 598.875 134.788 589.272 141.061 579.034Z" fill="#F8A593"/>
<path d="M90.699 401.922C92.338 396.459 94.047 391.173 95.774 386.133C95.774 386.133 97.4481 376.952 98.5231 365.674C101.06 365.939 103.369 365.674 103.633 363.895C104.25 359.771 115.193 359.983 115.986 362.961C116.779 365.939 124.955 368.952 130.1 364.388C131.087 363.507 131.81 363.331 132.409 363.578C134.858 364.6 135.193 372.934 142.523 371.19C142.735 371.137 142.946 371.084 143.175 371.014C153.061 368.014 155.052 372.899 148.761 378.855C144.902 382.485 143.14 381.055 141.149 380.882C139.898 380.758 138.541 381.128 136.515 383.595C131.299 389.939 131.968 381.234 128.937 386.609C126.118 391.596 133.061 389.076 126.329 394.503C125.818 394.926 125.202 395.403 124.497 395.93C114.787 403.208 120.303 404.97 112.585 401.393C104.867 397.816 98.699 395.983 96.972 399.648C95.541 402.662 93.607 399.934 90.699 401.922Z" fill="#F8A593"/>
<path d="M132.885 564.577C131.321 530.16 131.503 495.685 133.431 461.287C136.743 402.376 145.155 343.862 158.571 286.404C147.715 310.541 139.129 335.636 132.923 361.364C112.681 445.398 122.304 518.464 132.885 564.577Z" fill="#F8A593"/>
<path d="M67.2271 466.398C69.9271 473.729 71.9151 482.328 71.4041 491.174C70.7171 502.874 71.7381 509.874 72.9721 513.993C73.185 489.303 75.8412 464.696 80.902 440.53C86.118 446.081 85.5361 464.389 89.7651 464.9C95.1221 465.517 93.0251 473.2 93.2891 483.861C93.5531 494.522 120.021 486.261 103.51 496.561C86.999 506.887 98.999 498.961 85.783 519.098C72.549 539.24 65.2011 519.609 65.2011 519.609C65.2011 519.609 64.7611 489.746 67.2271 466.398Z" fill="#F8A593"/>
<path d="M102.22 528.195C102.22 528.195 103.174 518.818 97.452 520.249C91.73 521.68 91.917 535.984 87.052 535.984C82.187 535.984 87.912 546.952 92.68 542.184C97.448 537.416 91.2529 528.99 102.22 528.195Z" fill="#F8A593"/>
<path d="M152.356 436.583C155.916 437.605 159.88 430.521 162.295 425.283C162.682 428.138 163.105 430.958 163.528 433.724V433.742C162.717 438.693 161.255 443.381 158.576 444.614C152.303 447.526 146.805 434.962 152.356 436.583Z" fill="#F8A593"/>
<path d="M169.521 523.586C169.521 523.586 168.521 540.061 154.544 537.065C140.567 534.069 154.034 535.831 157.284 529.958C160.534 524.085 169.521 523.586 169.521 523.586Z" fill="#F8A593"/>
</svg>
