<svg width="44" height="139" viewBox="0 0 44 139" fill="none" xmlns="http://www.w3.org/2000/svg">
<path d="M43.95 53.9722L43.95 130.846C43.95 130.846 43.8307 136.956 37.5425 138.116H7.23704C0.944391 136.956 0.825073 130.846 0.825073 130.846L0.825073 53.9722C0.825073 41.1643 6.34437 36.8488 9.35813 35.1798C12.3719 33.5108 13.2027 29.6104 13.2027 29.6104C13.2027 29.6104 13.1275 18.409 13.1275 10.5101C13.1275 8.0779 13.1364 5.96259 13.154 4.57916C13.1673 3.80711 13.185 3.26267 13.2027 3.02168C13.3441 1.2857 15.2177 0.924218 15.8452 0.852815C15.9734 0.839427 16.0485 0.834961 16.0485 0.834961L28.7575 0.834961C29.058 0.857274 31.4133 1.06702 31.5724 3.02168C31.5945 3.26267 31.6078 3.80711 31.621 4.57916C31.6387 5.96259 31.6476 8.0779 31.6476 10.5101C31.6476 18.409 31.5724 29.6104 31.5724 29.6104C31.5724 29.6104 32.4076 33.5108 35.4169 35.1798C38.4263 36.8488 43.95 41.1643 43.95 53.9722Z" fill="#7D5794"/>
<path opacity="0.76" d="M43.95 100.879L43.95 130.846C43.95 130.846 43.8307 136.956 37.5425 138.116H7.23704C0.944391 136.956 0.825073 130.846 0.825073 130.846L0.825073 121.196L43.95 100.879Z" fill="#86D0D1"/>
</svg>
