<svg width="36" height="72" viewBox="0 0 36 72" fill="none" xmlns="http://www.w3.org/2000/svg">
<g clip-path="url(#clip0)">
<path d="M2.78608 0.0576172C1.15205 5.49586 0.54623 11.1869 0.999112 16.8436C1.44566 22.2374 1.96865 27.5999 6.14211 31.152C7.6345 32.3998 9.388 33.303 11.2757 33.7961C12.4624 34.0142 14.2991 34.5586 15.5386 36.0974C16.3806 37.2286 16.8431 38.5934 16.8609 39.9993C17.0678 43.6671 17.1396 53.7261 16.885 67.2351C16.9101 67.9635 16.6803 68.678 16.2346 69.2574C15.8569 69.6928 15.354 70.0033 14.7933 70.1474V70.1474C3.23069 70.1357 4.12652 71.2375 4.12652 71.2375H18.4244V0.0576172H2.78608Z" fill="#7D5794"/>
<path d="M34.0631 0.0576172C35.6971 5.49586 36.3029 11.1869 35.85 16.8436C35.4035 22.2374 34.8805 27.5999 30.707 31.152C29.2147 32.3998 27.4612 33.303 25.5735 33.7961C24.3868 34.0142 22.5501 34.5586 21.3106 36.0974C20.4686 37.2286 20.0061 38.5934 19.9883 39.9993C19.7813 43.6671 19.7096 53.7261 19.9642 67.2351C19.9391 67.9635 20.1688 68.678 20.6145 69.2574C20.9922 69.6927 21.495 70.0032 22.0555 70.1474V70.1474C33.6181 70.1357 32.7223 71.2375 32.7223 71.2375H18.424V0.0576172H34.0631Z" fill="#7D5794"/>
<path d="M31.9559 0.0576172C33.3611 4.96417 33.9566 10.0639 33.7193 15.159C33.4584 20.5043 33.1257 27.3103 28.3233 30.3175C27.5882 30.7745 26.7911 31.1252 25.9561 31.3587C24.961 31.6489 23.9424 31.8535 22.9119 31.9704C21.759 32.1201 20.2164 32.2772 18.3616 32.3445C16.5454 32.2729 15.0438 32.1158 13.9395 31.9704C12.9089 31.8536 11.8904 31.6489 10.8952 31.3587C10.0602 31.1252 9.2631 30.7745 8.52805 30.3175C3.72557 27.3103 3.39291 20.5043 3.13199 15.159C2.89435 10.0639 3.48928 4.96429 4.89375 0.0576172H31.9559Z" fill="white"/>
<path d="M33.7721 14.7095C33.7642 14.8619 33.7603 15.0143 33.7524 15.159C33.4923 20.5019 33.1612 27.3106 28.3567 30.3163C27.623 30.7739 26.8266 31.1241 25.9919 31.3559C24.9967 31.6493 23.9771 31.8547 22.9453 31.9696C21.7944 32.1181 20.2494 32.2744 18.397 32.3448C16.5801 32.2705 15.0785 32.1142 13.9749 31.9696C12.9434 31.8522 11.9241 31.6469 10.9283 31.3559C10.0942 31.1226 9.29787 30.7726 8.56348 30.3163C6.9587 29.2743 5.71073 27.7736 4.98474 26.013C7.65588 24.2159 10.863 23.3712 14.0813 23.617C22.1452 24.215 26.3545 23.617 28.5223 19.7984C29.8028 17.6834 31.6107 15.9309 33.7721 14.7095V14.7095Z" fill="#86D0D1"/>
</g>
<defs>
<clipPath id="clip0">
<rect width="35.1506" height="71.1799" fill="white" transform="translate(0.849365 0.0576172)"/>
</clipPath>
</defs>
</svg>
