<svg width="36" height="72" viewBox="0 0 36 72" fill="none" xmlns="http://www.w3.org/2000/svg">
<g clip-path="url(#clip0)">
<path d="M1.93671 0C0.302689 5.43824 -0.303135 11.1293 0.149747 16.786C0.596297 22.1798 1.11929 27.5423 5.29274 31.0943C6.78513 32.3422 8.53864 33.2453 10.4263 33.7385C11.613 33.9566 13.4497 34.501 14.6892 36.0398C15.5312 37.171 15.9937 38.5358 16.0115 39.9417C16.2185 43.6095 16.2902 53.6685 16.0356 67.1775C16.0607 67.9059 15.8309 68.6204 15.3853 69.1998C15.0075 69.6352 14.5046 69.9457 13.9439 70.0898V70.0898C2.38132 70.0781 3.27715 71.1799 3.27715 71.1799H17.575V0H1.93671Z" fill="#EF525B"/>
<path d="M33.2137 0C34.8477 5.43824 35.4536 11.1293 35.0007 16.786C34.5541 22.1798 34.0311 27.5423 29.8577 31.0943C28.3653 32.3422 26.6118 33.2453 24.7241 33.7385C23.5374 33.9566 21.7007 34.501 20.4612 36.0398C19.6192 37.171 19.1567 38.5358 19.1389 39.9417C18.932 43.6095 18.8603 53.6685 19.1149 67.1775C19.0898 67.9059 19.3195 68.6204 19.7652 69.1998C20.1428 69.6351 20.6456 69.9456 21.2061 70.0898V70.0898C32.7687 70.0781 31.8729 71.1799 31.8729 71.1799H17.5746V0H33.2137Z" fill="#EF525B"/>
<path d="M31.1066 0C32.5117 4.90656 33.1072 10.0062 32.8699 15.1014C32.609 20.4467 32.2764 27.2526 27.4739 30.2599C26.7388 30.7169 25.9418 31.0675 25.1068 31.3011C24.1116 31.5913 23.0931 31.7959 22.0625 31.9128C20.9097 32.0625 19.367 32.2196 17.5122 32.2868C15.6961 32.2153 14.1945 32.0582 13.0901 31.9128C12.0595 31.7959 11.041 31.5913 10.0458 31.3011C9.21082 31.0675 8.41374 30.7169 7.67869 30.2599C2.87621 27.2526 2.54354 20.4467 2.28263 15.1014C2.04499 10.0063 2.63991 4.90668 4.04438 0H31.1066Z" fill="white"/>
<path d="M32.9227 14.6519C32.9148 14.8043 32.9109 14.9567 32.903 15.1013C32.6429 20.4443 32.3118 27.253 27.5073 30.2586C26.7737 30.7163 25.9772 31.0665 25.1426 31.2983C24.1473 31.5917 23.1278 31.7971 22.0959 31.9119C20.9451 32.0605 19.4001 32.2168 17.5477 32.2872C15.7307 32.2129 14.2291 32.0566 13.1255 31.9119C12.0941 31.7946 11.0748 31.5893 10.0789 31.2983C9.24479 31.065 8.44851 30.7149 7.71411 30.2586C6.10934 29.2166 4.86137 27.716 4.13538 25.9553C6.80652 24.1583 10.0137 23.3136 13.2319 23.5594C21.2959 24.1574 25.5052 23.5594 27.6729 19.7408C28.9534 17.6258 30.7614 15.8732 32.9227 14.6519V14.6519Z" fill="#CAB6D9"/>
</g>
<defs>
<clipPath id="clip0">
<rect width="35.1506" height="71.1799" fill="white"/>
</clipPath>
</defs>
</svg>
