<svg width="44" height="138" viewBox="0 0 44 138" fill="none" xmlns="http://www.w3.org/2000/svg">
<path d="M43.125 53.1372L43.125 130.011C43.125 130.011 43.0057 136.121 36.7174 137.281H6.41197C0.119317 136.121 0 130.011 0 130.011L0 53.1372C0 40.3293 5.5193 36.0139 8.53305 34.3448C11.5468 32.6758 12.3776 28.7754 12.3776 28.7754C12.3776 28.7754 12.3025 17.5741 12.3025 9.6751C12.3025 7.24294 12.3113 5.12763 12.329 3.74419C12.3422 2.97215 12.3599 2.42771 12.3776 2.18672C12.519 0.450735 14.3927 0.0892576 15.0202 0.0178546C15.1483 0.0044665 15.2234 0 15.2234 0L27.9325 0C28.2329 0.0223134 30.5883 0.232064 30.7474 2.18672C30.7694 2.42771 30.7827 2.97215 30.796 3.74419C30.8136 5.12763 30.8225 7.24294 30.8225 9.6751C30.8225 17.5741 30.7474 28.7754 30.7474 28.7754C30.7474 28.7754 31.5825 32.6758 34.5919 34.3448C37.6012 36.0139 43.125 40.3293 43.125 53.1372Z" fill="#EF525B"/>
<path opacity="0.76" d="M43.125 100.044L43.125 130.011C43.125 130.011 43.0056 136.121 36.7174 137.281H6.41197C0.119317 136.121 0 130.011 0 130.011L0 120.361L43.125 100.044Z" fill="#CAB6D9"/>
</svg>
