<svg width="42" height="42" viewBox="0 0 42 42" fill="none" xmlns="http://www.w3.org/2000/svg">
<circle cx="20.9351" cy="20.9351" r="20.9351" fill="#86D0D1"/>
<path d="M20.7823 8.55847C15.272 8.55847 10.8052 11.3035 10.8052 14.6895V31.0278C10.8052 34.4138 15.272 37.1588 20.7823 37.1588C26.2925 37.1588 30.7593 34.4138 30.7593 31.0278V14.6895C30.7593 11.3035 26.2925 8.55847 20.7823 8.55847Z" fill="#FFE294"/>
<path d="M20.7824 8.99445C15.6764 8.99445 11.5372 11.5381 11.5372 14.6756V29.8154C11.5372 32.9531 15.6764 35.4967 20.7824 35.4967C25.8884 35.4967 30.0271 32.9531 30.0271 29.8154V14.6756C30.0271 11.5381 25.8884 8.99445 20.7824 8.99445Z" fill="#DF806C"/>
<path d="M20.7824 22.2456C25.8883 22.2456 30.0275 19.5007 30.0275 16.1146C30.0275 12.7285 25.8883 9.98352 20.7824 9.98352C15.6764 9.98352 11.5372 12.7285 11.5372 16.1146C11.5372 19.5007 15.6764 22.2456 20.7824 22.2456Z" fill="#F8A593"/>
<path d="M20.9351 20.935C26.1567 20.935 30.3897 18.2138 30.3897 14.857C30.3897 11.5003 26.1567 8.77911 20.9351 8.77911C15.7135 8.77911 11.4806 11.5003 11.4806 14.857C11.4806 18.2138 15.7135 20.935 20.9351 20.935Z" fill="#F8A593"/>
<path d="M20.7823 20.3841C26.0531 20.3841 30.3259 17.8344 30.3259 14.6892C30.3259 11.5441 26.0531 8.99438 20.7823 8.99438C15.5115 8.99438 11.2386 11.5441 11.2386 14.6892C11.2386 17.8344 15.5115 20.3841 20.7823 20.3841Z" stroke="#FFE294" stroke-width="2" stroke-miterlimit="10"/>
<path d="M15.9006 19.6102C15.9006 19.196 15.2687 19.2467 14.8571 19.2467C14.4456 19.2467 14.4103 19.196 14.4103 19.6102V26.971C14.4103 27.3852 14.7439 27.721 15.1554 27.721C15.567 27.721 15.9006 27.3852 15.9006 26.971V19.6102Z" fill="#FFE294"/>
<path d="M15.9006 29.542C15.9006 29.1278 15.567 28.7921 15.1554 28.7921C14.7439 28.7921 14.4103 29.1278 14.4103 29.542V30.6273C14.4103 31.0415 14.7439 31.3773 15.1554 31.3773C15.567 31.3773 15.9006 31.0415 15.9006 30.6273V29.542Z" fill="#FFE294"/>
<path d="M27.1539 13.5065L25.6624 13.0056L29.5734 3.37665L31.065 3.87754L27.1539 13.5065Z" fill="#FFE294"/>
<path d="M25.5662 12.033C25.5662 12.033 26.4518 13.4731 27.8392 12.2688L28.6205 12.6666L27.7017 14.5511L24.7489 13.9619L24.3118 12.3796L25.5662 12.033Z" fill="#F8A593"/>
<path d="M23.6752 31.8784C24.31 31.8784 24.8246 31.3606 24.8246 30.7218C24.8246 30.083 24.31 29.5651 23.6752 29.5651C23.0405 29.5651 22.5259 30.083 22.5259 30.7218C22.5259 31.3606 23.0405 31.8784 23.6752 31.8784Z" fill="#FFE294"/>
<path d="M24.3866 29.1245C24.6362 29.1245 24.8386 28.9208 24.8386 28.6697C24.8386 28.4185 24.6362 28.2148 24.3866 28.2148C24.137 28.2148 23.9347 28.4185 23.9347 28.6697C23.9347 28.9208 24.137 29.1245 24.3866 29.1245Z" fill="#FFE294"/>
<path d="M22.7999 28.5165C23.1479 28.5165 23.43 28.2326 23.43 27.8824C23.43 27.5322 23.1479 27.2483 22.7999 27.2483C22.4519 27.2483 22.1698 27.5322 22.1698 27.8824C22.1698 28.2326 22.4519 28.5165 22.7999 28.5165Z" fill="#FFE294"/>
</svg>
