<svg width="42" height="42" viewBox="0 0 42 42" fill="none" xmlns="http://www.w3.org/2000/svg">
<circle cx="20.9351" cy="20.9351" r="20.9351" fill="#FFE294"/>
<path d="M25.1266 4.8678C25.1266 4.8678 27.7073 6.54953 26.0306 13.5143L24.5089 12.8231C24.5089 12.8231 25.633 8.01936 24.8105 6.38711" fill="#ED8D7C"/>
<path d="M16.2884 4.8678C16.2884 4.8678 13.7075 6.54953 15.3843 13.5143L16.9059 12.8231C16.9059 12.8231 15.7818 8.01936 16.6044 6.38711" fill="#ED8D7C"/>
<path d="M25.5454 9.94318H15.6493C15.6493 9.94318 8.50567 16.5452 11.5685 32.911C11.5685 32.911 11.619 34.4416 13.5923 34.4416H27.6025C29.5758 34.4416 29.6263 32.911 29.6263 32.911C32.6895 16.5452 25.5454 9.94318 25.5454 9.94318Z" fill="#7D5794"/>
<path d="M27.2522 9.71152C27.1497 9.42918 27.0766 9.2569 27.0766 9.2569H14.118C14.118 9.2569 14.0449 9.42918 13.9423 9.71152C13.4753 11.0065 12.4101 14.6263 15.0816 14.6914C18.3369 14.7698 20.5973 14.6914 20.5973 14.6914C20.5973 14.6914 22.8577 14.7698 26.113 14.6914C28.7845 14.6263 27.7193 11.0065 27.2522 9.71152Z" fill="#ED8D7C"/>
<path d="M22.7836 9.25693C22.7836 9.25693 22.2168 4.89682 23.4444 4.86791C23.4444 4.86791 24.4507 4.55207 25.1267 4.86791C25.1267 4.86791 24.2398 7.79504 25.1267 9.25693H22.7836Z" fill="#7D5794"/>
<path d="M18.615 9.25693C18.615 9.25693 19.1818 4.89682 17.9542 4.86791C17.9542 4.86791 16.9479 4.55207 16.272 4.86791C16.272 4.86791 17.1588 7.79504 16.272 9.25693H18.615Z" fill="#7D5794"/>
<path d="M19.7103 9.28814C19.7103 9.28814 17.9152 6.11255 20.6636 6.11255C23.4121 6.11255 21.787 9.28814 21.787 9.28814H19.7103Z" fill="#7D5794"/>
<path d="M20.1192 9.29298C20.1192 9.29298 19.0661 7.17279 20.6784 7.17279C22.2907 7.17279 21.3374 9.29298 21.3374 9.29298H20.1192Z" fill="#ED8D7C"/>
<path d="M25.7634 27.1975H15.4313C15.4313 27.1975 14.3782 31.9206 16.3712 31.9206H24.8235C26.8165 31.9206 25.7634 27.1975 25.7634 27.1975Z" fill="#ED8D7C"/>
<path d="M26.1104 29.3098C24.1972 29.7386 19.7432 30.4469 15.3236 29.061C15.3236 29.061 15.2633 29.0303 15.1666 28.972C15.1915 28.615 15.2318 28.2761 15.2738 27.989C15.3064 28.0062 15.3236 28.0158 15.3236 28.0158C19.6781 29.3816 24.0652 28.7145 26.0243 28.2838C26.065 28.5972 26.0974 28.9499 26.1104 29.3098Z" fill="#7D5794"/>
<path d="M15.3319 24.1766C15.3319 24.1766 19.7855 25.8552 25.9327 24.1766C25.9327 24.1766 28.3851 25.7156 27.0017 28.0645C27.0017 28.0645 21.1369 29.8997 15.3319 28.0645C15.3319 28.0645 11.8171 26.2346 15.3319 24.1766Z" fill="#ED8D7C"/>
<path d="M21.8618 29.4036H19.9673V30.8043H21.8618V29.4036Z" fill="#7D5794"/>
</svg>
