<svg xmlns="http://www.w3.org/2000/svg" viewBox="0 0 84.51 81.45"><defs><style>.cls-1{fill:#f8a593;}.cls-2{fill:#424a9f;}</style></defs><g id="Layer_2" data-name="Layer 2"><g id="Layer_1-2" data-name="Layer 1"><g id="Layer_2-2" data-name="Layer 2"><g id="Layer_1-2-2" data-name="Layer 1-2"><path class="cls-1" d="M62.39,35.86h.79A153.44,153.44,0,0,0,83.71,34.1a1.49,1.49,0,0,1,.47-.07.37.37,0,0,1,.15,0,.22.22,0,0,1,.09.1l0,.05h0l0,0h0l0,.15,0,0h0l-.07.08,0,0-.07.18-.2.37-.12.11,0,.06-.07.06-.12.21-.1.17a2.87,2.87,0,0,1-.85.85,2.74,2.74,0,0,1-1.09.48l-24.92,9.5q-1.53,2.72-3,5.3l-.22.35c-1.28,2.2-2.56,4.33-3.81,6.35l-.55.87-.22.34-.39.61-.2.33-.38.58-.21.32L46.82,63h0l-.58.83h0c-.69,1-1.36,2-2,2.92h0c1.16.46,2.34.92,3.15,1.33,2.36,1.08,0,1.91,0,1.91L39.1,73.23c-2,2.2-3.7,3.36-4.84,3.19a.93.93,0,0,1-.33-.12h0l0,0h0l0,0h0l-.05,0L33.66,76a2.87,2.87,0,0,1-.39-.39h0l-15.08,5.8h0c-2.41-.63.7-2.61.7-2.61L32,70.32l-9-6.06a1.19,1.19,0,0,1-.35-1.65l0-.06c.73-1,1-2.2,2.89-1.66,1.42.4,7.32,1.16,10.32,1.55l4.3-9.85h0L.15,67.27h0a1.85,1.85,0,0,1-.08-1.34,6.34,6.34,0,0,1,.39-1.48c.2-.32.51-.7,3-2.19l1.53-.95,41-21.81h0l12.22-28s2.57-5.77,7.27-9.12A13.14,13.14,0,0,1,67.67,1a11.06,11.06,0,0,1,3.62-1l.41,0a11.7,11.7,0,0,1,1.87.07,2,2,0,0,1,.33.08l0,0h0l0,.05.1.1.1.1.1.1C77.11,3.2,70.86,19.19,62.39,35.86Z"/><path class="cls-2" d="M62.39,35.86h.79A153.44,153.44,0,0,0,83.71,34.1a1.49,1.49,0,0,1,.47-.07.47.47,0,0,1,.24.13h0l0,.05h0l0,0h0l0,.15h0l-.08.08,0,0-.08.18-.2.36-.11.12-.06,0-.06.07-.13.21-.1.17a2.87,2.87,0,0,1-.85.85,2.68,2.68,0,0,1-1.09.48l-25,9.54q-1.53,2.72-3,5.3l-.22.35c-1.28,2.2-2.56,4.33-3.81,6.35l-.55.87-.22.34-.39.61-.2.33-.38.58-.21.32L46.82,63h0l-.58.83h0c-.69,1-1.37,2-2,2.92h0l.06-.06-.06.06h0c1.16.46,2.33.92,3.14,1.31,2.35,1.08,0,1.91,0,1.91l-8.27,3.22c-2.1,2.25-3.81,3.44-4.91,3.17h0a1.18,1.18,0,0,1-.3-.1h0a0,0,0,0,1,0,0h0l-.13-.06,0,0,0,0L33.49,76h0a3.06,3.06,0,0,1-.36-.36h0L18.25,81.45h0c-2.3-.66.76-2.6.76-2.6l12.72-8.29.31-.2h0c1.06-.37,2.67-.92,4.9-1.56,2.43-5,5.59-11.38,9-18.25l-5.7,2.09h0L.15,67.27h0a5,5,0,0,1-.08-1.34,3.2,3.2,0,0,1,.39-1.48c.2-.32.51-.7,3-2.19l1.53-.95,41-21.81h0a27.19,27.19,0,0,1,7.25-3.21C61,21.14,69.12,6.35,73.9.16l0,0h0l0,.05.1.1.1.1.1.1C77.11,3.2,70.86,19.19,62.39,35.86Z"/><path class="cls-2" d="M41,39.65a5,5,0,0,0-2.51-.89A5.08,5.08,0,0,0,33.9,41,5,5,0,0,0,33,43.58h0s-1.9,11.51,1.55,12.59S42.83,46,42.83,46a6.89,6.89,0,0,0,.34-1.28h0a5.08,5.08,0,0,0-2.12-5.11Z"/><path class="cls-1" d="M41.76,41.59a3.78,3.78,0,0,0-5-1.7,3.79,3.79,0,0,0-2.4,4.68,3.77,3.77,0,0,0,5,1.69A3.76,3.76,0,0,0,41.76,41.59Z"/><path class="cls-2" d="M72.57,32a4,4,0,0,0-1.89-.67,4.06,4.06,0,0,0-2,.38,3.9,3.9,0,0,0-2.15,3.23h0s-1.41,8.67,1.21,9.45S74,36.77,74,36.77a5.34,5.34,0,0,0,.26-1h0A3.93,3.93,0,0,0,74,33.63,3.78,3.78,0,0,0,72.6,32Z"/><path class="cls-1" d="M73,33c-.45-1.09-2.06-1.48-3.65-.82s-2.44,2-2,3.13,2.06,1.48,3.65.82S73.4,34.14,73,33Z"/><path class="cls-2" d="M71.7,0l-8,11.05L61.13,9.93l4.23-7.59A13.85,13.85,0,0,1,67.63,1a11.06,11.06,0,0,1,3.62-1Z"/></g></g></g></g></svg>