<svg xmlns="http://www.w3.org/2000/svg" viewBox="0 0 99.59 96.1"><defs><style>.cls-1{fill:#cab6d9;}.cls-2{fill:#ef525b;}</style></defs><g id="Layer_2" data-name="Layer 2"><g id="Layer_1-2" data-name="Layer 1"><g id="Layer_2-2" data-name="Layer 2"><g id="Layer_1-2-2" data-name="Layer 1-2"><path class="cls-1" d="M73.71,42.23h.94a167.9,167.9,0,0,0,24.23-2.12h.59l.12.12h0v.23h0l-.12.12h0l-.12.23c-.12.12-.12.36-.23.47L99,41.4l-.12.12-.12.12-.11.23.11.24a4.53,4.53,0,0,1-1.05,1.06,4.4,4.4,0,0,1-1.3.58L67,55.05c-1.18,2.11-2.36,4.23-3.53,6.23l-.24.47c-1.53,2.59-3.06,5.06-4.47,7.53l-.58,1.06-.24.35-.47.71-.24.35-.47.7-.35.12-1.18,1.77h0l-.7.94h0c-.82,1.17-1.65,2.35-2.35,3.41h0c1.41.59,2.7,1.06,3.76,1.53,2.82,1.29,0,2.23,0,2.23l-9.88,3.88c-2.35,2.59-4.35,4-5.76,3.77-.12,0-.24-.12-.36-.12h0l-.11-.12c-.12-.12-.36-.23-.47-.47h0L21.61,96.1h0c-2.83-.71.82-3.06.82-3.06L38,83,27.37,75.87A1.36,1.36,0,0,1,27,74v-.11c.82-1.18,1.17-2.59,3.41-2,1.64.47,8.58,1.41,12.23,1.88L47.72,62.1h0L.2,79.28h0a2.2,2.2,0,0,1-.12-1.65A7.09,7.09,0,0,1,.55,76c.24-.35.59-.82,3.53-2.58l1.76-1.18L54.19,46.46h0l14.35-33s3-6.82,8.58-10.7a12.32,12.32,0,0,1,2.71-1.53A13.35,13.35,0,0,1,84.06,0h.47a14.79,14.79,0,0,1,2.24.12.43.43,0,0,1,.35.12h0l.12.11h.23l.12.12C91,3.76,83.59,22.58,73.71,42.23Z"/><path class="cls-2" d="M73.71,42.23h.94a167.9,167.9,0,0,0,24.23-2.12h.47c.12,0,.24,0,.24.12h0v.23h0l-.12.12h0l-.12.23c-.12.12-.12.36-.23.47L99,41.4l-.12.12-.12.12v.47a3.53,3.53,0,0,1-2.23,1.64L67,54.81c-1.18,2.12-2.36,4.24-3.53,6.23l-.24.48c-1.53,2.58-3.06,5-4.47,7.52l-.58,1.06-.24.35-.47.71-.24.35-.47.71-.35.35-1.18,1.77h0l-.7.94h0c-.82,1.17-1.65,2.35-2.35,3.41h.11l-.11.12h0c1.41.58,2.7,1,3.64,1.52,2.83,1.3,0,2.24,0,2.24l-9.76,3.76C43.6,89,41.6,90.45,40.31,90.1h0c-.12,0-.24-.12-.36-.12h0v-.12h0c-.11,0-.11-.12-.11-.12h0c-.12-.11-.36-.23-.47-.47h0L21.72,96.1h0c-2.7-.83.94-3.06.94-3.06L37.6,83.16l.35-.24h0c1.18-.47,3.18-1.06,5.77-1.88,2.82-5.88,6.58-13.41,10.7-21.52L47.72,62h0L.2,79.28h0a7.64,7.64,0,0,1-.12-1.65A3.91,3.91,0,0,1,.55,76c.24-.35.59-.82,3.53-2.58l1.76-1.18L54.19,46.46h0a32.5,32.5,0,0,1,8.58-3.76C72,24.82,81.59,7.41,87.24.12h0l.12.12h.23C91,3.76,83.59,22.58,73.71,42.23Z"/><path class="cls-2" d="M48.42,46.7a6.71,6.71,0,0,0-2.94-1.06,5.5,5.5,0,0,0-3.06.58,5.9,5.9,0,0,0-2.35,2.12,5.42,5.42,0,0,0-.94,2.94h0S36.9,64.81,40.9,66.1s9.64-11.88,9.64-11.88a3.55,3.55,0,0,0,.35-1.53h0a5.71,5.71,0,0,0-2.47-6Z"/><path class="cls-1" d="M49.36,49.05a4.46,4.46,0,0,0-5.88-2,4.39,4.39,0,0,0-2.82,5.53,4.74,4.74,0,0,0,8.7-3.53Z"/><path class="cls-2" d="M85.71,37.64a5.07,5.07,0,0,0-2.24-.82,4.71,4.71,0,0,0-4.11,2,5.26,5.26,0,0,0-.83,2.24h0S76.89,51.28,80,52.22s7.29-8.94,7.29-8.94c.12-.35.23-.7.35-1.17h0a4.81,4.81,0,0,0-1.88-4.47Z"/><path class="cls-1" d="M86.06,38.93c-.47-1.29-2.47-1.76-4.35-.94s-2.82,2.35-2.35,3.65,2.47,1.76,4.35.94S86.65,40.23,86.06,38.93Z"/><path class="cls-2" d="M84.65,0,75.24,13.06l-2.94-1.3,5.06-8.94a12.43,12.43,0,0,1,2.7-1.53A13.73,13.73,0,0,1,84.3.12Z"/></g></g></g></g></svg>