<svg xmlns="http://www.w3.org/2000/svg" viewBox="0 0 100 96.51"><defs><style>.cls-1{fill:#86d0d1;}.cls-2{fill:#7d5794;}</style></defs><g id="Layer_2" data-name="Layer 2"><g id="Layer_1-2" data-name="Layer 1"><g id="Layer_2-2" data-name="Layer 2"><g id="Layer_1-2-2" data-name="Layer 1-2"><path class="cls-1" d="M73.93,42.39h.94a170.51,170.51,0,0,0,24.31-2.12h.7l.12.12h0v.12h0v.12h0l-.12.23c-.11.12-.11.35-.23.47l-.12.12-.12.11-.11.12-.12.24-.12.11a4.11,4.11,0,0,1-2.35,1.65L67.24,55c-1.17,2.11-2.35,4.23-3.52,6.22l-.35.59c-1.53,2.58-3.06,5.17-4.58,7.51l-.59,1.06-.23.35-.47.71-.24.35-.47.7-.23.36L55.5,74.56h0l-.7.94h0c-.83,1.17-1.65,2.35-2.35,3.4h0c1.41.59,2.82,1.06,3.75,1.53,2.82,1.29,0,2.23,0,2.23l-9.74,3.76C44,89,42,90.41,40.71,90.17c-.12,0-.24-.11-.36-.11h0c-.11,0-.11-.12-.11-.12s-.36-.24-.47-.47h0L21.92,96.4h0c-2.82-.71.82-3.06.82-3.06l15.5-10.09L27.56,76.08a1.36,1.36,0,0,1-.36-2V74c.83-1.29,1.18-2.58,3.41-2,1.64.47,8.69,1.41,12.21,1.88l5-11.62h0L.2,79.61h0A2.2,2.2,0,0,1,.08,78a7.15,7.15,0,0,1,.47-1.64c.24-.35.59-.82,3.52-2.58a9,9,0,0,0,1.76-1.18l48.5-25.83h0L68.77,13.62s3-6.81,8.57-10.8A12,12,0,0,1,80,1.29,13.78,13.78,0,0,1,84.38.12h.47a15.08,15.08,0,0,1,2.23.11.44.44,0,0,1,.36.12h0l.11.12.12.12.12.11C91.31,3.76,83.91,22.78,73.93,42.39Z"/><path class="cls-2" d="M73.93,42.39h.94a170.51,170.51,0,0,0,24.31-2.12h.47c.12,0,.23,0,.23.12h0v.12h0v.12h0l-.11.23-.24.47-.12.12-.11.11-.12.12-.12.24-.12.11a4.19,4.19,0,0,1-1,1.06,4.48,4.48,0,0,1-1.29.59L67,55c-1.18,2.11-2.35,4.23-3.53,6.22l-.11.59c-1.53,2.58-3.06,5.17-4.58,7.51l-.59,1.06-.23.35-.47.71-.24.35-.47.7-.23.36L55.5,74.56h0l-.7.94h0c-.83,1.17-1.65,2.35-2.35,3.4h0l.11-.12-.11.24h0c1.41.59,2.7,1.06,3.75,1.53,2.82,1.29,0,2.23,0,2.23l-9.74,4C44,89.47,42,90.88,40.71,90.53h0c-.12,0-.24-.12-.36-.12h0l-.11-.12h0a.12.12,0,0,1-.12-.12h0a1.6,1.6,0,0,1-.47-.47h0L21.92,96.51h0c-2.7-.82.94-3.05.94-3.05L38,83.72l.35-.24h0c1.29-.47,3.17-1.06,5.75-1.88C46.93,75.73,50.69,68.22,54.8,60l-6.7,2.46h0L.2,79.61h0A7.64,7.64,0,0,1,.08,78a3.9,3.9,0,0,1,.47-1.64c.24-.35.59-.82,3.52-2.58a9,9,0,0,0,1.76-1.18l48.5-25.83h0a37.64,37.64,0,0,1,8.57-3.87C72.17,25,81.68,7.4,87.44.12h0l.11.11.12.12.12.12C91.31,3.76,83.91,22.78,73.93,42.39Z"/><path class="cls-2" d="M48.69,46.85a6,6,0,0,0-6.11-.47,5.78,5.78,0,0,0-2.34,2.11,5.42,5.42,0,0,0-.94,2.94h0s-2.23,13.62,1.88,14.91S50.8,54.48,50.8,54.48A3.57,3.57,0,0,0,51.16,53h0a5.64,5.64,0,0,0-.36-3.4,8,8,0,0,0-2.11-2.7Z"/><path class="cls-1" d="M49.51,49.2a4.46,4.46,0,0,0-6-2,4.4,4.4,0,0,0-2.93,5.52h0a4.46,4.46,0,0,0,6,2A4.4,4.4,0,0,0,49.51,49.2Z"/><path class="cls-2" d="M85.91,37.81A5,5,0,0,0,83.68,37a4.56,4.56,0,0,0-4.81,4.22h0s-1.65,10.22,1.4,11.16,7.28-9,7.28-9c.12-.36.24-.71.36-1.18h0a4.57,4.57,0,0,0-2-4.34Z"/><path class="cls-1" d="M86.38,39.1c-.47-1.29-2.47-1.76-4.34-.94s-2.94,2.35-2.35,3.76,2.46,1.76,4.34.94S87,40.39,86.38,39.1Z"/><path class="cls-2" d="M85,0,75.46,13.15l-3-1.29,5-9a12,12,0,0,1,2.7-1.53A13.71,13.71,0,0,1,84.5.12Z"/></g></g></g></g></svg>