<svg xmlns="http://www.w3.org/2000/svg" viewBox="0 0 89 72.01"><defs><style>.cls-1{fill:#ffe294;}.cls-2{fill:#df806c;}.cls-3{fill:#f8a593;}.cls-4{fill:none;stroke:#ffe294;stroke-miterlimit:10;stroke-width:2px;}</style></defs><g id="Layer_2" data-name="Layer 2"><g id="Layer_1-2" data-name="Layer 1"><path class="cls-1" d="M61.9,10.11c-10-10-23-13.1-29.17-7L3.14,32.73c-6.13,6.13-3,19.19,7,29.17s23,13.1,29.17,7L68.87,39.28C75,33.15,71.88,20.09,61.9,10.11Z"/><path class="cls-2" d="M61.11,10.9c-9.25-9.25-21.35-12.14-27-6.46L6.66,31.86c-5.68,5.68-2.79,17.78,6.46,27s21.34,12.14,27,6.45L67.56,37.93C73.25,32.24,70.36,20.14,61.11,10.9Z"/><path class="cls-3" d="M37.11,34.89C46.36,44.14,58.83,46.67,65,40.53s3.61-18.6-5.64-27.84S37.61.92,31.47,7.05,27.87,25.65,37.11,34.89Z"/><path class="cls-3" d="M39.76,32.8C49.22,42.25,61.81,45,67.89,38.91s3.34-18.67-6.11-28.13S39.73-1.41,33.65,4.67,30.31,23.34,39.76,32.8Z"/><path class="cls-4" d="M40.49,31.52c9.54,9.55,21.9,12.67,27.59,7s2.58-18-7-27.59-21.9-12.67-27.59-7S30.94,22,40.49,31.52Z"/><path class="cls-1" d="M33.05,21.28c.75-.75-.49-1.8-1.24-2.55s-.71-.9-1.46-.15L17,31.91a1.91,1.91,0,1,0,2.7,2.7Z"/><path class="cls-1" d="M15.06,39.27a1.91,1.91,0,1,0-2.7-2.7l-2,2a1.91,1.91,0,1,0,2.69,2.7Z"/><path class="cls-1" d="M64.48,30.61,62.68,27,87.21,16.64,89,20.25Z"/><path class="cls-3" d="M64.27,25.06s-1,4.21,3.69,4.55l.7,2.13-5.08,1.75L59.3,27.08l2.07-3.66Z"/><path class="cls-1" d="M24.91,57.58a3,3,0,1,0,0-4.18A2.94,2.94,0,0,0,24.91,57.58Z"/><path class="cls-1" d="M31.18,53.88a1.17,1.17,0,0,0,1.65-1.65,1.17,1.17,0,0,0-1.65,1.65Z"/><path class="cls-1" d="M29.41,49.9a1.62,1.62,0,1,0,0-2.29A1.62,1.62,0,0,0,29.41,49.9Z"/></g></g></svg>