<svg xmlns="http://www.w3.org/2000/svg" viewBox="0 0 82.98 82.98"><defs><style>.cls-1{fill:#7d5794;}.cls-2{fill:#86d0d1;opacity:0.76;isolation:isolate;}</style></defs><g id="Layer_2" data-name="Layer 2"><g id="Layer_1-2" data-name="Layer 1"><path class="cls-1" d="M62.89,42.16,23.56,81.48a5.55,5.55,0,0,1-7,.44L1.06,66.42a5.58,5.58,0,0,1,.44-7L40.83,20.1c6.55-6.56,11.58-5.94,14-5.25A6.65,6.65,0,0,0,59.62,14s5.69-5.76,9.73-9.8c1.25-1.25,2.33-2.33,3.05-3l.82-.77a2,2,0,0,1,2.46.25A.73.73,0,0,1,75.8.7l6.5,6.5c.14.17,1.24,1.48.32,2.56-.11.13-.38.42-.77.82-.7.72-1.78,1.81-3,3.05-4,4-9.81,9.73-9.81,9.73a6.63,6.63,0,0,0-.88,4.82C68.82,30.57,69.44,35.6,62.89,42.16Z"/><path class="cls-2" d="M38.89,66.15,23.56,81.48a5.55,5.55,0,0,1-7,.44L1.06,66.42a5.58,5.58,0,0,1,.44-7l4.94-4.94Z"/></g></g></svg>