<svg xmlns="http://www.w3.org/2000/svg" viewBox="0 0 114.7 114.71"><defs><style>.cls-1{fill:#424a9f;}.cls-2{fill:#f8a593;opacity:0.76;isolation:isolate;}</style></defs><g id="Layer_2" data-name="Layer 2"><g id="Layer_1-2" data-name="Layer 1"><path class="cls-1" d="M86.93,58.27,32.57,112.63a7.69,7.69,0,0,1-9.67.61L1.47,91.81a7.71,7.71,0,0,1,.61-9.68L56.43,27.78c9.06-9.06,16-8.21,19.33-7.26s6.65-1.22,6.65-1.22,7.87-8,13.46-13.56c1.72-1.72,3.22-3.21,4.21-4.17.55-.54,1-.91,1.13-1.07,1.33-1.13,2.91-.06,3.41.34l.15.13,9,9c.2.23,1.71,2.05.44,3.54-.15.19-.53.58-1.06,1.14-1,1-2.46,2.49-4.18,4.21C103.38,24.42,95.4,32.29,95.4,32.29S93.23,35.64,94.18,39,96,49.21,86.93,58.27Z"/><path class="cls-2" d="M53.76,91.44,32.57,112.63a7.7,7.7,0,0,1-9.67.61L1.47,91.81a7.71,7.71,0,0,1,.61-9.68L8.9,75.31Z"/></g></g></svg>