<svg xmlns="http://www.w3.org/2000/svg" xmlns:xlink="http://www.w3.org/1999/xlink" viewBox="0 0 86.2 86.2"><defs><style>.cls-1{fill:none;}.cls-2{clip-path:url(#clip-path);}.cls-3{fill:#ef525b;}.cls-4{fill:#fff;}.cls-5{fill:#cab6d9;}</style><clipPath id="clip-path" transform="translate(-2.79 -1.65)"><rect class="cls-1" x="2.42" y="24.13" width="85.81" height="42.38" transform="translate(-18.77 45.32) rotate(-45)"/></clipPath></defs><g id="Layer_2" data-name="Layer 2"><g id="Layer_1-2" data-name="Layer 1"><g class="cls-2"><path class="cls-3" d="M62.33,1.65A54.87,54.87,0,0,0,46.5,14.44c-4.22,5-8.35,10-7.82,16.58a16,16,0,0,0,2.13,6.63,8.54,8.54,0,0,1,1.67,5.6,8.11,8.11,0,0,1-2.2,4.45c-3,3.3-11.47,11.94-23.2,23.24a3.82,3.82,0,0,1-2.28,1.17,3.44,3.44,0,0,1-2-.47h0c-9.85-9.87-10-8.17-10-8.17L15,75.66,75.66,15Z" transform="translate(-2.79 -1.65)"/><path class="cls-3" d="M89,28.31A55.18,55.18,0,0,1,76.21,44.15c-5,4.21-10,8.34-16.59,7.81A16,16,0,0,1,53,49.84a8.38,8.38,0,0,0-5.59-1.67A8,8,0,0,0,43,50.36c-3.31,3-11.94,11.47-23.24,23.2a3.74,3.74,0,0,0-1.17,2.28,3.4,3.4,0,0,0,.47,2h0c9.86,9.84,8.16,10,8.16,10L15,75.66,75.66,15Z" transform="translate(-2.79 -1.65)"/><path class="cls-4" d="M87.2,26.52A56.76,56.76,0,0,1,75.83,40.89C71.05,45.23,65,50.75,58.3,49.22a11.27,11.27,0,0,1-2.9-1.13A21.71,21.71,0,0,1,52.28,46c-1.11-.85-2.56-2-4.2-3.56-1.48-1.61-2.63-3-3.45-4.09a21.55,21.55,0,0,1-2.07-3.11,11.2,11.2,0,0,1-1.13-2.91c-1.53-6.66,4-12.74,8.32-17.52A56.37,56.37,0,0,1,64.13,3.45Z" transform="translate(-2.79 -1.65)"/><path class="cls-5" d="M76.25,40.56l-.4.36C71.08,45.26,65,50.78,58.33,49.24a10.59,10.59,0,0,1-2.9-1.13A20.84,20.84,0,0,1,52.31,46c-1.11-.85-2.56-2-4.2-3.56-1.48-1.61-2.63-3-3.45-4.09a21.64,21.64,0,0,1-2.07-3.12,11.13,11.13,0,0,1-1.13-2.9,11.36,11.36,0,0,1,.62-6.72,17.3,17.3,0,0,1,9.79,5.71c6.37,7.39,10.47,10.47,15.57,9.06a17.31,17.31,0,0,1,8.81.14Z" transform="translate(-2.79 -1.65)"/></g></g></g></svg>