<svg xmlns="http://www.w3.org/2000/svg" xmlns:xlink="http://www.w3.org/1999/xlink" viewBox="0 0 84.63 84.63"><defs><style>.cls-1{fill:none;}.cls-2{clip-path:url(#clip-path);}.cls-3{fill:#424a9f;}.cls-4{fill:#fff;}.cls-5{fill:#f8a593;}</style><clipPath id="clip-path" transform="translate(-2.74 -1.62)"><rect class="cls-1" x="2.37" y="23.69" width="84.25" height="41.61" transform="translate(-18.43 44.5) rotate(-45)"/></clipPath></defs><g id="Layer_2" data-name="Layer 2"><g id="Layer_1-2" data-name="Layer 1"><g class="cls-2"><path class="cls-3" d="M61.2,1.62A54.1,54.1,0,0,0,45.65,14.17C41.51,19.06,37.46,24,38,30.45A15.62,15.62,0,0,0,40.06,37a8.34,8.34,0,0,1,1.65,5.5,8,8,0,0,1-2.16,4.37c-2.9,3.24-11.26,11.72-22.78,22.82a3.7,3.7,0,0,1-2.24,1.14,3.34,3.34,0,0,1-1.95-.46h0c-9.66-9.68-9.84-8-9.84-8l12,12L74.28,14.71Z" transform="translate(-2.74 -1.62)"/><path class="cls-3" d="M87.37,27.8A53.92,53.92,0,0,1,74.82,43.34C69.93,47.48,65,51.53,58.54,51A15.52,15.52,0,0,1,52,48.93a8.32,8.32,0,0,0-5.49-1.64,7.92,7.92,0,0,0-4.38,2.16c-3.24,2.9-11.72,11.25-22.81,22.77a3.72,3.72,0,0,0-1.15,2.24,3.34,3.34,0,0,0,.46,2h0c9.69,9.67,8,9.84,8,9.84l-12-12L74.28,14.71Z" transform="translate(-2.74 -1.62)"/><path class="cls-4" d="M85.61,26A55.67,55.67,0,0,1,74.45,40.15c-4.7,4.26-10.67,9.67-17.21,8.17a11,11,0,0,1-2.85-1.11,21.65,21.65,0,0,1-3.06-2c-1.09-.84-2.51-2-4.12-3.5s-2.59-3-3.39-4a22.24,22.24,0,0,1-2-3.06,10.61,10.61,0,0,1-1.11-2.86c-1.51-6.53,3.91-12.51,8.17-17.2A55.5,55.5,0,0,1,63,3.39Z" transform="translate(-2.74 -1.62)"/><path class="cls-5" d="M74.87,39.82l-.4.36c-4.69,4.25-10.66,9.67-17.2,8.17a11,11,0,0,1-2.85-1.11,20.88,20.88,0,0,1-3.06-2c-1.09-.84-2.51-2-4.12-3.49s-2.59-3-3.39-4a21.65,21.65,0,0,1-2-3.06,10.42,10.42,0,0,1-1.11-2.85,11.21,11.21,0,0,1,.6-6.6,17,17,0,0,1,9.62,5.61C57.18,38,61.2,41.07,66.21,39.68a17.17,17.17,0,0,1,8.66.14Z" transform="translate(-2.74 -1.62)"/></g></g></g></svg>