<svg xmlns="http://www.w3.org/2000/svg" viewBox="0 0 460.82 488.92"><defs><style>.cls-1{fill:#dc3948;}.cls-2{fill:#1a4394;}</style></defs><g id="Layer_2" data-name="Layer 2"><g id="Layer_1-2" data-name="Layer 1"><g id="Layer_2-2" data-name="Layer 2"><g id="Layer_1-2-2" data-name="Layer 1-2"><path class="cls-1" d="M184.21,137.3c-5.51,3.48-8.88,5.77-8.88,5.77A63.09,63.09,0,0,0,184.21,137.3Z"/><path class="cls-1" d="M362.64,290.1s3.2-11.21,5.68-24.93C362,280.13,362.64,290.1,362.64,290.1Z"/><path class="cls-1" d="M368.32,265.18c4-22.42,6.23-51.48-10.45-49.33a90.16,90.16,0,0,1,7-23h0c3.27-7.09,7.95-14.58,14.56-20.47,8.76-7.79,13-13.46,15-17.25a374,374,0,0,1-57.56,46.34c-11.64,7.68-23.17,14.45-34.23,20.37-5,2.7-10,5.23-14.75,7.58,0,0-7.68,5.3-16.41,12.52-10.6,8.77-22.78,20.31-24.64,28.54-3.4,15-37.46,40.8-58.69,44.47,0,0,33.63-21.63,16.59-40.53,0,0,13.61-2.9,23.35-12.65a32.66,32.66,0,0,0,7.52-11.26c-7.38,2.16-12.55,3.2-14.8,3.1-14-.68-45.33,22.7-48.71,42-7.24,61.82-66.7,112-90.73,120.07-23.42,7.79-77.24,70.11-80,73.24C53.37,418.24,60,350.29,60,350.29c85.4-42.71,86.71-80.06,86.71-80.06-50.69,10.67-80,50.67-80,50.67C24,312.92,0,354.29,0,354.29c28.68-78.05,86.71-104.07,158.6-114.57,19.3-2.83,38.73-13.76,56.92-28.53-38.59-18.64-64.89,16.22-64.89,16.22-1.63-13.34-41.76-6.16-41.76-6.16s30-40.37,72.45-30.26,73.33-18.93,73.38-19c4.89-5.78,9.57-11.64,13.92-17.35,1.74-2.29,3.43-4.58,5.09-6.84h0c19.8-27.08,32.88-51.15,34.5-57.65a32.38,32.38,0,0,1,3.33-7.74c-21.1-7.08-34.35,27.45-34.35,27.45-7.18-24.13-69.5,12.55-93,27.4,9.11-6.85,23.59-20.39,35.11-43.46,18.32-36.6,115-41.14,115-41.13,3.83-4.25,7.14-7.73,9.16-9.83l2.12-2.12s8-21.34,30.65-24c9.24-1.09,21.6-5.73,34-9.85,18-6,36-10.86,44.73-2.16,14.67,14.66,0,121.41-24.67,107.39q-3.84,5.67-7.92,11.08c-4.08,5.41,4.52,72.24-28.47,105.23C380.37,242,372.72,254.8,368.32,265.18Z"/><path class="cls-2" d="M392.3,61c-11.68,2.78-13.58-4-22.72,3.42s-16.27-6.69-10.82-13.22-2.84-6.27-5.15-5-1.24-10.08-7-5.17a15.29,15.29,0,0,1-3.13,1.94l2.12-2.12s8-21.41,30.63-24.06c9.25-1.1,21.61-5.73,34-9.86a9.45,9.45,0,0,1-2.36,2.36c-10.58,7-1.83,7.61-2.38,12.12s4.29,9-2.11,12.48S404,58.1,392.3,61Z"/><path class="cls-2" d="M302.69,221.78c-5,2.7-10,5.24-14.75,7.58,0,0-7.68,5.31-16.41,12.53-1.61-2-3.43-3.43-4.87-2.36-3.35,2.48-10.94-5.41-9.39-8.07s-2.12-10.61-9-11c-1.33-.08-2-.46-2.2-1.06-1-2.44,4.64-8.58-1.77-12.53l-.59-.33c-9.11-4.87-7.06-9.74,1.6-9.51,5.29.17,5.52,2.43,6.8,4,.8,1,2,1.67,5.2,1.36,8.17-.8,1.53,4.88,7.48,3.24,5.52-1.55-1.17-4.67,7.42-3.74.66,0,1.43.16,2.31.29,12,1.71,9.33-3.4,12.28,4.56s6,13.64,9.81,12.27C299.79,217.84,299.23,221.14,302.69,221.78Z"/><path class="cls-2" d="M387.92,77a1016.78,1016.78,0,0,1-73.43,72.65A1020.08,1020.08,0,0,1,173,255.48a427.14,427.14,0,0,0,71.18-34.9C317.89,175.5,362.75,117,387.92,77Z"/><path class="cls-2" d="M364.89,192.79c3.27-7.09,7.95-14.58,14.56-20.47,8.76-7.78,13-13.46,15-17.25a373.43,373.43,0,0,1-57.55,46.34c.24-7.61,13.6-20.14,11-23.5-3.35-4.22,3.56-8.17,10.94-15.93s-17.21-20.6,1.75-16.2,4.89,1.49,28.48-3.41S404,156.57,404,156.57,383.14,178,364.89,192.79Z"/><path class="cls-2" d="M383.84,124.34s-7.34,5.93-2.29,9,15.09-7.25,18.53-3.82,7.17-8.38.4-8.36S392.16,131.53,383.84,124.34Z"/><path class="cls-2" d="M283.61,153.68c-1.81-3.22-9.61-1-15,1,1.74-2.3,3.44-4.59,5.09-6.84h0c4.08-2.92,8.43-5.21,11.22-4.15C291.38,146,286.39,158.7,283.61,153.68Z"/><path class="cls-2" d="M333,80s12.35-10.93,20.14,1.08-.52,1.24-7,3.09S333,80,333,80Z"/></g></g></g></g></svg>