<svg xmlns="http://www.w3.org/2000/svg" viewBox="0 0 69.1 73.31"><defs><style>.cls-1{fill:#7d5794;}.cls-2{fill:#86d0d1;}</style></defs><g id="Layer_2" data-name="Layer 2"><g id="Layer_1-2" data-name="Layer 1"><path class="cls-1" d="M27.62,20.59c-.82.52-1.33.86-1.33.86a9.75,9.75,0,0,0,1.33-.86Z"/><path class="cls-1" d="M54.38,43.5s.48-1.68.85-3.74A9.24,9.24,0,0,0,54.38,43.5Z"/><path class="cls-1" d="M55.23,39.76c.61-3.36.94-7.72-1.57-7.39a13.85,13.85,0,0,1,1.05-3.46h0a9.22,9.22,0,0,1,2.18-3.07,10.08,10.08,0,0,0,2.25-2.59,56,56,0,0,1-8.63,7c-1.74,1.15-3.47,2.17-5.13,3.06-.75.4-1.49.78-2.21,1.13,0,0-1.15.8-2.46,1.88-1.59,1.31-3.42,3-3.7,4.28-.51,2.25-5.62,6.12-8.8,6.67,0,0,5-3.25,2.49-6.08a7.9,7.9,0,0,0,3.5-1.9,4.86,4.86,0,0,0,1.12-1.68,9,9,0,0,1-2.22.46c-2.1-.1-6.8,3.4-7.3,6.3-1.09,9.28-10,16.81-13.61,18S.62,72.84.22,73.31A46.51,46.51,0,0,0,9,52.53c12.81-6.41,13-12,13-12a21.8,21.8,0,0,0-12,7.6c-6.41-1.2-10,5-10,5C4.3,41.42,13,37.52,23.78,36a18.36,18.36,0,0,0,8.53-4.29c-5.78-2.79-9.73,2.44-9.73,2.44-.24-2-6.26-.92-6.26-.92s4.5-6.06,10.87-4.54a12.77,12.77,0,0,0,11-2.85c.73-.87,1.43-1.74,2.09-2.6l.76-1h0c3-4.06,4.93-7.67,5.18-8.65a5.11,5.11,0,0,1,.49-1.16c-3.16-1.06-5.15,4.12-5.15,4.12-1.07-3.62-10.42,1.89-13.94,4.11a18.21,18.21,0,0,0,5.27-6.51C35.64,8.58,50.13,7.9,50.13,7.9c.58-.64,1.07-1.16,1.38-1.47s.31-.32.31-.32a5.92,5.92,0,0,1,4.6-3.6A31.06,31.06,0,0,0,61.52,1c2.7-.89,5.4-1.63,6.71-.32,2.19,2.2,0,18.2-3.71,16.1-.38.57-.77,1.12-1.18,1.66,0,0,.68,10.83-4.27,15.78A17.45,17.45,0,0,0,55.23,39.76Z"/><path class="cls-2" d="M58.83,9.14c-1.75.41-2-.6-3.41.51s-2.44-1-1.63-2-.42-.94-.77-.75S52.83,5.4,52,6.14a2.74,2.74,0,0,1-.46.29c.19-.21.31-.32.31-.32a5.92,5.92,0,0,1,4.6-3.6A30.1,30.1,0,0,0,61.52,1a1.33,1.33,0,0,1-.36.35c-1.59,1.05-.28,1.14-.36,1.82s.65,1.35-.32,1.88S60.58,8.72,58.83,9.14Z"/><path class="cls-2" d="M45.39,33.26c-.75.4-1.49.78-2.21,1.13,0,0-1.15.8-2.46,1.88-.24-.3-.52-.51-.73-.35-.51.37-1.64-.81-1.41-1.21s-.32-1.59-1.35-1.65c-.2,0-.29-.07-.33-.16-.15-.37.7-1.29-.26-1.88L36.55,31c-1.37-.73-1.06-1.46.24-1.42a1,1,0,0,1,1,.59c.12.14.3.25.78.2,1.22-.12.23.73,1.12.48s-.17-.69,1.12-.56l.34,0c1.8.26,1.4-.52,1.84.68s.9,2.05,1.47,1.84S44.87,33.16,45.39,33.26Z"/><path class="cls-2" d="M58.16,11.54a150.84,150.84,0,0,1-11,10.89A152.55,152.55,0,0,1,26,38.31a63.83,63.83,0,0,0,10.66-5.23A66.52,66.52,0,0,0,58.16,11.54Z"/><path class="cls-2" d="M54.72,28.91a9.22,9.22,0,0,1,2.18-3.07,10.08,10.08,0,0,0,2.25-2.59,56,56,0,0,1-8.63,7c0-1.14,2-3,1.65-3.52s.53-1.23,1.63-2.39-2.58-3.09.27-2.43.73.23,4.27-.51,2.23,2.13,2.23,2.13S57.45,26.69,54.72,28.91Z"/><path class="cls-2" d="M57.56,18.64s-1.1.9-.34,1.35,2.26-1.08,2.77-.56,1.07-1.26.06-1.26S58.81,19.72,57.56,18.64Z"/><path class="cls-2" d="M42.53,23c-.27-.48-1.44-.15-2.25.15l.76-1h0c.61-.44,1.27-.78,1.68-.63C43.69,21.89,42.94,23.8,42.53,23Z"/><path class="cls-2" d="M49.93,12s1.86-1.64,3,.16-.08.18-1,.46A2.46,2.46,0,0,1,49.93,12Z"/></g></g></svg>